<?xml version="1.0" encoding="UTF-8"?>
<svg id="svg1" xmlns="http://www.w3.org/2000/svg" version="1.1" xmlns:svg="http://www.w3.org/2000/svg" viewBox="0 0 3296 1191.11">
  <!-- Generator: Adobe Illustrator 30.3.0, SVG Export Plug-In . SVG Version: 2.1.3 Build 182)  -->
  <defs>
    <style>
      .st0 {
        fill: #5f7090;
      }

      .st1 {
        fill: #e08955;
      }

      .st2 {
        fill: #f1eae6;
      }

      .st3 {
        fill: #a6183b;
      }

      .st4 {
        fill: #455573;
      }

      .st5 {
        fill: #6986a9;
      }

      .st6 {
        fill: #fae1ca;
      }
    </style>
  </defs>
  <g id="g1">
    <path id="path12" class="st2" d="M201.46,1177.38c-17.72-3.23-30.37-10.56-48.13-27.88-13.52-13.19-29.86-34.86-35.52-47.1-2.13-4.62-5.57-14.94-7.62-22.93l-3.74-14.54-9.15-3.7c-5.03-2.04-12.53-5.94-16.67-8.67-17.52-11.56-44.45-42.51-54.69-62.88-6.4-12.71-8.16-21.43-8.16-40.34,0-19.93,1.82-28.07,9.68-43.19,11.57-22.29,32.4-37.33,57.67-41.63,6.59-1.12,12.7-2.75,13.57-3.61,1.76-1.75,4.81-12.32,11.73-40.68,5.8-23.78,11.33-34.87,23.41-47,9.91-9.95,25.46-18.62,38.09-21.24,6.74-1.4,41.99-1.23,50.52.24,2.64.46,2.67-.37,3.01-101.15l.34-101.61-12.13-11.7c-13.12-12.65-28.11-31.68-33.82-42.95-1.96-3.88-4.73-11.59-6.15-17.13-8.84-34.56,8.05-73.53,38.52-88.87,17.4-8.76,21.59-9.31,60.91-7.97,42.01,1.43,99.67,1.4,136.67-.08,30.19-1.21,37.06-.3,50.9,6.71,19.33,9.79,53.68,41.51,61.98,57.24,7.16,13.55,9.04,22.01,9.04,40.64s-1.87,27.03-9.02,40.67c-6.03,11.5-23.18,28.34-34.57,33.94l-9,4.43v127.82c0,92.47.41,127.82,1.47,127.82.81,0,5.12-.94,9.57-2.1,25.13-6.51,39.56-22.29,53.02-57.93,9.56-25.32,15.02-35.04,25.93-46.13,16.89-17.17,34.93-23.93,61.01-22.86,8.62.35,15.67.51,15.67.34s-5.77-5.93-12.82-12.81c-14.02-13.68-30.18-34-35.69-44.87-7.44-14.68-9.72-36.52-5.5-52.7,2.35-9.02,8.83-22.33,14.19-29.13,2.11-2.67,3.83-5.16,3.83-5.53s-4.86-7.19-10.79-15.14c-19.5-26.14-23.88-37.96-23.88-64.47,0-19.93,1.82-28.07,9.68-43.19,11.57-22.29,32.4-37.33,57.67-41.63,6.59-1.12,12.7-2.75,13.57-3.61,1.76-1.75,4.81-12.32,11.73-40.68,5.8-23.77,11.34-34.89,23.34-46.9,9.62-9.62,22.91-17.36,35.42-20.62,5.16-1.34,13.99-2.04,25.93-2.04,27.44,0,36.42,3.07,60.67,20.73,15.72,11.45,34.09,29.82,41.84,41.83,5.26,8.16,9.85,20.38,13.48,35.87.91,3.91,2.45,7.4,3.41,7.77,3.15,1.21,58.55-8.8,76.1-13.75,38.81-10.95,62.93-6.69,94.07,16.63,15.21,11.39,37.92,34.47,43.6,44.31,8.7,15.07,9.86,21.31,10.52,56.13l.59,31.53,8.86.91c29.31,3.02,62.16,14.47,84.99,29.63l7.1,4.72,5.05-3.98c12.19-9.6,26.13-14.7,53.72-19.64,9.9-1.77,29.4-5.95,43.33-9.29,48.29-11.57,66.67-11.27,92.26,1.54l9.59,4.8,7.08-3.05c24.22-10.44,38.36-13.34,64.95-13.34,16.68,0,23.21.55,31.58,2.68,13.59,3.45,29.19,10.98,42.27,20.39,11.39,8.2,10.75,8.14,22.56,2.11,22-11.23,55.14-17.61,101.71-19.61l21.33-.91.82-19.33c.61-14.47,1.5-21.21,3.52-26.78,3.65-10.08,3.82-10.39,29.64-53.97,12.48-21.06,22.69-39.36,22.69-40.66s-.97-6.15-2.15-10.78c-1.6-6.25-2-12.35-1.55-23.77.51-13.04,1.21-16.9,4.58-25.44,5.67-14.38,11.38-22.29,31.78-44.01l18.02-19.19v-13.42c0-25.64,6.05-39.71,26-60.47,30.02-31.24,74.77-67.42,112.67-91.07,44.96-28.06,82.4-43.94,124-52.6,15.67-3.26,21.02-3.75,41.33-3.79,22.63-.04,23.77.09,38,4.37,16.47,4.96,35.09,13.36,50,22.57,10.51,6.49,39.83,28.26,42.67,31.68,2.86,3.45,5.41,2.26,15.3-7.13,20.13-19.13,54.3-38.6,82.7-47.13,14.3-4.3,15.27-4.41,38.67-4.35,21.09.05,26.1.51,41.33,3.78,30.85,6.62,58.65,16.69,86,31.13,56.71,29.96,114.64,73.58,168.41,126.82,22.19,21.97,29.62,31.46,34.18,43.66,3.68,9.84,5.68,24.63,4.6,34.13l-.87,7.69,15.28,16.37c26.08,27.94,32.56,37.36,37.87,55.1,3.24,10.84,3.25,35.5,0,46.65l-2.34,8.05,22.87,38.54c27.28,45.96,28.82,48.92,31.92,61.13,1.32,5.21,3.23,9.87,4.24,10.35s7.65,3.7,14.77,7.16l12.95,6.3,12.39-4.1c23.02-7.62,29.9-8.61,59.72-8.57,29.19.04,42.46,1.41,61.84,6.36,16.99,4.35,24.65,7.45,41.49,16.83l14.67,8.17,8-3.02c6.64-2.51,11.42-3.12,28.13-3.61,22.74-.67,30.62.5,43.08,6.39,12.38,5.85,33.91,22.14,46.96,35.51,18.95,19.42,23.94,29.04,31.75,61.19l2.93,12.07,8.55,3.72c19.42,8.46,54.47,38.56,67.39,57.88,10.09,15.09,12.56,24.69,12.56,48.91,0,16.93-.45,21.44-2.95,29.39-5.47,17.38-18.85,34.5-35.89,45.89-11.36,7.6-20.97,11.45-33.92,13.59-8.96,1.48-9.46,1.76-11.41,6.34-1.12,2.64-3.25,10.49-4.73,17.46-4.3,20.16-10.92,40.48-15.86,48.67-2.51,4.16-7.83,11.19-11.83,15.61-6.54,7.24-7.56,9.22-10.25,19.87-3.99,15.77-10.01,26.7-20.49,37.18-9.3,9.3-19.87,15.63-32.67,19.55-7.43,2.28-14.38,2.45-98,2.43-68.37-.02-91.35-.43-95.6-1.7-4.52-1.35-6.85-1.35-12,.02-4.24,1.13-14.92,1.65-31.73,1.54-25.83-.17-76.91-.16-126,.02-22.3.08-28.72-.33-34.85-2.2-6.86-2.1-8.02-2.12-13.29-.26-16.64,5.87-49.45,7.7-70.91,3.96-16.03-2.8-31.97-8.02-43.37-14.21l-9.75-5.3-10.91,4.63c-23.14,9.83-45.78,14.18-73.74,14.19-27.7.01-52.41-5.08-75.16-15.49l-10.44-4.77-7.12,5.32c-17.83,13.31-26.74,15.59-60.45,15.44-35.76-.16-97.91-.15-130.67.02-24.1.13-27.58-.15-36.16-2.84-11.62-3.64-22.47-10.77-33.62-22.08l-8.45-8.57-9.55,9.49c-10.2,10.14-20.57,16.42-33.55,20.31-7.36,2.2-15.4,2.4-100,2.45-72.63.04-93.71-.33-100.13-1.75-7.55-1.68-8.97-1.58-20,1.33-10.56,2.79-14.68,3.13-37.21,3.05-23.02-.08-26.55-.42-38.67-3.64-7.33-1.95-19.55-6.62-27.15-10.37l-13.82-6.82-8.85,4.06c-20.84,9.55-47.55,14.85-74.85,14.85-49.14,0-90.94-16.41-125.79-49.39-8.07-7.64-13.08-11.51-13.44-10.39-.31.99-1.57,4.95-2.79,8.81-4.71,14.91-20.64,33.02-36.38,41.37-17.18,9.11-13.63,8.84-116.95,8.9-92.63.05-93.4.03-102.67-2.9-12.64-3.99-20.44-9.21-34.91-23.38l-12.24-11.98-7.76,4.67c-27.72,16.7-58.39,27.23-94.02,32.3-20.25,2.88-59.35,2.6-82.75-.58-28.15-3.83-30.89-3.89-48.32-1.06-26.18,4.25-50.17,1.71-67.62-7.17l-4.95-2.52-8.38,4.57c-15.28,8.32-21.17,9.39-51.05,9.26-29.1-.13-88.27-.15-131.33-.03-26.19.07-27.76-.08-37.47-3.45l-10.13-3.52-8.53,2.92-8.53,2.92-125.33-.39-125.33-.39-3.73,7.2c-12.37,23.86-36.67,42.18-62.74,47.31-11.37,2.24-11.84,2.48-13.75,6.95-1.09,2.55-3.13,10.04-4.54,16.64-9.18,42.89-19.32,61.4-41.93,76.52-14.58,9.75-23.86,12.32-46.63,12.88-10.27.25-21.51-.06-24.98-.69h0ZM2120.71,839.24c9.57-4.85,9.07-2.58,9.07-41.49,0-26.98-.39-35.28-1.67-35.67-20.12-6.02-25.35-7.95-30.71-11.36-3.51-2.23-6.66-4.05-7-4.05s-.62,23.82-.62,52.93v52.93l3.55,3.7,3.55,3.7,9.71-9.23c5.34-5.08,11.7-10.23,14.12-11.46h0ZM1483.04,758.8c1.5-2.95,2.73-5.6,2.73-5.9s-2.4-2.13-5.33-4.07l-5.33-3.53v27.37s2.61-4.26,2.61-4.26c1.43-2.34,3.83-6.67,5.33-9.61h0Z"/>
    <path id="path11" class="st6" d="M2213.05,544.69c-26.42-7.82-35.68-12.94-50.58-27.96l-12.27-12.37-26.54-2.2c-96.2-7.96-181.91-7.62-313.38,1.25-31.43,2.12-33.1,1.95-40.14-3.97-5.12-4.31-6.47-9.67-3.94-15.62,1.04-2.46,19.98-34.96,42.08-72.22s40.18-68.27,40.18-68.9-3.45-1.51-7.67-1.95c-18.23-1.89-20.98-2.59-21.39-5.47-.51-3.57,3.56-8.6,29.08-35.92,11.65-12.47,24.89-26.7,29.44-31.63,4.55-4.93,13.54-13.33,19.99-18.67,6.45-5.33,11.76-10.13,11.8-10.66.13-1.56-13.45-5.04-24.55-6.28-5.67-.64-10.9-1.75-11.63-2.48-1.99-1.99-.74-6.03,2.35-7.57,1.5-.75,9.3-7.48,17.32-14.96,41.04-38.25,79.6-65.6,123.78-87.8,28.77-14.45,54.07-22.19,82.86-25.34,9.32-1.02,21.5,2.04,37.6,9.44,32.01,14.71,68.94,50.06,90.5,86.61,3.47,5.88,7.16,12.1,8.21,13.84,1.89,3.13,1.95,3.08,6.6-5.33,11.67-21.09,23.5-36.49,42.93-55.91,25.53-25.51,45.52-38.61,70.39-46.14,17.85-5.4,53.43.63,85.42,14.49,47.99,20.78,101.03,57.3,144.95,99.81,5.87,5.68,12.02,10.73,13.67,11.22,3.8,1.13,4.08,6.71.42,8.67-1.42.76-5.21,1.38-8.42,1.38-5.3,0-24.31,4.2-25.81,5.7-.34.34,7.43,7.56,17.27,16.04,9.84,8.48,19.25,17.71,20.91,20.5,1.66,2.8,9.12,11.38,16.58,19.08,30.18,31.16,35.55,37.46,35.12,41.13-.45,3.84-2.76,4.56-20.17,6.23-7.58.73-8.96,1.23-8.28,3,.45,1.17,19.17,33.07,41.6,70.88,28.16,47.48,40.99,70.32,41.47,73.82.58,4.27.08,5.71-3.16,9.16-6.91,7.35-10.2,8.01-32.23,6.46-93.53-6.57-174.17-8.93-233.86-6.83-40.66,1.43-76.98,3.59-106.61,6.34l-9.75.91-8.48,9.04c-11.9,12.68-20.49,18.9-33.59,24.3-26.32,10.85-49.13,13.1-70.06,6.91h0Z"/>
    <path id="path10" class="st1" d="M191.48,1067.67c-.71-.92-2.93-8.87-4.94-17.67-8.66-37.97-18.77-61.54-32.02-74.69-8.29-8.23-23.61-14.67-41.31-17.37-13.16-2-17.74-4.78-16.15-9.78,1.26-3.96,4.28-5.24,14.86-6.29,5.6-.55,14.47-2.94,22.69-6.09,11.86-4.55,14.37-6.11,20.73-12.81,12.53-13.22,23.55-37.17,28.37-61.63,1.23-6.23,3.04-14.03,4.03-17.33.99-3.3,2.17-7.69,2.63-9.75.72-3.26,1.38-3.69,4.99-3.33,3.9.39,4.31.96,6.55,9.08,1.31,4.77,3.66,14.6,5.23,21.85,7.27,33.7,22.73,61.51,38.59,69.4,11.45,5.7,24.74,9.95,33.7,10.79,10.83,1.01,15.18,3.81,13.89,8.94-1.02,4.05-5.28,5.82-17.22,7.16-8.31.93-20.87,5.02-30.1,9.79-15.67,8.11-32.05,36.94-38.3,67.41-2.94,14.34-7.38,30.48-8.89,32.33-.75.92-2.41,1.67-3.7,1.67s-2.92-.75-3.63-1.67h0ZM3070.15,846.33c-.71-.92-2.93-8.87-4.94-17.67-8.66-37.97-18.77-61.54-32.02-74.69-8.29-8.23-23.61-14.67-41.31-17.37-13.16-2-17.74-4.78-16.15-9.78,1.26-3.96,4.28-5.24,14.85-6.29,5.6-.55,14.47-2.94,22.69-6.09,11.86-4.55,14.37-6.11,20.73-12.81,12.53-13.22,23.55-37.17,28.37-61.63,1.23-6.23,3.04-14.03,4.03-17.33.99-3.3,2.17-7.69,2.63-9.75.72-3.26,1.38-3.69,4.99-3.33,3.9.39,4.31.96,6.54,9.08,1.31,4.77,3.66,14.6,5.23,21.85,7.27,33.7,22.73,61.51,38.59,69.4,11.45,5.7,24.74,9.95,33.7,10.79,10.83,1.01,15.18,3.81,13.9,8.94-1.02,4.05-5.28,5.82-17.22,7.16-8.31.93-20.87,5.02-30.1,9.79-15.67,8.11-32.05,36.94-38.3,67.41-2.94,14.34-7.38,30.48-8.89,32.33-.75.92-2.41,1.67-3.7,1.67s-2.92-.75-3.63-1.67h0ZM748.82,585c-.71-.92-2.93-8.87-4.94-17.67-8.66-37.97-18.77-61.54-32.02-74.69-8.29-8.23-23.61-14.67-41.31-17.37-13.16-2-17.74-4.78-16.15-9.78,1.26-3.96,4.28-5.24,14.85-6.29,5.6-.56,14.47-2.94,22.69-6.09,11.86-4.55,14.37-6.11,20.73-12.81,12.53-13.22,23.55-37.17,28.37-61.63,1.23-6.23,3.04-14.03,4.03-17.33.99-3.3,2.17-7.69,2.63-9.75.72-3.26,1.38-3.69,4.99-3.33,3.9.39,4.31.96,6.55,9.08,1.31,4.77,3.66,14.6,5.23,21.85,7.27,33.7,22.73,61.51,38.59,69.4,11.45,5.7,24.74,9.95,33.7,10.79,10.83,1.01,15.18,3.81,13.89,8.94-1.02,4.05-5.28,5.82-17.22,7.16-8.31.93-20.87,5.02-30.1,9.79-15.67,8.11-32.05,36.94-38.3,67.41-2.94,14.34-7.38,30.48-8.89,32.33-.75.92-2.41,1.67-3.7,1.67s-2.92-.75-3.63-1.67h0ZM2213.83,543.2c-13.51-3.63-31.35-11.48-38.53-16.96-3.92-2.99-10.87-9.54-15.44-14.54l-8.31-9.1-11.23-1.26c-22.57-2.53-66.93-5.3-109.12-6.81-55.99-2.01-125.86.11-229.83,6.95l-23.72,1.56-4.95-3.99c-3.97-3.2-5.03-5.03-5.34-9.25-.35-4.62,1.17-7.85,12.49-26.53,7.09-11.7,15.44-25.77,18.56-31.27,14.17-25.01,51.74-87.58,53.9-89.77,2.05-2.09,3.15-2.23,7.64-1.02,2.88.78,14.82,2.64,26.53,4.14,56.31,7.21,103.39,18.67,158.4,38.57,35.04,12.67,47.82,18.29,93.55,41.09,50.08,24.97,61.23,30.15,63.35,29.44,3.74-1.25-39.86-51.31-61.5-70.62-36.64-32.7-61.4-49.83-105.18-72.8-47.16-24.74-74.9-31.71-132.33-33.28-21.67-.59-29-1.2-29-2.43,0-1.93,13.72-15.07,28.41-27.19,5.92-4.89,10.2-9.41,9.98-10.55-.49-2.5-14.55-6.63-27.04-7.93-7.67-.8-9.4-1.42-9.8-3.51-.45-2.35.15-2.48,7.98-1.72,12.32,1.2,21.79,4,46.47,13.74,31.03,12.25,59.81,27.56,132,70.2,69.65,41.15,106.5,74.24,159.15,142.9,2.1,2.74,4.29,4.47,4.86,3.86,1.22-1.31,1.96-10.07,3.9-46.45.78-14.67,2.06-33.78,2.85-42.47,2.17-24.01,1.75-91.03-.72-116.2-2.8-28.54-5.44-44.39-8.83-52.93-1.54-3.89-3.99-10.06-5.44-13.7l-2.63-6.63,2.7,2.44c2.37,2.14,4.94,6.17,16.49,25.81,1.4,2.38,3.25,4.33,4.11,4.32.86-.01,3.84-4.36,6.63-9.67,5.33-10.14,14.07-22.95,15.02-22.01.31.31-1.56,5.79-4.14,12.19-5.92,14.69-7.9,23.36-10.84,47.5-4.23,34.8-3.17,124.15,2.31,193.33,1.65,20.81,2.16,24,3.89,24,.69,0,5.89-6.12,11.56-13.6,42.89-56.63,84.83-93.46,151.13-132.69,70.97-42,101.63-58.29,132.38-70.33,25.22-9.88,33.89-12.44,46.09-13.63,7.83-.76,8.43-.63,7.98,1.72-.4,2.06-2.13,2.72-9.14,3.51-13.95,1.57-27.32,5.46-27.32,7.95,0,1.18,6.6,7.82,14.67,14.77,19,16.36,25.72,23.35,23.23,24.16-1.04.34-14.19.92-29.23,1.29-28.25.7-51.78,3.5-74.17,8.82-24.54,5.83-82.24,35.36-118.84,60.82-14.82,10.31-40.55,32.64-59.04,51.25-25.07,25.23-48.41,53.29-46.17,55.52,1.2,1.2,11.92-3.78,61.56-28.54,47.05-23.47,59.7-29.04,94.89-41.77,55.24-19.98,101.3-31.16,158.7-38.53,11.6-1.49,23.17-3.3,25.72-4.04,2.55-.73,5.57-1.04,6.72-.67,1.62.51,36.48,58.05,57.48,94.88,1.74,3.05,9.04,15.23,16.21,27.06,7.18,11.83,13.4,23.28,13.83,25.44.66,3.32-.04,4.76-4.56,9.27-6.13,6.13-5.44,6.05-33.66,4.03-74.14-5.32-166.73-8.64-208-7.45-58.7,1.69-128.27,6.22-136.9,8.92-2.4.75-6.1,3.74-8.55,6.92-6.01,7.79-18.41,18.24-26.82,22.6-3.89,2.02-13.51,5.77-21.38,8.33-13.42,4.38-15.37,4.66-31.33,4.58-10.49-.05-19.82-.84-24.3-2.04h0ZM2132.44,481.33c0-.73-.75-1.34-1.67-1.34-.92,0-12.47-.89-25.67-1.98-46.59-3.82-107.24-5.2-155.44-3.55-105.32,3.61-123.99,7.12-33.22,6.24,34.83-.34,78.93-.13,98,.45,53.45,1.64,118,1.73,118,.18ZM2552.44,480.96c42.29.17,68.68-.18,66.67-.9-4.58-1.64-40.17-3.77-93.22-5.59-48.09-1.65-109.08-.25-154.78,3.54-12.83,1.07-24.38,1.95-25.67,1.97-1.28.02-2.33.72-2.33,1.57,0,1.16,17.09,1.25,69.67.33,38.32-.67,101.17-1.08,139.67-.92ZM1842.44,474.01c37.97-3.35,59.37-4.58,106.89-6.17,49.62-1.66,108.32-.32,156.58,3.58,14.05,1.13,27.11,1.85,29.03,1.6,3.09-.41,2.86-.65-2.06-2.09-24.53-7.2-73.59-13.45-107.12-13.65-8.43-.05-18.32-.58-21.98-1.18-8.39-1.38-60.15.5-89.61,3.25-41.82,3.91-107.08,14.23-107.08,16.94,0,.78,2.55.99,6.33.52,3.48-.43,16.53-1.69,29-2.79h0ZM2669.04,476.07c-2.93-2.93-67.19-12.9-107.93-16.75-23.99-2.27-83.23-4.84-85.12-3.69-.61.37-14.13,1.18-30.03,1.79-34.52,1.33-57.8,3.89-84.64,9.3-33.48,6.76-31.16,7.93,9.13,4.63,46.33-3.8,107.15-5.16,156.1-3.51,46.49,1.57,88.1,4.15,118.56,7.36,22.24,2.34,25.52,2.46,23.93.88ZM1807.11,468.04c45.22-8.54,91.34-14.57,133.82-17.49,29.32-2.01,106.02-.83,128.84,1.99,9.17,1.13,16.82,2.07,17,2.09.18.02.33-.49.33-1.12,0-2.64-50.14-7.53-99.22-9.68-27.75-1.22-43.76-1.21-70.62.03-55.83,2.57-123.89,9.31-126.98,12.56-1.85,1.94-4.51,9.75-4.51,13.21,0,2.1.67,2.43,3.67,1.81,2.02-.42,9.97-1.95,17.67-3.41h0ZM2689.21,466.33c-1.59-9.99-3.06-11.1-17.01-12.9-65.56-8.47-135.24-12.01-187.76-9.53-47.46,2.24-96,7.11-96,9.63,0,.62.15,1.12.33,1.1.18-.02,7.83-.95,17-2.07,23-2.82,99.54-4.02,128.74-2.02,43.7,3,90.21,9.09,132.59,17.35,10.63,2.07,20.16,3.84,21.17,3.93,1.43.13,1.63-1.11.93-5.5h0ZM2146.44,455.7c-5.79-3.36-26.22-10.7-43.97-15.79-68.58-19.68-150.49-24.37-242.7-13.92-46.38,5.26-53.18,6.16-56.8,7.52-3.81,1.44-10.19,11.43-8.35,13.08.63.57,10.15-.04,21.15-1.34,29.25-3.48,65.17-6.37,100-8.05,69.47-3.36,163.23,3.94,214,16.67,6.97,1.75,14.17,3.22,16,3.28,3.16.1,3.2.03.67-1.44h0ZM2350.44,452.73c52.11-11.99,140-18.58,207.23-15.54,37,1.67,70.69,4.34,102.11,8.07,11,1.31,20.51,1.92,21.13,1.36,1.82-1.64-3.18-10.59-6.97-12.48-3.56-1.78-9.26-2.57-58.15-8.14-84.25-9.59-164.37-6.23-226.67,9.49-25.22,6.37-60.67,18.79-60.67,21.26,0,1,.77.86,22-4.03ZM2095.11,454.67c0-.73-1.05-1.32-2.33-1.31-1.99.02-2.04.21-.33,1.31,2.52,1.63,2.67,1.63,2.67,0ZM2384.44,453.86c0-.29-.9-.52-2-.52s-2,.58-2,1.29.9.95,2,.52c1.1-.42,2-1,2-1.29ZM2153.1,445.31c-1.41-2.27-19.23-13.8-33.32-21.55-25.88-14.23-56.91-27.01-77.02-31.74-36.2-8.51-66.18-11.32-107.64-10.11-34.25,1-41.96,2.19-83.51,12.88-28.98,7.46-29.41,7.68-36.49,18.24-6.31,9.42-7.63,12.29-5.68,12.29.65,0,7.74-.86,15.76-1.92,82.73-10.9,150.07-12.38,209.92-4.61,11.37,1.48,25.47,3.21,31.33,3.85,14.03,1.53,42.23,8.93,65.38,17.17,19.44,6.91,22.66,7.74,21.27,5.5h0ZM2344.44,439.49c25.36-8.79,54.71-16,73.33-18.01,7.7-.83,20.66-2.38,28.81-3.43s28.84-2.59,46-3.41c44.06-2.11,85.41-.12,141.5,6.8,36.82,4.54,33.02,4.25,33.02,2.51,0-2.64-13.18-20.92-15.59-21.62-21.57-6.23-41.06-11.21-58.41-14.95-19.86-4.27-23.59-4.65-54-5.47-37.43-1-60.04.79-93.09,7.4-27.31,5.46-45.93,12.13-76.34,27.36-24.44,12.24-52.17,29.82-47.24,29.95.73.02,10.63-3.19,22-7.13h0Z"/>
    <path id="path9" class="st5" d="M1771.24,914.6c-5.43-1.42-12.63-4.2-16-6.17-9.27-5.42-19.24-16.61-24.77-27.8-2.71-5.48-5.54-9.97-6.28-9.97s-5.61,3.94-10.8,8.75c-27.66,25.61-55.41,36.4-89.61,34.83-19.41-.89-27.82-3.05-45.83-11.76-11.69-5.66-15.53-8.38-24.8-17.59-13.33-13.23-19.84-25.29-22.27-41.2-1.82-11.95-.04-27.51,4.43-38.87,9.52-24.15,37.19-49.49,72.42-66.32,18.67-8.92,39.98-15.62,76.05-23.91,16.87-3.88,31.42-7.62,32.33-8.32,1.21-.92,1.67-6.92,1.67-21.7,0-49.53-10.27-83.65-27.83-92.44-15.84-7.93-41.17-1.74-56.8,13.9-9.31,9.31-14.71,20.65-17.4,36.52-1.17,6.9-2.96,14.17-3.99,16.15-5.22,10.09-32.91,13.92-47.97,6.63-13.32-6.45-14.96-18.06-5.42-38.21,14.45-30.5,39.37-44.81,88.03-50.55,40.9-4.82,71.78-.77,98.14,12.9,25.52,13.23,41.48,32.71,49.31,60.17,3.8,13.33,5.18,47.88,5.16,129.68-.01,65.15.72,78.96,4.83,91.48,4.29,13.06,15.17,16.52,31.45,10,10.78-4.31,14.22-4.42,15.68-.48,1.81,4.9-.88,9.72-10.48,18.78-9.74,9.19-19.16,14.37-30.44,16.74-10.62,2.23-27.59,1.69-38.8-1.24h0ZM1667.3,881.38c12.22-3.78,47.72-27.85,52.08-35.31.52-.88.39-11.46-.28-23.5s-1.24-38.21-1.27-58.15c-.03-22.84-.55-36.56-1.39-37.08-2.05-1.27-23,4.37-36.72,9.9-18.73,7.54-30.59,15.19-43.38,27.99-18.57,18.58-24.94,35.56-23.5,62.65,2.34,44.11,22.09,63.52,54.47,53.51h0ZM2598.62,915.22c-18.28-4.43-33.44-17.04-42.25-35.18-2.51-5.15-5.07-9.37-5.71-9.37s-5.41,3.94-10.6,8.75c-18.66,17.28-39.76,28.79-60.9,33.24-11.17,2.35-33.53,2.63-44.71.57-33.65-6.22-63.92-28.97-74.15-55.75-3.95-10.33-4.86-29.7-1.97-41.99,9.13-38.85,53.1-74.03,114.91-91.94,6.53-1.89,23.86-6.18,38.53-9.53s28.11-6.7,29.87-7.45l3.21-1.36-.84-24.93c-1.5-44.63-8.19-70.34-21.7-83.46-6.58-6.39-11.96-7.9-25.7-7.22-9.47.47-13.08,1.32-20.36,4.82-18.55,8.91-29.95,25.06-33.82,47.97-2.55,15.07-3.94,18.31-9.23,21.49-10.8,6.5-32.98,7.19-43.45,1.34-8.6-4.8-11.28-9.18-11.28-18.45,0-11.25,9.86-30.89,21.21-42.25,20.37-20.39,60.05-31.02,110.08-29.49,17.67.54,24.51,1.33,34.76,4.02,39.42,10.34,66.81,36,76.05,71.24,3.76,14.36,5.64,61.44,4.79,120.38-1.09,75.82,1.31,100.8,10.49,109.41,2.98,2.8,4.72,3.25,12.36,3.2,6.56-.05,10.4-.85,14.65-3.08,3.42-1.79,7.49-2.85,10-2.61,3.88.38,4.27.85,4.66,5.61.4,4.9-.13,5.74-9.33,14.74-14.9,14.57-27.3,19.43-49.09,19.27-6.97-.05-16.19-.95-20.49-1.99h0ZM2502.24,877.59c10.86-5.38,34.55-22.07,40.63-28.62l3.09-3.33-1.49-49.09c-.82-27-1.09-52.26-.61-56.12s.49-8.57.02-10.44c-.78-3.11-1.29-3.34-5.82-2.56-8.29,1.42-35.45,10.79-44.47,15.33-28.18,14.19-46.73,35.16-52.51,59.35-2.48,10.4-2.48,29.76.01,42.77,2.46,12.86,7.1,22.59,14.12,29.6,7.22,7.22,14.14,9.6,26.26,9.04,8.17-.37,11.46-1.31,20.76-5.92h0ZM244.86,913.5c-7.92-5.03-9.51-13.38-3.66-19.23,3.34-3.34,3.94-3.43,24.12-3.85,20.43-.42,20.73-.47,23.69-3.91l2.99-3.48.87-128.6c.48-70.73.48-162.71,0-204.4-.84-73.02-.96-75.9-3.49-78.43-2.43-2.43-4.01-2.58-20.96-1.97-19.65.71-25.16-.37-27.87-5.44-3.37-6.29-.44-14.11,6.09-16.26,3.27-1.08,9.74-1.07,24.14.03,27.67,2.11,114.11,2.23,136.64.19,21-1.9,24.76-1.06,26.77,5.93,1.51,5.27-1.76,13.48-6.01,15.09-1.69.64-11.46.88-21.73.53-15.31-.52-19.15-.27-21.33,1.39-2.56,1.94-2.7,4.06-3.44,52.46-.42,27.74-.42,118.54,0,201.78.76,149.1.81,151.4,3.48,155.95,5.02,8.54,9.23,9.89,32.65,10.49,46.34,1.18,87.96-5.28,114.27-17.75,35.21-16.68,58.43-45.18,74.96-92.02,2.29-6.49,5.44-14.07,6.99-16.83,4.66-8.29,13.59-10.01,19.79-3.82,3.92,3.92,3.49,11.74-3.95,70.91-3.62,28.81-7,56.59-7.5,61.72-1.03,10.52-3.22,15.8-7.59,18.29-2.38,1.36-36.83,1.71-170.32,1.71-92.03,0-173.63.5-181.33,1.1-12.84,1.01-14.35.88-18.25-1.6h0ZM671.37,912.69c-3.6-4.58-3.74-10.05-.36-14.21,2.48-3.05,3.08-3.13,19.21-2.73,15.55.39,16.82.23,19.29-2.43,1.45-1.56,3.01-4.67,3.46-6.91.45-2.24.78-63.55.74-136.24-.06-98.75-.48-133.34-1.67-136.8-2.33-6.8-5.76-7.52-26.73-5.62-19.91,1.8-25.52.87-27.59-4.57-1.56-4.1.34-9.08,4.5-11.81,1.81-1.18,9.89-2.96,18.39-4.05,8.34-1.06,23.46-3.26,33.6-4.87,19.99-3.19,20.83-3.02,20.88,4.02.01,1.77,2,5.11,4.55,7.67,4.18,4.18,5.18,4.53,12.8,4.53s8.63-.37,12.54-4.33c3.07-3.11,4.96-6.97,6.7-13.67,1.33-5.13,3.36-10.08,4.51-11,3.08-2.46,16.9-2.15,19.48.43,1.88,1.88,2.1,18.15,2.11,159,.01,86.3.39,158.28.84,159.96,1.4,5.23,6.95,6.95,22.41,6.95,12.29,0,14.4.34,16.73,2.67,3.5,3.5,3.39,9.39-.26,14.02l-2.92,3.72-28.74-1.18c-36.56-1.5-68-1.5-103.49-.01l-28.08,1.18-2.92-3.71ZM2153.91,912.53c-2.32-2.95-2.86-4.94-2.3-8.44,1.33-8.19,2.94-8.81,21.45-8.33,19.11.5,21.22-.5,22.68-10.67.45-3.17.65-65.85.43-139.29-.39-131.35-.44-133.58-3.06-136.47-2.62-2.89-3.06-2.93-25.06-1.98-20.37.87-22.63.75-25-1.4-1.58-1.43-2.61-4.09-2.61-6.72,0-6.69,4.29-9.2,18.93-11.09,32.44-4.17,49.35-7.28,87.29-16.07,9.65-2.24,20.21-4.06,23.46-4.06,11.29,0,10.33-15.15,10.33,162.96,0,153.61.07,158.17,2.55,161.23,2.35,2.91,3.65,3.18,17,3.52,18.2.47,19.65.8,21.56,4.99,2.26,4.96,1.94,7.8-1.36,11.99l-2.92,3.71-27.41-1.19c-34.97-1.52-72.23-1.52-106.16-.01l-26.75,1.19-3.04-3.86ZM1005.78,912.04c-29.67-4.5-41.01-4.75-61.75-1.32-19.57,3.23-26.6,2.83-29.41-1.66-1.04-1.67-.72-5.94,1.19-16,2.52-13.2,2.63-21.48,3.01-215.55.34-176.92.14-202.68-1.63-208.76-2.98-10.25-4.25-10.64-30.57-9.49l-21.99.96-1.93-3.78c-2.39-4.68-.93-9.34,3.46-11,1.71-.65,7.88-1.91,13.7-2.8,32.3-4.92,66.03-11.26,81.59-15.34,22.14-5.81,26.85-5.92,32.64-.75l4.35,3.89.37,83.44c.24,54.26.84,83.44,1.7,83.44.73,0,5.36-2.02,10.29-4.5,26.59-13.34,55.13-18.58,84.39-15.49,28.32,2.99,49.89,11.6,68.18,27.2,25.92,22.11,40.13,48.7,49.33,92.27,4.03,19.09,4.36,60.54.64,80.52-13.09,70.3-58.96,118.56-126.9,133.53-18.05,3.98-58.37,4.56-80.68,1.18h0ZM1051.66,893.36c5.67-1.45,13.42-4.28,17.21-6.29,10.17-5.38,28.44-24.37,35.03-36.43,18.94-34.65,27.71-82.69,24.5-134.29-2.32-37.22-9.37-65.8-21.14-85.6-6.26-10.54-20.84-24.73-30.2-29.4-9.19-4.59-23.78-5.29-34.14-1.65-10.22,3.59-21.62,11.59-31.37,22.02-13.63,14.57-12.65,3.58-12.11,136.3.36,88.29.87,117.16,2.14,121,2.22,6.7,8.42,13.56,13.82,15.29,7.42,2.38,25.02,1.91,36.26-.96h0ZM1250.5,912.06c-3.6-3.97-3.9-9.71-.73-13.74,2.86-3.63,2.94-3.65,19.81-3.65,19.29,0,21.9-.98,24.14-9.04,1.96-7.05,1.9-243.73-.06-254.34-1.6-8.67-4.93-16.09-8.74-19.51-3.79-3.4-10.72-3.99-22.95-1.96-15.75,2.62-21.52.53-21.52-7.8s7.85-11.84,32.67-15.4c5.87-.84,22.67-4.51,37.33-8.16,40.17-9.99,50.74-9.98,55.92.05,2.01,3.89,7.39,37.02,7.41,45.6,0,2.63.38,5.15.83,5.6s8.62-7.25,18.15-17.12c20.77-21.5,30.78-29.69,43.91-35.93,21.89-10.39,51.19-11.45,63.74-2.29,7.19,5.25,10.57,18.63,13.39,53.08,1.67,20.42.89,26.67-4.11,33.04-2.31,2.94-3.82,3.51-9.31,3.51-9.25,0-13.09-3.98-19.92-20.67-3-7.33-7.38-16.54-9.73-20.46-10.17-16.94-27.85-18.14-47.05-3.19-20.18,15.72-33.66,38.1-42.76,70.97l-3.13,11.32v90.92c0,57,.49,92.22,1.32,94.41,2.14,5.63,8.64,7.47,24.81,7.05,12.62-.33,14.26-.1,15.97,2.22,3.65,4.96,1.55,16.1-3.19,16.9-.5.08-37.64.3-82.54.48-74.89.3-81.8.14-83.65-1.91h0ZM1866.09,913.48c-4.82-3.15-5.49-11.91-1.22-15.91,2.83-2.66,4.48-2.9,19.7-2.9,19.81,0,21.64-.83,23.77-10.73,1.95-9.08,1.99-238.47.04-250.45-2.01-12.37-6.18-20.29-12.26-23.26-4.66-2.28-5.88-2.31-18-.57-17.99,2.59-22.94,1-22.98-7.41-.05-8.74,4.62-11.05,31.34-15.46,8.81-1.46,24.41-4.76,34.67-7.33,45.65-11.48,54.47-11.55,59.7-.51,2.03,4.28,5.27,23.22,7.09,41.43.5,4.97,1.31,9.29,1.82,9.6.5.31,5.92-5.11,12.04-12.04,12.3-13.94,31.14-30.94,41.62-37.56,3.74-2.36,10.73-5.6,15.53-7.2,8.05-2.68,10.37-2.84,29.87-2.03,24.61,1.01,27.93,2.14,31.72,10.71,3.68,8.32,6.6,28.11,7.51,50.85.68,17.09.47,20.66-1.41,24.29-2.67,5.17-5.83,7.01-12.03,7.01-10.18,0-12.78-3.26-23.45-29.48-11.87-29.18-30.74-33.16-56.83-11.99-14.92,12.1-26.86,31.38-36.28,58.59l-4.92,14.21-.37,95.18c-.32,82.51-.1,95.59,1.62,98.21,3.12,4.77,10.14,6.38,23.3,5.35,10.54-.82,11.87-.65,15.17,1.94,4.64,3.65,5.06,11.59.83,15.42-2.66,2.4-6.42,2.52-84.56,2.69-44.98.09-82.34-.19-83.02-.64h0ZM2694.94,912.51c-4.82-5.57-4.49-13.96.66-16.84,1.77-.99,9.23-1.61,19.78-1.63,12.06-.03,17.43-.54,18.67-1.78,1.41-1.4,1.74-27.66,1.74-137.33,0-74.58-.46-137.24-1.02-139.24-1.81-6.47-7.3-8.09-23.73-7.02-16.83,1.1-23.45-.36-24.73-5.44-1.86-7.4,2.94-10.14,23.07-13.19,19.31-2.92,54.04-11.26,84.7-20.32,4.63-1.37,9.81,6.28,14.89,22,2.65,8.19,4.81,15.82,4.81,16.96,0,3.99,3.93,3.55,9.62-1.07,13.73-11.15,37.12-24.19,53.28-29.69,14.51-4.94,27.3-6.42,47.54-5.48,35.77,1.65,58.33,9.4,72.76,24.99,10.54,11.38,15.89,22.78,20.19,42.96,2.21,10.37,4.95,49.12,3.8,53.7-1.12,4.46-22.89,13.17-37.78,15.12-12.9,1.69-16.6,4.14-18.86,12.53-3,11.14,2.37,22.36,11.87,24.82,2.7.7,8.5,1.69,12.9,2.2,8.53.99,26.68,7.48,30,10.72,1.73,1.7,1.94,10.14,1.53,63.57-.36,46.82-.07,62.48,1.17,65.2,2.39,5.19,7.27,6.64,20.99,6.2,10.31-.33,12.5-.01,14.86,2.13,3.58,3.24,3.78,11.76.35,15.18-2.28,2.28-6.81,2.41-80.77,2.33-75.97-.08-78.41-.16-80.25-2.67-2.89-3.96-2.4-11.87.92-14.87,2.48-2.24,4.59-2.49,17.76-2.13,12.97.35,15.35.08,18.01-2.08l3.06-2.48.17-121.92c.19-135.44.32-133.15-8.67-151.41-7.93-16.12-20.21-22.77-39.71-21.51-5.86.38-12.64,1.77-16.11,3.3-15.4,6.8-38.45,28.61-49.5,46.82l-4.5,7.43v26.06c0,14.33.15,67.33.33,117.78l.33,91.73,3.46,3.46c3.33,3.33,3.89,3.43,14.66,2.67,12.15-.86,18.46.51,20.58,4.46,2.11,3.95,1.51,8.66-1.62,12.63l-2.92,3.71-26.08-1.19c-33.09-1.51-67.95-1.51-102.75-.03-25.92,1.11-27.45,1.04-29.51-1.34h0Z"/>
    <path id="path8" class="st0" d="M1778.99,914.67c-22.44-3.57-38.09-15.74-48.24-37.52-2.34-5.03-4.79-9.15-5.43-9.15s-6.05,4.28-12.02,9.52c-29.95,26.27-58,37.27-90.18,35.38-16.86-.99-27.19-3.78-44-11.85-12.22-5.87-15.46-8.19-25.41-18.22-11.51-11.59-16.58-19.77-19.9-32.07-1.95-7.24-1.9-27.35.09-35.62,6.88-28.57,33.77-55.56,74.87-75.14,19.13-9.11,33.6-13.67,74.17-23.36,24.14-5.76,35.66-9.09,36.46-10.53,1.03-1.84,5.94-2.11,39.11-2.11h37.93l.07,59.67c.09,73.29,1.13,93.56,5.44,106.31,2.48,7.34,4.11,9.95,7.68,12.33,6.47,4.32,17.39,4.14,28.01-.47,8.87-3.85,12.13-3.53,12.13,1.19,0,8.01-16.81,23.17-31.67,28.58-10.15,3.69-26.9,5-39.12,3.06ZM1676.34,879.51c12.69-6.41,27.26-16.49,37.55-26l8.12-7.5-1.45-32.95c-.8-18.12-1.45-45.35-1.45-60.52v-27.57l-7.2.85c-17.41,2.05-49.31,15.43-64.8,27.2-25.68,19.5-36.11,39.84-36.11,70.46,0,23.39,6.13,42.31,17.15,52.97,7.41,7.16,13.33,9.03,26.96,8.51,9.97-.38,12.52-1.03,21.23-5.43h0ZM2599.57,914.11c-18.38-4.46-32.46-15.92-41.23-33.56-2.88-5.8-5.8-10.95-6.48-11.44-.68-.49-5.18,2.73-10,7.17-12.07,11.11-25.45,20.43-38.09,26.53-17.12,8.26-24.99,9.85-48.67,9.85-17.94,0-21.99-.41-30.67-3.13-24.18-7.55-47.02-23.83-57.19-40.76-11.55-19.22-12.64-45.11-2.8-66.95,13.41-29.75,50.47-57.49,97.71-73.11,9.69-3.2,32.01-9.2,49.61-13.32,17.6-4.12,32.59-8.09,33.31-8.81,3.57-3.57,1.49-50.22-3.26-73.23-4.9-23.7-16.25-41.24-29.18-45.12-12.6-3.77-31.26-.51-44.06,7.7-15.94,10.23-24.96,24.96-28.79,47.06-1.41,8.12-3.24,14.22-4.89,16.32-6.16,7.82-32.55,9.9-44.9,3.53-11.32-5.84-12.23-16.51-3.05-35.64,13.37-27.87,38.16-42.25,82.72-48,23.14-2.98,59.16-2.02,74.1,1.98,21.94,5.87,44.9,19.77,57.14,34.58,6.68,8.08,13.42,21.57,16.92,33.83,4.15,14.56,5.67,47.42,5.98,129.09.29,76.35.93,84.85,7.29,97.32,4.98,9.75,16.31,11.96,30.93,6.02,4.51-1.83,9.6-3.33,11.31-3.33,2.67,0,3.1.66,3.1,4.79s-1.21,6-8.37,13.16c-13.88,13.88-28.01,19.45-48.87,19.27-7.02-.06-15.85-.86-19.63-1.78h0ZM2500.91,879.64c12.04-5.72,23.43-13.24,36.65-24.2l9.78-8.11-.92-27.33c-.51-15.03-1.03-42.16-1.17-60.27s-.62-33.32-1.09-33.78c-1.23-1.23-14.62,1.77-28.39,6.36-33.59,11.21-59.92,31.38-70.71,54.16-4.97,10.49-7.24,21.89-7.27,36.44-.03,21.83,5.25,40.18,14.65,50.88,7.63,8.69,15.36,11.64,28.87,11.04,7.63-.34,11.55-1.38,19.59-5.19h0ZM672.78,913.07c-.91-1.1-2.02-3.84-2.48-6.11-.66-3.29-.14-4.8,2.57-7.51,3.35-3.35,3.61-3.38,18.08-2.56,17.18.98,20.56-.3,22.65-8.56.74-2.93,1.45-60.55,1.72-139,.37-109.58.13-134.77-1.33-138.22-2.93-6.95-6.99-7.81-28.02-5.9-23.32,2.11-28.89.28-25.58-8.43,1.53-4.03,6.36-5.57,23.38-7.45,10.65-1.17,25.93-3.53,46.41-7.15.59-.1,2.09,2.76,3.33,6.37,2.96,8.6,7.39,11.8,17.24,12.43,13.67.88,18.64-3.61,23.99-21.62,2.32-7.83,2.46-7.99,8.24-9.12,3.63-.71,6.98-.65,8.78.17l2.91,1.32.89,99.13c.49,54.52.89,125.95.89,158.72v59.59s3.22,3.74,3.22,3.74c3.14,3.66,3.57,3.75,19.34,4.19,14.69.41,16.3.7,18.12,3.3,2.6,3.72,2.53,7.57-.22,11.5l-2.22,3.17-28.12-1.19c-35.79-1.51-70.15-1.52-104.79-.01-23.62,1.03-27.56.92-28.99-.8h0ZM2156.05,912.75c-2.77-2.77-3.03-11.79-.39-13.98,1.24-1.03,7.35-1.47,18.11-1.3,15.96.25,16.29.2,19.79-3.3l3.56-3.56.7-92.97c.38-51.13.83-93.12,1-93.3s17.94-.33,39.49-.33c35.78,0,39.27.2,40.07,2.28.48,1.26.48,41.61,0,89.67-.97,96.35-.98,96.18,6.74,99.98,2.84,1.4,7.78,1.89,17.1,1.69,15.96-.33,18.23.63,18.23,7.73,0,4.17-.71,5.72-3.43,7.5-3.17,2.07-5.95,2.11-36.44.49-31.29-1.66-65.12-1.4-106.86.85-13.43.72-15.69.54-17.67-1.44h0ZM242.28,908.9c-3.83-4.56-4.04-8.86-.62-13.08,2.46-3.03,3.25-3.15,21.67-3.26,20.78-.12,25.01-1.12,28.71-6.77,2.24-3.41,2.45-9.76,3.07-91.06l.67-87.39,12-.86c6.6-.47,25.29-.92,41.52-1,25.78-.12,29.63.13,30.33,1.97.45,1.16.81,39.43.81,85.05v82.94l3,5.92c5.56,10.97,7.06,11.32,47.67,11.24,38.19-.08,53.59-1.67,77.53-8.02,29.71-7.87,55.14-24.86,72.72-48.58,9.48-12.79,20.92-34.99,26.93-52.27,4.44-12.76,8.67-21.73,10.89-23.11,3.46-2.14,11.17-.87,13.7,2.24,3.15,3.88,2.76,10.04-3.92,61.8-2.55,19.8-5.79,46.2-7.2,58.67-2.39,21.19-2.78,22.86-6.01,25.67-1.9,1.65-4.77,3.04-6.38,3.08-1.61.05-84.15.2-183.42.33l-180.5.25-3.17-3.77ZM1024.44,912.4c-2.57-.28-13.34-1.68-23.94-3.12-22.58-3.06-42.58-3.29-54.72-.61-4.77,1.05-12.94,1.93-18.17,1.95-12.97.06-13.58-.81-10.42-14.98,2.19-9.84,2.52-20.27,3.18-100.97l.74-90h76l.72,85.33c.53,63.72,1.14,86.61,2.41,90.37,2.51,7.47,8.87,14.01,15.32,15.75,7.02,1.89,24.22,1.81,34.01-.17,35.32-7.12,63.46-43.34,74.62-96.03,5.15-24.31,6.26-36.04,6.24-66.26l-.02-29.67h80.77l1.49,3.67c2.56,6.31,2.04,52.14-.77,67.67-14.01,77.64-67.57,128.24-144.5,136.52-13.01,1.4-32.74,1.65-42.95.54h0ZM1250.85,911.02c-.88-1.06-1.6-4.05-1.6-6.63,0-7.41,2.51-8.39,21.54-8.39,9.07,0,17.61-.59,18.96-1.32,6.42-3.43,6.47-4.53,7.17-133.21.4-74.96.16-123.57-.65-128.58-1.5-9.34-5.67-19.73-9.18-22.91-4.27-3.86-11.42-4.58-24.58-2.49-15.46,2.47-19.4,1.39-19.4-5.3,0-2.49.75-5.15,1.67-5.91,2.47-2.03,14.9-5.27,27-7.02,5.87-.85,24.16-4.78,40.64-8.74,33.33-8,42.86-8.88,48.46-4.47,5.01,3.94,5.61,6.73,11.04,51.61.5,4.17,1.28,5.66,2.94,5.65,1.24-.01,6.98-5.45,12.75-12.1,15.38-17.7,35.49-35.04,47.78-41.2,26.27-13.15,61.56-12.27,68.15,1.71,3.05,6.45,6.12,24.69,7.84,46.45,1.39,17.59,1.31,20.11-.76,25.53-2.87,7.51-7.63,10.01-14.66,7.69-5.47-1.81-6.96-3.91-12.79-18.06-9.31-22.61-14.44-30.11-23.34-34.16-10.76-4.89-22.07-2.57-35.88,7.37-19.84,14.28-33.32,34.95-43.39,66.58l-4.18,13.12.05,94.8c.06,105.41-.49,99.2,9.12,103.23,3.81,1.59,7.53,1.85,16.71,1.16,14.73-1.11,18.19.5,18.19,8.43,0,3.1-.85,5.85-2.14,6.92-3.34,2.77-165.16,2.99-167.45.23h0ZM1865.05,910.18c-2.7-3.86-2.42-8.37.73-11.51,2.37-2.37,4.44-2.67,18.6-2.67,8.84,0,17.38-.66,19.19-1.48,6.87-3.13,6.69-.25,7.81-125.85.57-64.53.68-121.83.24-127.33-1-12.51-4.85-25.21-9-29.69-5.09-5.49-11.09-6.45-25.78-4.1-15.73,2.51-19.06,1.55-19.06-5.49s4.81-9.25,28.67-12.75c5.87-.86,22.67-4.54,37.33-8.18s31.49-6.96,37.39-7.38c9.95-.7,10.99-.53,14.36,2.41,4.19,3.65,6.38,12.62,8.92,36.5,2.1,19.74,2.33,20.67,5.03,20.67,1.28,0,4.94-3.28,8.15-7.3,6.89-8.63,28.58-29.86,38.47-37.66,8.22-6.48,18.74-11.85,27.99-14.29,5.12-1.35,11.15-1.47,26.49-.53,23.21,1.43,25.3,2.36,28.85,12.86,3.05,9.04,6.37,35.05,6.73,52.65.25,12.38-.04,14.49-2.46,17.74-3.86,5.18-8.55,6.46-14.51,3.97-5.12-2.14-6-3.63-15.32-26.12-8.74-21.09-18.36-29.01-33.56-27.63-9.91.9-18.9,5.81-30.79,16.81-15.06,13.94-25.51,31.61-33.95,57.37l-4.62,14.1.12,95.15c.1,80.47.42,95.73,2.06,98.9,2.81,5.43,9.34,7.16,23.2,6.15,14.2-1.03,17.94.42,18.51,7.18.22,2.55-.47,5.81-1.52,7.25-1.86,2.55-4.1,2.62-84.12,2.81-81.83.19-82.21.18-84.14-2.58h0ZM2696.11,911.06c-2.67-2.98-3.11-11.08-.73-13.46,1.08-1.08,7.18-1.6,18.73-1.6,16.41,0,17.26-.14,20.4-3.27l3.27-3.27.02-91.06c.01-50.08.5-91.82,1.09-92.75.83-1.31,9.54-1.61,38.98-1.33l37.91.35.67,91.33c.7,95.88.67,95.46,6.61,98.64,1.4.75,8.59,1.36,15.97,1.36,11.83,0,13.75.33,16.2,2.78,3.37,3.37,2.59,8.63-1.84,12.38-2.74,2.33-4.4,2.42-24.28,1.33-27.34-1.49-77.46-1.49-107.33,0-22.25,1.11-23.44,1.04-25.67-1.44h0ZM2898.29,910.04c-2.46-3.51-2.33-9.35.25-11.94,1.67-1.67,5.31-2.1,17.85-2.1,13.53,0,16.2-.36,18.9-2.55l3.15-2.55.67-93.12.67-93.12,28-.31c27.19-.3,33.85.97,15.22,2.9-4.83.5-10.58,2-12.77,3.34-10.97,6.67-11.16,27.14-.32,35.08,2.16,1.58,8.15,3.2,16,4.33,7.47,1.07,16.72,3.52,22.88,6.06l10.33,4.26v127.88l3.9,3.9c4.15,4.15,5.11,4.33,21.57,3.93,7.88-.19,10.62.24,12.33,1.96,2.68,2.68,2.86,8.6.37,12.01-1.75,2.4-5.12,2.51-79.49,2.59-75.84.08-77.7.02-79.5-2.54h0Z"/>
    <path id="path7" class="st4" d="M2610.23,914.58c-25.35-2.53-41.44-13.91-52.63-37.22-2.47-5.15-5.3-9.36-6.28-9.36-.98,0-6.38,4.12-12,9.16-24.84,22.29-44.96,31.94-72.5,34.8-33.93,3.52-67.73-8.45-89.11-31.55-8.62-9.32-15.03-20.89-17.31-31.29-2.29-10.44-1-31.62,2.54-41.55,6.44-18.1,24.27-38.04,47.77-53.44,26.13-17.12,48.46-25.46,100.4-37.5,24.73-5.73,33.11-8.19,34.5-10.1,1.72-2.38,4.03-2.53,38.86-2.53,32.53,0,37.13.26,37.84,2.11.45,1.16.82,31.91.83,68.33.02,70.93.93,86.73,5.64,98.64,2.55,6.45,3.9,8.05,9,10.68,7.39,3.81,14.58,3.33,26.7-1.77,7.6-3.2,8.53-3.32,10.45-1.4,1.92,1.92,1.89,2.52-.41,6.79-1.39,2.58-5.28,7.26-8.65,10.42-14.8,13.84-32.29,19.12-55.64,16.79ZM2490.43,884.62c13.41-3.49,35.36-17.14,52.08-32.38l6.33-5.77-.86-14.23c-.47-7.83-1.26-35.11-1.74-60.62-.49-25.51-1.37-46.69-1.97-47.06-1.93-1.19-23.64,4.63-37.6,10.09-45.31,17.72-70.1,48.47-70.19,87.1-.08,33.43,12.17,57.79,31.74,63.06,8.43,2.27,12.92,2.23,22.22-.19ZM676.44,913.75c-5.37-1.95-7.16-10.4-3.07-14.49,1.96-1.96,4.19-2.15,17-1.41,10.89.63,15.61.4,18.07-.87,7.43-3.85,7.28-1.97,8-100.98l.67-91.33h77.33l.67,92c.53,73.16,1.03,92.64,2.44,95.11,2.93,5.14,9.67,7.06,23.6,6.72,14.64-.35,16.97.79,16.36,8.02-.57,6.75-4.31,8.33-17.73,7.47-58.58-3.73-71.04-3.73-132-.07-5.13.31-10.23.23-11.33-.17h0ZM1779.78,913.2c-21.78-3.11-36.43-14.18-47.25-35.71-3.41-6.79-6.24-10.82-7.58-10.82-1.18,0-5.65,3.25-9.94,7.22-17.63,16.32-37.77,28.9-53.23,33.24-36.2,10.16-74.38,2.76-101.6-19.7-18.49-15.25-26.35-31.38-26.38-54.14-.04-30.76,15.87-55.22,50.9-78.22,25.98-17.06,47.77-25.22,99.2-37.15,18.27-4.24,34.16-8.5,35.32-9.47,1.64-1.37,10.33-1.77,39-1.77h36.9l.03,59c.04,78.67,1.4,97.61,8.06,112.03,4.42,9.58,19.26,12.08,34.27,5.77,10.14-4.27,10.98-4.29,10.98-.21,0,4.79-12.94,18.12-22.58,23.26-13.46,7.17-27.94,9.27-46.08,6.68h0ZM1671.46,883.32c10.45-4.11,27.47-15.03,40.33-25.84l10.65-8.96-.08-11.92c-.04-6.56-.59-34.65-1.22-62.42l-1.14-50.5-7.49.68c-9.32.85-32.64,8.56-45.62,15.09-30.31,15.25-49.36,36.43-55.23,61.38-4.15,17.63-1.96,46.46,4.64,61.04,10.36,22.89,31.08,30.95,55.16,21.47h0ZM1252.54,910.77c-3.03-3.03-3.52-6.86-1.39-10.85,1.25-2.34,2.93-2.58,17.94-2.58,18.47,0,22.41-1.11,25.78-7.26,2.01-3.66,2.3-13.24,2.9-94.74l.67-90.67h76l.67,91.78.67,91.78,4.35,3.89c4.89,4.37,5.19,4.43,23.57,4.5,13.05.05,13.29.11,15.33,3.72,1.87,3.3,1.87,4.03.02,7.33l-2.05,3.67-67.28.12c-37,.07-73.39.56-80.85,1.1-12.66.91-13.75.8-16.33-1.79h0ZM1867.44,911.34c-3.34-2.4-4.16-9.65-1.4-12.41,1.07-1.07,7.01-1.6,17.94-1.6,9.38,0,17.76-.65,19.67-1.52,7.55-3.44,7.46-2.27,7.48-99.35.01-49.02.5-89.89,1.09-90.82.83-1.31,9.54-1.61,38.98-1.33l37.91.35.67,91.33c.37,50.23,1.19,92.41,1.83,93.72,2.58,5.3,8.65,6.97,24.04,6.62,9.26-.21,15.18.21,16.33,1.16,2.71,2.25,2.32,11.47-.55,13-1.4.75-30.59,1.24-71.67,1.21-38.12-.03-73.81.36-79.31.87-8.14.75-10.56.52-13-1.23ZM2156.71,911.73c-2.26-2.26-1.99-9.75.43-11.76,1.48-1.23,5.77-1.5,15.77-.99,15.21.78,20.75-.6,23.76-5.88,1.41-2.47,1.91-21.9,2.44-94.44l.67-91.33h77.33l-.51,88.67c-.55,97.33-.68,95.65,7.34,100.9,3.01,1.97,6.41,2.44,17.78,2.44,7.73,0,14.81.49,15.72,1.08.92.59,1.67,3.16,1.67,5.7,0,7.54-2.35,7.94-34.71,6.02-32.56-1.94-68.04-2-92.62-.16-23.45,1.75-33.15,1.69-35.07-.23h0ZM243.71,907.93c-3.93-4.1-4.09-6.61-.71-10.78,2.47-3.04,3.19-3.15,21.67-3.15,15.34,0,19.92-.45,23.19-2.23,8.14-4.45,7.89-1.61,8.3-95.95l.37-86.19,30.96-.92c17.03-.51,35.46-.72,40.96-.48l10,.44.67,85.33c.64,82.34.76,85.49,3.33,89.76,1.47,2.43,4.77,5.73,7.33,7.33,4.32,2.69,6.67,2.94,31.65,3.36,49.36.83,88.98-5.47,114.35-18.16,19.3-9.66,40.07-28.35,51.99-46.79,7.67-11.87,17.42-32.4,23.38-49.27,5.49-15.53,8-18.9,14.03-18.9,3.35,0,5.1.86,6.68,3.27q2.58,3.94-5.44,68.06c-3.21,25.67-6.22,51.17-6.68,56.67-1.08,12.72-2.8,18.31-6.21,20.14-1.9,1.02-56.63,1.51-184.63,1.66l-181.92.21-3.26-3.41ZM1025.78,911.16c-3.3-.31-14.3-1.75-24.44-3.2-22-3.14-42.15-3.37-56.44-.63-13.96,2.67-26.94,2.67-27.97,0-.42-1.1.32-6.35,1.66-11.67,2.21-8.77,2.47-17.92,2.88-99.33l.45-89.67h74.42l.39,85,.39,85,4,7.99c4.65,9.28,8.84,12.2,20.18,14.04,9.72,1.58,26.38-.19,37.95-4.03,16.43-5.46,31.88-18.43,43.92-36.87,19.32-29.6,30.54-80.11,29.01-130.59l-.62-20.53h79.52l.93,3.67c.51,2.02.93,14.17.93,27,0,35.94-5.21,60.58-18.49,87.33-22.72,45.8-62.38,74.86-114.65,84.01-12.07,2.11-42.83,3.53-54,2.48ZM2696.78,910.54c-2.12-2.21-2.16-9.51-.07-11.6,1.08-1.08,7.14-1.6,18.52-1.6,14.67,0,17.34-.34,20.07-2.55l3.15-2.55.67-92.45.67-92.45,37.67-.35,37.67-.35v87.43c0,60.43.46,89.27,1.5,93.4,2.21,8.78,4.6,9.88,21.39,9.88,12.83,0,14.49.28,16.18,2.69,2.57,3.67,1.26,9.21-2.59,10.97-2.29,1.05-11.19.96-32.25-.31-27.64-1.67-63.39-1.4-105.57.79-11.7.61-15.73.39-17-.94h0ZM2900.06,910.09c-2.64-2.64-3.01-8.82-.68-11.16,1.05-1.05,6.67-1.61,16.33-1.62,8.1-.01,16.11-.39,17.79-.84,7-1.87,6.95-1.13,6.95-99.08v-90.73l16.33.04c15.75.03,16.21.11,12.78,2.24-12.31,7.63-12.01,30.95.49,38.34,2.21,1.31,9.2,3.15,15.54,4.1,6.34.95,16.02,3.51,21.52,5.69l10,3.97.67,64.78c.65,63.58.72,64.83,3.47,67.58,3.83,3.83,10.96,5.19,22.63,4.31,6.93-.52,10.44-.25,11.88.94,2.72,2.26,2.58,8.62-.25,11.45-2.03,2.03-4.41,2.18-21.67,1.39-24.89-1.15-90.11-1.14-113.44,0-16,.79-18.31.63-20.33-1.39h0Z"/>
    <path id="path6" class="st3" d="M203.78,1173.82c-8.22-1.27-20.76-6.15-28.25-11-7.88-5.09-24.93-20.08-23.96-21.06.29-.29,5.26,1.11,11.04,3.12,9.72,3.38,12.1,3.66,31.84,3.72,24.88.07,34.35-2.12,48.41-11.21,23.08-14.92,32.57-31.53,42.29-74.06,2.01-8.8,4.63-18.07,5.81-20.6,2.06-4.4,2.66-4.7,13.88-6.9,26.56-5.21,49.24-22.25,62.34-46.82l4.18-7.83,124.88.41,124.88.41,9.59-3.02,9.59-3.02,10.41,3.61c10,3.47,11.44,3.61,37.07,3.54,42.16-.11,103-.1,131.33.03,29.2.14,35.18-.97,50.54-9.34l8.54-4.65,7.46,3.31c19.87,8.81,39.22,10.75,64.79,6.48,17.2-2.87,24.1-2.66,54,1.66,18.21,2.63,58.82,2.66,77.07.07,36.8-5.23,69.46-16.75,97.25-34.3,4.66-2.94,8.61-5.13,8.79-4.85.18.27,1.9,2.95,3.83,5.96s6.87,9.11,10.98,13.55l7.48,8.08-7.7,4.64c-27.54,16.58-58.67,27.44-92.52,32.25-18.74,2.66-59.79,2.63-77.52-.06-27.65-4.2-37.71-4.51-53.66-1.66-25.61,4.57-47.43,2.09-67.7-7.69l-5.03-2.43-8.97,4.77c-17.02,9.06-20.59,9.74-50.3,9.59-35.25-.18-97.49-.17-130.67.02-26.16.15-26.87.08-37.49-3.69l-10.82-3.84-9.18,3.17-9.18,3.17-125.58-.41-125.58-.41-1.86,3.08c-1.03,1.69-3.91,6.6-6.42,10.9-12.4,21.31-36.05,37.49-60.15,41.13-5.1.77-9.77,2.29-10.9,3.53-1.97,2.19-3.67,7.87-11.61,38.85-2.35,9.17-5.9,20.27-7.89,24.67-8.89,19.66-25.45,34.79-46.1,42.12-6.27,2.23-11.77,2.9-26.58,3.23-10.27.23-20.47.15-22.67-.19ZM93.11,1054.85c-9.11-4.34-21.53-13.43-29.27-21.41-5.96-6.15-5.17-6.67,3.96-2.63,3.5,1.55,11.52,3.81,17.84,5.03l11.48,2.22,2.89,5.97c3.91,8.07,5.2,14.64,2.88,14.64-.97,0-5.37-1.72-9.77-3.81h0ZM1792.89,1008.77c-13.66-2.6-26.08-6.91-39.18-13.61-6.27-3.21-12.44-5.83-13.71-5.83s-5.14,1.43-8.59,3.17c-9.53,4.81-30.81,11.24-44.62,13.48-15.72,2.55-44.85,2.57-60.34.04-24.43-3.99-56.59-17.25-74.78-30.82-10.27-7.67-23.53-19.34-22.8-20.07.31-.31,6.8,2.7,14.41,6.69,42,22.05,92.43,26.93,139.21,13.49,6.58-1.89,15.78-5.21,20.44-7.38,4.67-2.17,9.06-3.94,9.77-3.94s7.39,3.01,14.85,6.7c7.46,3.68,19.56,8.29,26.89,10.24,12.05,3.2,15.71,3.55,38,3.64,21.88.08,26.02-.26,36.62-3.06,11.26-2.97,12.5-3.05,21.33-1.33,7.39,1.44,28.55,1.81,100.04,1.76,83.2-.06,91.32-.26,98.61-2.45,15.91-4.78,30.34-14.59,39.37-26.74l4.65-6.26,3.92,5.09c2.16,2.8,7.81,8.8,12.55,13.35l8.63,8.26-2.44,3.73c-3.82,5.83-14.84,16.04-21.55,19.97-3.35,1.96-10.07,5.07-14.92,6.9l-8.83,3.32-89.33.36c-61.3.25-91.84-.1-97.33-1.12-11.61-2.15-20.26-1.9-29.33.84-10.73,3.24-47.8,4.2-61.55,1.58h0ZM2619.55,1008.69c-13.65-2.48-30.24-8.16-41.38-14.17-5.28-2.85-10.45-5.19-11.48-5.19s-5.71,1.74-10.4,3.86c-22.12,10.02-46,14.8-74.01,14.8-27.9.01-50.2-4.67-73.7-15.47-5.42-2.49-10.76-4.53-11.88-4.53s-5.08,2.33-8.81,5.18c-7.82,5.97-14.43,9.42-24.79,12.95-6.28,2.14-11.18,2.48-34,2.37-34.24-.17-96.55-.17-130.67,0-24.47.12-27.39-.11-35.48-2.9-4.85-1.67-11.48-4.73-14.75-6.8-6.19-3.93-23.77-19.75-23.77-21.39,0-.52,4.35.57,9.67,2.41,9.12,3.17,11.18,3.35,36.33,3.29,42.27-.11,103.05-.1,131.33.04,33.03.15,42.38-2.27,59.66-15.46,7.82-5.97,6.95-6,22.67.96,6.05,2.68,18.05,6.69,26.67,8.93,13.27,3.44,18.96,4.16,37.22,4.75,31.2.99,54.9-3.13,80.34-13.97l11.22-4.78,10.11,5.42c31.24,16.75,76.57,21.21,111.11,10.95,8.73-2.6,9.23-2.61,16.67-.33,6.28,1.92,12.49,2.32,34.34,2.24,47.84-.18,100.83-.18,126-.01,16.59.11,26.91-.41,31.51-1.59,5.63-1.45,7.87-1.45,12.67-.03,4.52,1.35,25.8,1.74,95.16,1.76,82.98.03,89.9-.15,97.33-2.42,12.49-3.83,23.09-10.12,31.93-18.96,10.11-10.11,15.97-20.95,20.08-37.15,2.86-11.29,3.81-13.18,9.28-18.65,13.59-13.59,20.23-28.44,28.08-62.79,2.01-8.8,4.63-18.07,5.81-20.6,2.06-4.4,2.66-4.7,13.88-6.9,24.95-4.89,45.07-19.04,59.48-41.83,12.03-19.02,14.32-56.25,4.89-79.59-1.72-4.26-2.66-7.74-2.09-7.74,1.85,0,16.34,16.47,21.48,24.41,9.03,13.97,11.17,22.69,11.17,45.59,0,17.43-.4,21.15-3.08,28.92-9.93,28.75-37.2,51.5-67.18,56.03-5.1.77-9.77,2.29-10.9,3.53-1.97,2.18-3.6,7.64-11.62,38.85-6.54,25.45-11.94,35.98-25.39,49.5-4.13,4.15-6.5,7.69-6.5,9.71,0,1.75-1.26,7.29-2.8,12.32-7.66,25.04-21.9,40.28-46.38,49.64l-8.83,3.37-86.67.31c-72.97.26-88.23-.01-96.58-1.71-8.42-1.71-10.83-1.75-16-.24-4.22,1.23-13.86,1.72-31.42,1.61-26.6-.17-79.87-.16-126,.03-23.23.09-28.39-.25-34.37-2.33-6.9-2.39-7.21-2.39-16,.27-4.93,1.49-12.86,3.34-17.63,4.11-11.68,1.88-39.79,1.58-51.56-.56h0ZM1268.44,1006.58c-9.21-1.51-20.76-6.31-27.71-11.52-6.8-5.1-20.29-17.8-20.29-19.12,0-.45,4.35.72,9.67,2.59l9.67,3.4,93.33-.02c86.04-.02,93.96-.21,101.33-2.42,12.21-3.67,22.77-9.87,31.97-18.76,10.5-10.15,16.04-18.84,19.6-30.74,1.54-5.13,3.06-9.81,3.39-10.39s6.29,4.75,13.25,11.84l12.65,12.9-3.38,10.82c-4.07,13.03-9.29,21.58-18.94,31-8.41,8.21-16.1,12.98-28.39,17.6l-8.83,3.32-90.67.23c-49.87.13-93.37-.21-96.67-.75h0ZM2075.89,842.58c-4.34-3.54-9.59-7.14-11.67-8l-3.78-1.57v-59.25c0-32.59.51-58.94,1.12-58.56s4.26,2.8,8.09,5.38c11.16,7.51,26.11,11.68,43.45,12.1l14.67.36.38,12.14c.23,7.35-.14,12.14-.93,12.14-4.62,0-23.84-7.57-30.5-12.02-4.38-2.92-8.63-5.31-9.46-5.31-1.08,0-1.5,14.9-1.5,53.92,0,29.66-.45,54.19-1,54.51s-4.55-2.31-8.89-5.85h0ZM1452.82,836.86l-6.96-4.19-.04-59c-.02-32.45.3-59,.71-59s2.67,1.43,5,3.18c10.04,7.53,25.18,13.18,39.91,14.9,4.22.49,7.67,1.14,7.67,1.44,0,1.57-10.12,13.81-11.42,13.81-.83,0-4-1.8-7.04-4-9.43-6.83-9.55-6.64-9.55,15.58,0,15.39-.56,21.6-2.62,29-3.93,14.13-6.71,31.9-6.71,42.93,0,5.4-.45,9.76-1,9.68-.55-.08-4.13-2.03-7.96-4.33h0ZM449.8,679.14l.03-143.81,9.38-4.41c11.69-5.49,27.88-21.13,34.11-32.94,11.18-21.22,12.73-49.7,3.9-71.58-1.72-4.26-2.67-7.74-2.11-7.74,2.08,0,18.75,18.9,22.63,25.66,7.81,13.62,10,22.58,10,41.01,0,18.3-1.5,24.75-9.11,39.3-6.2,11.84-21.08,26.1-33.45,32.05l-10.06,4.84v128.41c0,101.12-.35,128.7-1.67,129.76-.92.74-6.62,1.78-12.67,2.3l-11,.95.03-143.81ZM636.73,676.96c-3.82-3.87-6.95-7.41-6.95-7.85s3.45.59,7.67,2.3c7.13,2.89,7.7,3.44,8.08,7.85.23,2.61-.09,4.74-.71,4.74s-4.26-3.17-8.08-7.04ZM3177.12,641.48c-6.85-1.04-7.38-2.19-14.7-31.96-3.21-13.05-7.13-27.17-8.7-31.38-1.58-4.21-2.59-7.93-2.25-8.27,1.04-1.04,15.83,15.67,21.14,23.88,2.76,4.26,6.24,11.46,7.75,16,3.6,10.85,8.02,27.65,8.06,30.59.03,2.48-1.5,2.64-11.29,1.14h0ZM2214.02,541.3c-5.37-1.41-15.57-5.1-22.67-8.2-11.87-5.19-13.97-6.72-26.04-18.85l-13.12-13.2-9.54-1.16c-18.61-2.26-66.14-5.15-110.21-6.71-58.48-2.07-122.95-.24-221.8,6.3l-31.8,2.1-4.86-3.92c-7.34-5.92-7.01-9.19,2.58-25.42,8.11-13.72,10.78-16.38,8.04-7.99-.8,2.43-1.61,8.92-1.8,14.42l-.35,10,10-.05c5.5-.03,20.2-1.04,32.67-2.25,31.56-3.07,122.17-4.16,203.33-2.44,80.54,1.7,108.75,3.18,184.67,9.67,21.7,1.86,29.3,1.86,49.33.04,66.48-6.05,105.65-8.05,189.33-9.69,84.51-1.65,188.1-.02,212.67,3.34,19.48,2.67,27.86,2.63,28.93-.15.9-2.33-1.39-22.07-3.06-26.36-.68-1.75-.51-2.26.52-1.62,2.78,1.72,16.27,26.96,16.27,30.45,0,3.86-7.88,11.73-11.71,11.7-1.26-.01-10.79-.6-21.18-1.31-97.16-6.63-173.19-8.88-231.11-6.83-43.42,1.54-88.33,4.29-109.97,6.73-9.32,1.05-11.02,1.67-13.76,4.98-12.65,15.32-23.02,23.35-38.48,29.78-23.15,9.64-46.55,11.96-66.88,6.63h0ZM217.13,536.02c-2.85-2.92-4.92-5.53-4.6-5.8.32-.27,3.13.64,6.25,2.03,4.45,1.98,5.67,3.23,5.67,5.8,0,4.5-1.28,4.15-7.31-2.03ZM1067.1,469.05c-.01-41.46-.96-51.79-5.92-64.05-1.7-4.22-2.64-7.67-2.08-7.67,2.08,0,18.75,18.9,22.63,25.66,8.99,15.67,10.01,21.21,10.03,54.34l.02,30-12.33.38-12.33.38v-39.05ZM2794.31,501.68l-9.47-.46-.78-14.95c-.82-15.57-3.11-25.4-8.31-35.68-1.69-3.34-13.39-23.44-26-44.67l-22.93-38.6,2.49-9.33c5.04-18.92,2.76-43-5.63-59.57-1.77-3.49-3.22-6.78-3.22-7.31,0-1.69,8.01,6.57,16.18,16.69,8.89,11,14.44,21.17,17.97,32.92,3.2,10.62,3.25,33.05.11,43.47-1.25,4.15-2.27,8.44-2.27,9.55s10.25,19.28,22.78,40.39c26.1,43.97,28.18,47.86,31.2,58.23,2.21,7.62,1.91,10.52-1.05,10.03-.87-.15-5.85-.47-11.06-.72ZM1819.11,401.6c0-1.14,31.16-54.17,33.65-57.27,1.54-1.92,4.87-2.14,7.47-.49,1.4.89.79,2.55-2.83,7.65-2.54,3.58-8.37,12.76-12.95,20.39-11.46,19.1-17,26.54-21.51,28.87-2.11,1.09-3.84,1.48-3.84.85ZM2652.41,400.73c-3.6-1.96-9.19-9.82-26.53-37.28-5.98-9.47-10.57-18.02-10.19-19,.97-2.52,5.32-2.2,7.67.56,1.09,1.28,8.16,12.83,15.71,25.67,7.55,12.83,14.9,25.28,16.33,27.67,2.83,4.71,2.2,5.21-2.98,2.39h0ZM847.83,373c-1-2.38-4.21-14.23-7.15-26.33-2.94-12.1-6.65-25.49-8.25-29.76s-2.63-8.04-2.29-8.37c1.04-1.04,15.83,15.67,21.14,23.88,4.96,7.67,8.61,17.01,12.5,31.99,2.66,10.24,2.74,9.94-2.99,11.53-8.59,2.39-10.95,1.85-12.95-2.93h0ZM2688.35,254.41l-11.24-12.26-.11-14.74c-.11-14.42-1.26-19.68-7.85-36.07-1.78-4.42,15.08,12.76,20.63,21.02,6.3,9.38,10.15,19.35,12.04,31.2,1.39,8.72.6,23.12-1.28,23.12-.52,0-6-5.52-12.18-12.26Z"/>
  </g>
</svg>