<?xml version="1.0" encoding="UTF-8"?>
<svg id="Layer_1" xmlns="http://www.w3.org/2000/svg" version="1.1" viewBox="0 0 1024 1024">
  <!-- Generator: Adobe Illustrator 30.3.0, SVG Export Plug-In . SVG Version: 2.1.3 Build 182)  -->
  <defs>
    <style>
      .st0 {
        fill: #98a3a7;
      }

      .st1 {
        fill: #f3f2ef;
      }

      .st2 {
        fill: #d9a18e;
      }

      .st3 {
        fill: #7a5963;
      }

      .st4 {
        fill: #efb782;
      }

      .st5 {
        fill: #5a6381;
      }

      .st6 {
        fill: #7f4a3a;
      }

      .st7 {
        fill: #af7162;
      }

      .st8 {
        fill: #9597af;
      }

      .st9 {
        fill: #d0836e;
      }

      .st10 {
        fill: #d2a291;
      }

      .st11 {
        fill: #9d4b3b;
      }

      .st12 {
        fill: #904b3d;
      }

      .st13 {
        fill: #576386;
      }

      .st14 {
        fill: #361e12;
      }

      .st15 {
        fill: #6d6774;
      }

      .st16 {
        fill: #3b2a1a;
      }

      .st17 {
        fill: #725344;
      }

      .st18 {
        fill: #b5a7af;
      }

      .st19 {
        fill: #3e3651;
      }

      .st20 {
        fill: #495f7b;
      }

      .st21 {
        fill: #2a2018;
      }

      .st22 {
        fill: #dca893;
      }

      .st23 {
        fill: #96767e;
      }

      .st24 {
        fill: #f0eeed;
      }

      .st25 {
        fill: #4a1515;
      }

      .st26 {
        fill: #89564c;
      }

      .st27 {
        fill: #e6a48b;
      }

      .st28 {
        fill: #f8e1c6;
      }

      .st29 {
        fill: #c67858;
      }

      .st30 {
        fill: #f4dfc4;
      }

      .st31 {
        fill: #d9a594;
      }

      .st32 {
        fill: #683139;
      }

      .st33 {
        fill: #f2ebe7;
      }

      .st34 {
        fill: #ce968c;
      }

      .st35 {
        fill: #d7ac9b;
      }

      .st36 {
        fill: #524039;
      }

      .st37 {
        fill: #1d261d;
      }

      .st38 {
        fill: #7d4443;
      }

      .st39 {
        fill: #541b1a;
      }

      .st40 {
        fill: #794642;
      }

      .st41 {
        fill: #854b3e;
      }

      .st42 {
        fill: #fae2c8;
      }

      .st43 {
        fill: #6c5039;
      }

      .st44 {
        fill: #272037;
      }

      .st45 {
        fill: #764040;
      }

      .st46 {
        fill: #743731;
      }

      .st47 {
        fill: #f7e0c5;
      }

      .st48 {
        fill: #4e566f;
      }

      .st49 {
        fill: #3f0718;
      }

      .st50 {
        fill: #cdb9bc;
      }

      .st51 {
        fill: #7b403b;
      }

      .st52 {
        fill: #dea38f;
      }

      .st53 {
        fill: #f4dac6;
      }

      .st54 {
        fill: #5f2e33;
      }

      .st55 {
        fill: #f5dfc5;
      }

      .st56 {
        fill: #926b70;
      }

      .st57 {
        fill: #965c58;
      }

      .st58 {
        fill: #32111e;
      }

      .st59 {
        fill: #4f5066;
      }

      .st60 {
        fill: #edb19f;
      }

      .st61 {
        fill: #252236;
      }

      .st62 {
        fill: #4d332e;
      }

      .st63 {
        fill: #381b13;
      }

      .st64 {
        fill: #5b6686;
      }

      .st65 {
        fill: #30200d;
      }

      .st66 {
        fill: #621621;
      }

      .st67 {
        fill: #625461;
      }

      .st68 {
        fill: #511b17;
      }

      .st69 {
        fill: #eeb4a1;
      }

      .st70 {
        fill: #222525;
      }

      .st71 {
        fill: #9e7c82;
      }

      .st72 {
        fill: #485e79;
      }

      .st73 {
        fill: #d7c6c1;
      }

      .st74 {
        fill: #3f2534;
      }

      .st75 {
        fill: #555b72;
      }

      .st76 {
        fill: #81483e;
      }

      .st77 {
        fill: #f1bd89;
      }

      .st78 {
        fill: #b37565;
      }

      .st79 {
        fill: #95574c;
      }

      .st80 {
        fill: #3b3c52;
      }

      .st81 {
        fill: #6a4e40;
      }

      .st82 {
        fill: #7a4343;
      }

      .st83 {
        fill: #c7a693;
      }

      .st84 {
        fill: #e1ab97;
      }

      .st85 {
        fill: #aa9281;
      }

      .st86 {
        fill: #3c3750;
      }

      .st87 {
        fill: #f2b196;
      }

      .st88 {
        fill: #3d334d;
      }

      .st89 {
        fill: #544c5b;
      }

      .st90 {
        fill: #ecb2a0;
      }

      .st91 {
        fill: #6c3228;
      }

      .st92 {
        fill: #f2f2ed;
      }

      .st93 {
        fill: #4b1513;
      }

      .st94 {
        fill: #ecb4a4;
      }

      .st95 {
        fill: #c1a2a2;
      }

      .st96 {
        fill: #753a32;
      }

      .st97 {
        fill: #362f48;
      }

      .st98 {
        fill: #dfd0d5;
      }

      .st99 {
        fill: #9194af;
      }

      .st100 {
        fill: #26261f;
      }

      .st101 {
        fill: #9693a7;
      }

      .st102 {
        fill: #673038;
      }

      .st103 {
        fill: #f5dbc0;
      }

      .st104 {
        fill: #481212;
      }

      .st105 {
        fill: #4a5670;
      }

      .st106 {
        fill: #391522;
      }

      .st107 {
        fill: #96899b;
      }

      .st108 {
        fill: #262b44;
      }

      .st109 {
        fill: #d9a596;
      }

      .st110 {
        fill: #4d5062;
      }

      .st111 {
        fill: #e3a188;
      }

      .st112 {
        fill: #f4eee8;
      }

      .st113 {
        fill: #a38b75;
      }

      .st114 {
        fill: #978164;
      }

      .st115 {
        fill: #ecdbdd;
      }

      .st116 {
        fill: #411013;
      }

      .st117 {
        fill: #9d5b4c;
      }

      .st118 {
        fill: #65251a;
      }

      .st119 {
        fill: #9e99b1;
      }

      .st120 {
        fill: #814643;
      }

      .st121 {
        fill: #e4ab9b;
      }

      .st122 {
        fill: #784041;
      }

      .st123 {
        fill: #400718;
      }

      .st124 {
        fill: #f6c5aa;
      }

      .st125 {
        fill: #766568;
      }

      .st126 {
        fill: #cbb19c;
      }

      .st127 {
        fill: #f0d2bf;
      }

      .st128 {
        fill: #dc7c77;
      }

      .st129 {
        fill: #dda293;
      }

      .st130 {
        fill: #636686;
      }

      .st131 {
        fill: #e3dede;
      }

      .st132 {
        fill: #7d6665;
      }

      .st133 {
        fill: #e5a089;
      }

      .st134 {
        fill: #292940;
      }

      .st135 {
        fill: #935a58;
      }

      .st136 {
        fill: #f2efeb;
      }

      .st137 {
        fill: #766c67;
      }

      .st138 {
        fill: #c7a699;
      }

      .st139 {
        fill: #99404d;
      }

      .st140 {
        fill: #534338;
      }

      .st141 {
        fill: #fbf8f3;
      }

      .st142 {
        fill: #bea4ab;
      }

      .st143 {
        fill: #40506f;
      }

      .st144 {
        fill: #734935;
      }

      .st145 {
        fill: #f6c3a9;
      }

      .st146 {
        fill: #585f80;
      }

      .st147 {
        fill: #6c3733;
      }

      .st148 {
        fill: #f0b398;
      }

      .st149 {
        fill: #7c5e51;
      }

      .st150 {
        fill: #a67670;
      }

      .st151 {
        fill: #7d4440;
      }

      .st152 {
        fill: #d48d79;
      }

      .st153 {
        fill: #75403e;
      }

      .st154 {
        fill: #c59483;
      }

      .st155 {
        fill: #b57d71;
      }

      .st156 {
        fill: #e1a394;
      }

      .st157 {
        fill: #ecccba;
      }

      .st158 {
        fill: #b5aab1;
      }

      .st159 {
        fill: #eaae9b;
      }

      .st160 {
        fill: #dbc9ca;
      }

      .st161 {
        fill: #e9ad9c;
      }

      .st162 {
        fill: #282e44;
      }

      .st163 {
        fill: #f0eae4;
      }

      .st164 {
        fill: #5b2a30;
      }

      .st165 {
        fill: #556284;
      }

      .st166 {
        fill: #7d4035;
      }

      .st167 {
        fill: #862231;
      }

      .st168 {
        fill: #e3c4b0;
      }

      .st169 {
        fill: #683324;
      }

      .st170 {
        fill: #3c3652;
      }

      .st171 {
        fill: #c9d6d3;
      }

      .st172 {
        fill: #f6dcc3;
      }

      .st173 {
        fill: #3d3851;
      }

      .st174 {
        fill: #e0a593;
      }

      .st175 {
        fill: #2d2d45;
      }

      .st176 {
        fill: #e8a28b;
      }

      .st177 {
        fill: #723a3a;
      }

      .st178 {
        fill: #eae4e4;
      }

      .st179 {
        fill: #aa593f;
      }

      .st180 {
        fill: #432835;
      }
    </style>
  </defs>
  <g>
    <path class="st63" d="M649.61,405.12c-.03,38.92,3.47,90.35-19.56,124.23-2.45-1.25-1.95-3.7-2.26-6.65-6.34,7.22-12.04,13.77-19.51,20.06-.58-4.27.03-7.36-2.29-10.4-6.3,6.88-11.05,13.41-19.59,18.1l-2.83-20.97-21.78,12.33c-5.7,11.32-19.06,35.5-25.34,16.85l-5.76,4.27c3.01,4.25,7.13,6.46,11.6,7.76-.16.51-.36.98-.7,1.31-1.34.96,1.26-2.17.77,1.82l-6.12.6-2.47-1.44c-1.46.55-2.47-.17-3.01-2.18l-10.21-8.29c.12-2.19.34-6.48,3.27-3.43.45-1.31,1.62-1.56,3.5-.76,7.09-7.31,12.37-7.43,15.81-.37,4.19-1.15,7.18-4.73,8.96-10.74-2.11-2.81-6.13-1.95-3.08-7.03,25.02-8.44,44.78-24.65,62.27-41.86.87-1.29,2.53-11.53,3.69-9.29,1.11-7.58,2.99-9.45,5.62-5.61l-1.65,1.81,1.8,2.17c-2.73,17.14-15.57,29.97-29.66,38.8-3.86.32-.39,12.89.3,13.08.97.27,12.31-12.72,12.75-15.48,5.33-4.82,9.21.18,8.96,6.14,13.13-12.75,11.97-12.52,14.6-30.11,3.46-.97,5.54,1.73,6.26,8.09,5.61-6.83,8.23-32.17,8.99-41.02l-6.15,8.45-2.61-.18c-1.58,1.24-2.51,1.37-2.83-.52l4.31-5.73-.66-2.6c4.61-7.12,7.19-15.8,3.88-23.96l1.09-2.43c-1.42-4.83,1.92-2.23,4.69-2.07l.7-40.68,1.81-1.16c-1.13-5.53-.34-7.59,2.35-6.18l.09,15.27Z"/>
    <path class="st25" d="M611.11,380.9c2.12,15.53,4.2,33.36,3.87,48.87,16.11-15.16,27.54-38.4,29.95-60.58l2.22-1.04.32-14.26c5.96-4.06,8.03,23.28,9.53,27.91,1.43,1.1,1.81,3.15,1.13,6.14-.31.6.39,2.92-.63,2.86-2.7-.36-2.9-.14-3.7,2.57-.32-1.84-.9-3.98-2.56-5.53-1.53,6.15-1.2,11.67-1.64,17.29l-.85-15.18c-.71,2.09-1.56,4.55-1.59,6.09-2.01.71-1.44-3.49-.88-3.57,2.23-.33-10.45,27.93-13.84,29.07l-.09,1.4c4.12,2.64,13.35,9.62,10.39,14.7-1.09.49-1.99,1.34-2.77,2.31-2.48,1.74-5.31-4.09-2.93-5.85-9.82-8.32-14.78-6.46-13.05,7.51,3.38.11,9.89,1.19,7.82,5.26,1.95,4.24-.49,4.68-7.32,1.32l-.83,12.24c9.88-8.68,8.98,1.35.2,4.67-3.65,17.2-.27,12.17,9.61,3.15l2.19.69c-.68,3.97-4.43,5.42-1.48,6.25,1.86,4.17-12,12.76-15.24,10.05.19-.92-.63-2.49-2.16-2.15.04,2.16-.19,4.56-1.81,5.95-.45-3.88-.09-7.9,1.08-12.03-.9,0-.85-.25,0-.71.56-5.32.69-10.72.38-16.21l-1.01-.76.41-20.2c-3.65,4.24-11.7,5.89-7.66-1.18-2.85-.95,2.22-18.62-1.37-10.57l-2.67.38c-2.08,2.74-3.02.87-2.83-5.63-2.85-2.99.49-3.48,2.71-3.19,2.08,3.8,1.06-1.32-.41-3.34-.59-4.42.6-8.53,3.56-12.32-.18-2.95-1.33-5.65-3.44-8.11l1.12-1.94c-2.1-5.23-1.78-8.04.95-8.44-2.78-31.68-18.06-60.42-30.72-88.98-3.63,2.88-17.33-23.87-20.05-27.31-3.69-6.42-2.95-11.31,4.59-5.06,26.14,31.68,45.33,75.89,53.16,115.84l-1.67,1.62Z"/>
    <path class="st58" d="M268.95,272c1.35-.27,4.67.47,6,.8,9.23,12.33-2.63,17.1-8.99,25.67-13.68,9.39-13.66,29.11-8.84,43.53-.02,5.17-5.31,8.11-8.85,5.09-2.36-.34-8.47.77-9.61-2.04l-1.97-.94.48-17.5c-3.85,3.64-5.35,3.31-7.11-1.61-.63,2.68-1.91,2.5-2.9-.11-.45-.09-.83-.38-.86-.69-1.06-.94-1.49-2.56-1.28-4.88,2.65-1.7,5.01-3.82,7.07-6.35l-1.03-2.56,10.64-12.59c2.43-2.89,4.46-3.56,6.07-2.01,13.25-4.8,8.16-14.98,16.85-19.56-1.05-3.93,1.39-8.66,4.31-4.26Z"/>
    <path class="st100" d="M268.95,272c-2.47-.37-3.15.72-2.35,3.15.73,3.55-3.78,4.31-5.09,6.11-4.98,6.88-6.94,16-13.73,14.56l.32-2.34c3.75-2.59,6.61-6.13,8.58-10.62-4.4-2.78-7.63-6.15-9.71-10.1l-6.78-1.78c-2.23,2.75-4.52,12.43-8.38,11.69.56,2.91-1.66,7.54-4.73,8.15.21,3.86-.31,5.95-2.24,9.58,2.28,3.65,3.17,7.01,3.24,11.34,1.99-.76,3.05-.98,4.03,1.23-2.69,9.83-7.14,4.83-5.8,11.23-.47.05-1.03.1-1.65-.14.88-4.58-6.14-8.63-4.2-11.51,5.32-7.89-5.35-7.51-.95-15.95,4.35-5.7,13.48-33.79,22.18-32.22,0,0,10.33,4.71,10.33,4.71,3.14.34,5-2.64,7.37-3.63,4.84-2.01,8.85,2.45,9.57,6.52Z"/>
    <g>
      <path class="st65" d="M653.81,393.36c-.88-3.33.57-5.13,4.33-5.42-.36-3.29.38-6.31,2.21-9.05-1.88-5.92-1.14-15.3,1.65-20.88-.84-8.47-1.87-16.9-3.09-25.29l2.87.54c2.52,4.51,7.24,6.12,14.14,4.82,3.79,1.46,7.19,1.71,10.18.74-6.34-1.98-16.53-7.15-19.62-13.19.55-1.5,0-3.02-1.66-4.56-.58.27-1.06.45-1.21.3-5.8-5.75-13.8-18.13-17.53-25.47-.36-3.5-1.8-6.83-4.31-10.01l-3.35-2.12c-12.67-20.74-27.88-40.19-45.06-56.93l-.28-2.64c-5-3.97-10-10.69-16.54-11.51-26.16-20.33-56.69-32.5-88.39-39.66-3.14-1.4-7.3-.75-10.54.86-22.23.17-48.51.19-67.49,12.81l.71,7.2c-.81,4.27-5.79,5.33-6.05,1.15-2-1.69-7.02-.92-4.91-4.12-2.14.41-4.3-.09-6.49-1.52-51.01,5.79-88.1,46.37-118.45,83.41-1.1,2.79-3.72,2.06-3.92-.85,26.2-42.97,72.9-82.45,124.28-89.08-15.43-32.02,11.2-58.89,1.54-91.77,15.58,7.65,31.71,31.31,27.64,46.5s-17.7,26.35-16.11,43.94c42.92-24.81,106.23-13.13,147.55,10.52,43.73,23.69,74.55,65.56,99.17,107.81,8.97,15.22,19.93,30.37,36.67,37.32,6.42,2.32-9.27,9.8-28.24,5.41,4.2,19.59,3.33,40.06-7.23,56.92-3.14-1.38-2.17-4.24-2.51-6.16Z"/>
      <path class="st7" d="M406.06,167.38c-3.89,8-1.72,16.2-1.07,24.95-24.97-28.49,1.17-60.94-2.75-92.68,5.95,3.28,8.28,8.11,11.46,12.67,16.28,19.86.32,36.47-7.64,55.06Z"/>
      <path class="st31" d="M488.15,173.01c38.52,4.81,77.03,24.29,104.93,51.17-5.81-3.76-9.66-7.78-14.66-10.67-.83,1.93.75,2.35,1.26,2.54.98.37.51,2.51-.97,1.88-1.12-.48-2.45-3.4-4.97-1.58,2.53,1.83,4.32,3.95,4.39,6.64-27.13-30.63-58.99-43.78-99.46-49.11,3.29-1.2,6.81-1.16,9.48-.87Z"/>
      <path class="st147" d="M686.11,338.81c.66,2.93-17.62.55-18.88,1.1-4.06-.07-4.98-2.65-7.71-6.39,1.12,7.54,2.62,16.9,2.48,24.48-2.01-1.16-.66-3.96-.88-5.98-1.33-11.99-4.44-22.72-8.24-34.19,3.49,2.07,3.49,6.52,6.3,8.92,7.75,5.58,17.43,11.38,26.92,12.06Z"/>
      <path class="st154" d="M664.83,321.06c.57.83,1.27,2.65,2,4.14-6.14-2.29-7.4-11.79-10.43-6.63-2.82-.63-1.95-3.81-1.73-5.59l-11.98-19.08c1.27.28,1.39,2.36,4.18,1.4-2.99-3.39-3.69-6.59-5.09-9.42,7.95,11.09,14.41,24.02,23.05,35.19Z"/>
    </g>
    <path class="st32" d="M432.21,568.67c-2.76-1.27-5.82-2.97-9.36-.56.6,7.51,4.81,9.22,5.27,11.48.27,1.35-.58,5.1-2.42,4.98-6.07-.51-12.47-1.67-18.18-4.34-1.48-.69-3.44-2.21-5.15-2.03-.99.1-2.79-2.61-4.35-.67l1.92,8.62c-9.49-.55-10.3-4.66-13.87-7.39l-6.13-4.67-8.63-7.63c-1.26-1.61-2.46-1.21-3.27,1.01l9.14,9.11c-3.05,1.26-5.23-1.75-7.6-2.98-6.95-3.62-17.42-10.31-18.52-17.25-4.99,2.01-1.24,5.62-.76,8.01,1.26,6.25,1.48,11.43,4.03,17.86-8.84-1.78-15.73-12.33-21.46-18.16-2.19-2.41-2.86-6.67-6.81-8.07.67,5.07,4.17,7.92,6.09,12.28-6.2-1.18-15.4-12.77-20.08-17.34-8.68-8.98-18.47-19.5-25.1-29.95-.09-.4-8.13-10.85-4.98-9.45-11.37-17.44-19.44-36.74-26.19-55.8-1.26-2.99-2.58-4.16-3.98-3.5l-4-16.46c-1.83-5.17,1.75-8.07,6.69-10.2,2.07-2.75,4.23-3.87,6.47-3.36l-1.65,5.07c5.28-2.83,6.2-7.9,8.91-11.88l10.14-14.91c1.19-1.76,1.2-4.34,2.55-5.66.04,17.22-13.23,28.95-26.13,38.3,9.44-2.43,16.13-9.23,22.91-15.22,3.22,26.59,10.39,52.54,25.7,73.96-19.79,35.22,33.9,68.46,62.95,47.01,26.98,19.94,33.52,20.72,66.06,25.66,1.66.56,19.2-.47,19.59,2.02.32.98-.75,1.69-2.23,2.23-5.25,2.53-12.5,1.85-17.58-.11Z"/>
    <path class="st122" d="M238.67,345.05c.33,6.2-30.58,12.51-36.86,11.39-5.46-.5-11.69-.24-14.99-5.47-.42-.67,2.04-1.05,2.83-1.23,13.25,2.48,35.59-5.08,40.19-19.16-2.19-3.21-2.11-5.07.24-5.57l2.56,2.95c1.9-2.06,3.49-3.65,6.62-4.09l-.59,21.18Z"/>
    <path class="st102" d="M618.95,485.23c21.66-8.47,23.14-26.59,26.44-25.2.51.38.45,1.03.32,1.92l-4.9,32.8c-.97,6.48-2.83,12.78-7.62,17.79l-3.6-12.69c-3.06,24.97-2.28,16.34-17.19,34.21-3.05.96-.03-4.83-2.35-9.2-1.74-2.12-4.58-.69-5.16,1.93-3.9,7.01-19.95,23.29-15.42,12.46l-2.99-10.91c13.42-12.08,31.36-22.96,32.47-43.11Z"/>
    <path class="st54" d="M647.17,396.02c-.89,1.17,1.4,46.53-2.63,44.87-3.73-6.28-6.97-14.48-16.2-17.63,7.84-8.52,13.73-21.17,17.38-32,1.94,1.55,1.13,3.39,1.45,4.75Z"/>
    <path class="st177" d="M604.85,393.22c-2.24.79-3.29-1.09-2.48-2.98-7.43-17.81-16.4-35.71-28-51.8l-.64-4.21c3.18-1.25-4.94-9.11-7.18-10.55-1.19-2.29-2.34-2.85-3.44-1.67-1.94-1.02-3.55-18.31-4.29-20.35,3.41.96,3.51,4.16,5.39,6.06l14.94,15.09,1.49,2.12c.34.49,2.78-.07,2.58-.81l-4.67-17.73c-.98-3.73-3.34-6.85-3.48-10.59,17.48,28.78,30.2,60.12,33.35,94.21-2.49-.26-2.48-2.51-3.64-4.32-1.24,2.76.22,5.08.06,7.53Z"/>
    <path class="st120" d="M646.6,362.77l.55,5.38-2.9,16.29c-6.59,17.62-16.24,38.39-31.91,50.22,2.41-18.22.14-35.88-1.23-53.75,2.5,9.62,3.35,24.63,4.34,34.86,5.43-4.11,10.12-19.48,13.22-25.17,4.11-8.07,9.44-32.24,11.41-41.27,4.75,7.66,3.31,17.47,6.52,13.46Z"/>
    <path class="st143" d="M246.98,272.76c2.37.05,2.71,1.32,4.26,3.02,2.41,2.64,5.95,3.88,7.93,7.06-3.93,6.11-5.74,10.71-11.38,12.98-3.16,1.27-13.67,11.5-15.68,17.16-2.2-.32-3.55,1.01-5.53,3.67l-1.04-10.15c-.24-2.3-3.61-4.83-2.42-7.32l3.98-8.35c2.05-.92.92,2.92.33,3.37-.53.4,4.13-10.92,7.57-10.08-2.46-.55,2.63-9.18,3.78-10.34,1.76-2.31,4.5-2.65,8.21-1.02Z"/>
    <path class="st171" d="M246.98,272.76c-.13,3.02-4.44-2.31-6.78,2.48,0,0-5.21,8.87-5.21,8.87-3.09,2.95-5.14,3.1-3.18-1.44,8.69-14.24,4.29-16.9,15.16-9.91Z"/>
    <path class="st0" d="M234.99,284.11l-7.57,10.08-.33-3.37,4.73-8.15c-.74,2.3,1.64,2.21,3.18,1.44Z"/>
    <path class="st38" d="M349.84,489.78l9.41,18.16c-1.58.55-2.57.15-3.28.05-2.05-3.14-15.94-9.69-19.2-11.89-17.69-12-31.42-27.94-36.1-50.34l-.02,21.36-1.57-1.22c0-9.2-3.46-32.65,2.71-39.08,3.09,8.98,9.09,20.74,13.18,29.44,0,0,11.44,16.34,11.44,16.34l19.81,20.1c.85.86,3.53.62,3.7-.19.15-.71-.09-2.03-.07-2.72Z"/>
    <g>
      <path class="st14" d="M226.31,324.2c.67-.31.95-.07.86.69l.94,2.44c-6.78,8.72-27.42,26.89-38.46,22.41-5.34,4.83,11.07,4.35,13.36,4.79,12.48-.65,24.79-3.94,35.66-9.48,2.72-.28,5.51-.28,8.39,0l1.22,2.04c0,2.24-1.77,3.26-5.31,3.04-.85,2.86-2.16,4.44-3.96,4.72l-1.39,19.37c3.69-6.98,6.38-4.87,4.39,1.98l1.33,2.43c-6.81,18.54-16.47,38.11-32.85,49.89l-2.59-.81c-5.88,8.76,30.8,2.25,34.13-.08l3.09.75c3.21-.88,6-.5,2.78,2.52,1.84,3.16,4.92,13.24,4.86,16.58-1.08,1.08-1.39,2.66-.91,4.74l3.68,3.68c6.15,20.3,17.98,38.3,26.15,57.24l2.01-.6c11.65,18.37,26.56,34.67,42.35,49.36-3.48-5.57-.66-10.54,5.01-4.51,1.65,3.99,16.81,21.41,19.44,21.17.9-.08-2.24-15.26-3.66-17.47.54-8.81,3.99-8.29,10.35,1.56l11.16,7.98c-3.61-3.69-2.12-7.32,3.16-6.62l22.87,19.03c2.83,2.13,3.47.15,1.92-5.92,1.42-2.31,4.17-2.51,8.24-.61,4.49,2.61,30.06,12.44,18.78-.45-2.77-5.83-4.81-10.84,4.11-10.74,2.27.03,5.3.71,4.8,3.34,7.65,7.86,21.39-4.42,27.71,2.61,1.92,1.73,1.82,2.21-.79,2.51-1.69,2.11-1.62,5.15-1,8.6.41,2.26-2.71,2.28-2.18-.06s.65-6.49-.85-7.31c-10.78-2.81-23.58,3.74-29.35,13.16-2.15-.91-4.61-2.57-6.9-2.3-.8,4.35-8.01.67-10.94.14,11.16,21.16-46.71-8.46-50.11-13.49-.5,3.29.12,7.08,1.87,11.36,8.46-.15,15.97.38,22.1,6.76,2.38,2.48,6.75,7.14,4.84,10.3,9.5.53,4.14,8.58,1.62,4-.42,2.65-1.48,4-3.19,4.05-2.47,1.54-2.8.75-.99-2.37-.81-2.07-1.46-4.36-1.95-6.86-2.83.7-4.54-3.61-6.81-5.11-6.66-3.08-14.25-3.76-22.77-2.03-6.2-1.16-17.44-1.43-4.49,2.32,2.58,3.43-5.15,10.15-8.48,7.85-.79,3.9-6.58,5.47-10.51,5.14-2.12,1.07-.06,1.67,6.19,1.79-.35.77-.52,2.02-.29,2.83-5.43.4-9.87,1.86-13.31,4.38l.39,1.46c5.33-3.39-3.15,5.79,8.8,5.79,1.44-4.97,21.18-10.91,17.32-1.65-19.72,6.34-.43,5.25,6.89,1.25l1.93,1.46c.13-1.13,1.49-1.48,1.99-.31,3.85-1.58,6.38.36,4.94,4.27.93,1.19,1.32,2.14,1.17,2.87,1.63,2.27-7.86,4.94-8.69,4.85-5.12-.84.95-5.33-2.19-6.96-7.82,3.44-14.97,2.2-22.64-.43-4.21-1.45-10.05-.52-12.77-5.45-7.55-15.66,13.43-19.99,21.85-25.97-6.2-4.2-4.78-11.58,2.94-11.93,3.31-.47,6.17,2.39,10.22-.35-57.73-28.96-94.46-91.14-110.52-151.79-3.39-1.56-23.69,8.87-48.32-2.94-1.27-.61-2.14-1.46-1.95-2.53.47-2.77,13.17-.2,23.06-12.53,18.52-21.12,13.78-39.16,19.25-63.42-21.16,9.64-45.9,11.54-64.12-4.17,22.65-1.06,38.39-9.2,53.46-24.4.28-1.89,1.21-1.75,1.65.14Z"/>
      <g>
        <g>
          <path class="st126" d="M339.57,602.82l6.53,14.26c-3.18-.25-3.54-1.6-4.81-2.83-3.07.41-20.83,6.41-21.2,3.18-.03-5.89,11.39-4.71,14.71-6.21-.45-1.53-2.17-2.18-5.18-1.96l-.56-1.3c3.65-1.31,7.33-3.12,10.51-5.14Z"/>
          <path class="st81" d="M334.8,611.21c-1.4-2.26-6.56-.22-7.81-1.7-.69-1.55,1.09-1.58,2.06-1.56,3,1.77,7.41,1.14,10.32-1.86,1-.11,1.82.42,1.7,2.28l-6.28,2.83Z"/>
        </g>
        <g>
          <path class="st155" d="M230.07,325.01c-.97,1.45,1.7,3.79,1.81,5.14-4.31,17.03-26.99,22.85-42.66,21.72-.33-.6-.16-1.69.43-2.12,13.24-2.85,30.15-12.72,37.52-24.85,1.04.26,2.56-.28,2.9.11Z"/>
          <path class="st150" d="M281.67,513.15c-12.46-18.36-21.31-40.26-29.83-60.92l.58-4.4,5.05,6.59,7.18,19.98c4.66,12.98,11.23,24.77,18.48,36.69.54.88-.27,1.92-1.46,2.06Z"/>
          <path class="st26" d="M242.01,376.2c-.06-1.79.79-3.73-.73-5.56-2.8,6.18-4.05,11.82-8.01,16.64,1.02-5.26,4.59-27.71,5.75-32.42.13,4.98,1.06,11.27.12,16.23,4.29-3.59,3.39-11.12,6.29-10.02,2.16.65-3.47,13.86-3.41,15.14Z"/>
        </g>
      </g>
    </g>
    <path class="st82" d="M510.79,344.8l2.15,2.17c.67,6.28.32,12.55-.86,18.7l1.18.19c-.68,3.73-.58,8.7-4.2,11.81-.55-10.29,2.89-18.99-.11-28.22-3.95,32.42-20.35,60.9-46.92,79.49,1.92-26.23-24.5-38.3-28.36-64.24-4.56,15.25.67,27.37,1.55,41.1-6.54-9.46-11.38-18.96-14.42-28.85,3.4,5.13,4.56,7.13,10.23,2.02-1.23-5.22,1.21-22.6,5.87-25.06,5.66,7.77,8.86,17.1,12.52,25.76,3.81,9.26,8.81,17.54,11.7,27.44,10.25-9.18,17.27-22.29,24.31-33.68,11.21-15.53,16.41-32.8,18.36-52.51,4.85,7.75,6.46,16.04,7,23.87Z"/>
    <path class="st45" d="M389.94,367.91c-4.21,17.03-22.51,40.79-28.86,57.2-.84.05-1.66-1.02-1.76-2.26-2.22-9.21-5.46-24.42-6.36-34.05-1.47,8.98-4.86,27.47-6.87,36.23-.38,1.81.04,3.23-2.03,4.02-1.13-17-2.12-48.11-.98-65.11.42-2.47,1.91-28.8,3.97-30.06l1.4,28.57c.08,1.53.33,3.96,2.59,3.34.07-1.55.46-4.16,2.96-3.85l5.48,42.74c10.91-6.43,19.3-28.22,28.24-33.02.91-.52,1.16-3.63,2.24-3.76Z"/>
    <path class="st57" d="M513.26,365.87c-1.34.84.29,3.85-3.01,4.51l1.52-11.35-.97-14.24c6.24,6.25,2.36-2.43,5.49-3.81-.39,8.34-1.51,16.55-3.02,24.88Z"/>
    <g>
      <path class="st78" d="M488.15,173.01l-.6,1.06c33.24,5.32,72.16,18.71,90.58,48.92,5.05-3.21,27.09,34.06,26.05,37.16.55,7.45-9.1,1.13-12.23-1.42l-18.85-9.84c3.72,16.81,1.66,24.89,18.75,34.66,2.41-4.35-2.79-18.15,3.77-17.47,6.85,3.98,19.85,13.54,25.97,19.85-2.84-7.35-6.56-14.42-11.16-21.22-3.44-7.27,1.38-10.79,7.41-5.1,4.25,5.12,26.01,26.79,24.84,34.29.96,1.42,2.12,2.12,3.47,2.1l9.85,15.57c-.13,3.53.86,4.77,2.94,3.72l7.88,9.91c-2.21-1.6-2.87-2.98-2-4.14,4.75,4.5,8.53,10.08,14.49,13.63,2.35,1.4,5.48,1.93,6.79,4.11-9.24,2.05-19.59-4.5-27.27-9.76.08,15.26,8.54,41.96-1.44,54.36-1.3-13.03-4.43-25.36-9.4-36.97.92,3.89.7,7.1-.66,9.62.8,3.66-.64,6.22-1.47,9.34-3-1.3-4.74-4.48-5.23-9.54-1.03,7.59-16.94,67.42-26.22,60.04-.21-11.68-1.67-23.31-3.29-35-8.79-42.66-26.74-87.36-56.74-119.41,2.24,8.3,16.58,26.27,20.7,34.32,1.72,4.85,17.56,34.56,4.55,30.72,0,0-17.65-18.38-17.65-18.38,1.58,10.72,2.76,36.8-.91,45.91-1.87,1.43-20.26-11.05-20.61-16.08h-2.29c-1.3-2.6-8.78-12.77-5.81-14.72-8.39-14.11-14.74-31.32-24.36-44.29,6.27,19.48,14.12,42.01,8.28,62.03-.5,2.89-1.25,5.5-2.27,7.82-1.73.03-2.8-1.31-3.22-4.01-3.64-3.22-3.36-12.12-5.67-16.94-4.23,29.44-21.25,56.5-40.44,78.66-2.26,1.87-4.1,2.98-5.42.26-6.98-17-14.57-33.61-22.78-49.83-2.25,5.02-3.93,10.07-5.04,15.14,1.77,11.37-5.96,17.49-10.63,4.88-3.91,3.11-10.18-27.77-11.72-31.38-.38-3.95-6.53-21.92-2.86-23.52-.7-5.08-1.95-9.68-3.77-13.78l-.91,1.3c1.41,8.49,1.23,16.65-.52,24.48,3.8,5.03-5.21,31.8-11.08,33.83-3.24,6.53-7.42,12.64-12.53,18.33-3.93,3.88-11.98,22.8-19.18,19.1-2.46-12.69-4.35-25.62-5.68-38.8-11.15,7.01-5.32-27.44-5.52-32.66-1.45-1.49-2.44.01-2.98,4.5-4.05,36.14-4.13,72.17-.25,108.08l-1.86,1.48c.56,2.26,1.91,15.41-1.98,12.91,1.58,3.4,2.56,7.2,2.96,11.4.75-.19,1.84-.42,2.18.07.76,1.12,5.72,13.97,5.98,15.46.13.73-.63,1.44-1.25,1.99,2.26,4.89.23,6.9-4.79,4.5-1.43-.68-18.18-18.02-20.17-20.41-10.35-12.43-17.11-27.37-23.44-42.12-.17,1.94-1.07,3.32-2.7,4.14-1.1,12.95-.51,25.63,1.76,38.02-3.84,1.72-7.42-8.27-7.5-11.81-8.57-20.86-14.93-45.53-8.96-67.94,2.02-9.14-2.55-4.8-3.1.65-2.24,8.89-11.03,25.21-18.19,30.92-6.13,4.89-5.13.9-1.75-3.54l-.98-3.43c5.39-16.66,8.51-33.63,9.37-50.89.85-.53,1.75-.47,2.67.04,2.44-.88.15,11.84.21,11.23.59-7.37,1.52-14.69,2.77-21.96,3.24-4.96,5.52-11.55,6.78-17.44-3.44-4.6,5.48-16.41,8.26-6.94.06,11,5.65,22.55,11.95,31.52,4.73-5.5,26.85-48.36,30.85-21.76.31-6.7.05-13.13-.78-19.28-14.52,9.99-6.88-33.29-23.85,10.74-11.12,4.92-9.76-20.32-10.88-27.41-5.58-4.45-5.55-10.32.09-17.61-1.26-1.85-1.92-2.92.41-5.44-2.46,5.13-5.53,9.55-9.21,13.26-7.36,22.9-16.51,46.22-19.17,70.76,0,0-.91,1.41-2.72,4.24-.92,18.02-4.97,35.05-20.51,45.94-7.84,6.22-20.03,14.39-30.27,14.21-3.39-.06-13.32-1.15-8.1-4.3,12.8-1.72,46.37-66.93,30.91-55.62l-1.02-1.25c.32-4.9,1.08-18.35,3.18-22.74,4.73.48,8.98-1.73,13.17-2.75,2.47-2.18.11-4.93-.4-7.03-2.38-12.62-2.96-29.71,8.01-38.48,3.77-3.36,6.24-6.97,9.6-10.57,1.63-1.74,4.27-2.29,4.9-4.76,1.64-6.4-4.22-7.43-1.28-11.72,25.84-40.17,65.67-75.49,113.61-85.28,5.1-1.03,7.62.42,11.32,3.39,1,2.37,6.12,6.25,9.03,3.91-.02-3.25-1.53-6.2-.61-9.54,23.28-14.51,52.54-13.59,79.25-13.29.29.27.53.94.59,1.01Z"/>
      <g>
        <path class="st60" d="M593.09,224.18c22.1,19.83,39.97,45.61,54.36,71.29-.98,7.33-14.11-15.44-15.67-16.25-3.69-3.86-16.17-22.96-20.97-20.11,3.07,10.51,11.4,18.88,14.22,29.45-1.12,2.28-2.33.81-3.66.01-7.82-7.94-17.8-15.43-26.92-20.47-1.94,1.26,2.47,9.74-1.53,18.27-20.73-10.67-17.36-20.06-22.32-39.16,3.37-1.24,5.07.93,7.23,1.9,9.33,3.68,15.45,9.6,24.98,13.08-5.23-18.17-20.19-31.71-29.96-47.01,1.78-.86,3.55-1.81,5.3-2.85,5.38,3.47,10.36,7.43,14.95,11.86Z"/>
        <path class="st166" d="M404.8,195.03c-4.48-2.94-10.18,3.15-18.39,1.6,4.12-4.46,11.33-3.42,13.48-5.73l4.91,4.12Z"/>
        <path class="st51" d="M660.36,378.88c-.48,2.55-1.08,6.94-2.21,9.05-2.31-8.8-6.57-21.04-8.25-29.94,0,0-.28-1.99-.28-1.99-.12-.86-1.61-1.12-1.6-.26.04,4.63.71,8.85-.86,12.4-3.2-.1-3.08-4.07-.55-5.38.47-8.53-.9-16.69-1.3-26.27,8.67,13.3,12.59,30.08,12.34,45.85,1.94-.85,1.78-2.7,2.72-3.46Z"/>
        <path class="st104" d="M290.98,298.1l1.2,2c-5.39,12.22-9.61,24.86-12.64,37.94l-2.42,2.76c-1.69,8.61-2.92,17.24-3.69,25.88-1.42,1.35-2.8,1.76-2.71,4.26,0,0-2.25,22.47-2.25,22.47-2.7,14.48-4.13,33.32-20.57,37.5.27-1.98-1.56-1.69-2.78-2.52l.07-2.28c10.54-3.51,14.95-13.33,14.96-24.07,4.07-9.78,6.42-19.55,6.64-30.19,4.13-25.89,9.48-51.84,21.89-75,2.74-3.31,3.86-2.82,2.32,1.25Z"/>
        <path class="st153" d="M245.11,428.39c-12.86,6.53-27.96,6.09-41.54,1.8,1.81-2.05,3.31-1.94,4.31-2.48-.12.72-.39,1.29-.87,1.94,15.66,5.8,36.33-11.1,46.96-21.6,8.86-9.78,11.31-23.94,12.8-36.2.49,9.15-.79,18.41-4.84,27.1,1.44,12.71-4.38,25.38-16.82,29.43Z"/>
        <path class="st39" d="M347.03,333.89c-2.29,27.92-3.19,56.16-1.67,84.25l5.54-29.17c1.38-1.07,2.75-.56,4.14.41.75,10.31,5.23,25.75,6.02,35.73,1.1-2.16,1.66-2.42,2.39.06,1.96.76,2.19,1.24.37,2.04-.7,1.02-2.98,4.3-3.98,4.96-1.53.54-2.84-.38-3.77-1.55-.56-.71-4.06-14.11-1.18-14.53.26-3.83-.68-5.46-2.82-4.89,1,1.04,1.33,2.71.99,5-5.35,18.72-6.74,37.71-4.17,56.97,2.38,12.64,10.06,32.77,19.93,40.97-.1,3.88-9.2-1.57-11.09-1.91,1.63.21,3.36.75,4.68-1.26-2.84-.87-5.31-1.47-6.46-2.99l.31-2.11-6.93-12.7c1.06-.81,1.22-1.94.49-3.4-2.73-7.33-9.48-21.28-8.66-29.25,3.36-5.54-.33-17.03.02-23.52-1.54-47.17-8.22-98.76,15.7-141.63l-9.88,38.5Z"/>
        <path class="st135" d="M300.65,467.12c1.04,4.71,1.71,9.5,2.3,15.54-4.29-3.8-5.42-8.44-7.44-12.69,1.46.6,1.37,3.46,4.53,2.6-5.45-11.25-1.14-25.09-1.3-36.67.28,10.56-.35,21.03,1.91,31.22Z"/>
        <path class="st32" d="M288.1,449c-2.07-.3-1.71-2.19-2.16-3.85-3.66-13.59-7.4-37.4-2.94-47.2.74,4.25-1.27,8.59-.83,13.09.52,9.62,3.18,28.77,5.93,37.96Z"/>
        <path class="st32" d="M284.05,394.17l.09-5.15c-1.71.79-1.62,2.2-2.49,2.94,1.78-5.5,1.65-11.88,6.09-17.34.01,6.81-1.95,13.33-3.68,19.54Z"/>
        <path class="st135" d="M293,462.11c-2.83-3.02-3.15-7.25-4.28-11.03,1.93.96,4.36,9.05,4.28,11.03Z"/>
        <path class="st69" d="M281.83,339.76c-4.63,18.33-10.55,27.9-4.71,1.04,2.01-14.28,8.12-29.14,13.86-42.71-.21-4.5,3.86-11.84,8.99-10.92-2.76,4.62-6.29,10.08-4.55,15.35,7.95,1.96,1.44,12.48,7.67,28.4,3.7,6.98,6.12-4,7.15-6.68,2.73-7.84,6.7-15,11.68-11.76,2.49,1.62,1.58,12.24,7.64,10.2.98-.33,2.18-2.4,3.55-1.24.56.48,1.7,1.41,1.71,2.72,0,0,.09,20.75.09,20.75,0,1.48-1.31,2.46-2.33,2.18-2.17-.62-1.02-5.5-3.15-10.66-4.24-.74-7.04,1.39-9.29,4.72l-18.08,26.74c-9.26-11.25-12.59-24.13-15.03-37.41-3.14,2.54-4.03,6.28-5.2,9.28Z"/>
        <path class="st90" d="M455.69,306.37c5.14,46.81-23.16-2.3-36.79,23.93-8.81-9.49-5.89-34.13-5.59-46.93.04-.95.74-2.21,1.29-2.38,6.11,1.58-2.55,11.83,23.53,26.03,12.14,8.9,10.93-2.94,17.57-.64Z"/>
        <path class="st159" d="M363.5,337.96c-4.1,7.01-9.32,19.42-9.93,16.43-2.2-10.88.02-31.39,5.48-43.15l3.63,16.46c1.74-1.78,3.55-4.12,5.3-3.58,1.78,4.85-1.92,9.47-4.48,13.84Z"/>
        <path class="st40" d="M540.45,337.97c4.62,4.14,9.05,8.98,15.1,11.43,2.18.88,3.61,1.97,5.1,3.61l2.28-13.95.17-17.04c3.17,17.19-.12,36.35-10.19,52.13-1.34-4.31-2.68-9.21-1.54-13.83.56-2.25,2.5-4.65.09-6.3-.93.95-2.51,3.48-3.35.95,0,0-7.67-16.99-7.67-16.99Z"/>
        <path class="st151" d="M532.36,323.26c-15.32-18.81-14.95-18.19-21.61-41.28l13.27,20.09c3.55,5.97,5.67,14.72,8.34,21.19Z"/>
        <path class="st161" d="M467.6,292.05c6.36-2.13,5.11,28.06,2.49,31.54-.62.82-3.23.64-3.21-.45.23-12.38-1.37-30.38.73-31.08Z"/>
        <path class="st76" d="M423.22,185.79c1.9,2.66,3.65,1.68,1.86-1.25,6.94-1.96,14.89-.88,21.21,2.92-4.4,1.19-8.13.71-12.32.51.23,3.27,2.46,4.57,4.57,7.65-5.84.89-10.55-1.54-16.38-1.9-9.15-1.01-6.2-6.93,1.06-7.94Z"/>
        <path class="st46" d="M406.22,322.07l-3.82-13.32c-1.27,8.58,3.28,18.4-1.38,25.33,2.51-17.52-3.25-35.12-.05-52.96,1.95,12.03,2.83,28.94,5.25,40.95Z"/>
        <path class="st94" d="M374.98,323.44c6.89-5.66,4.04,18.41-.48,18.67-4.78-.36-3.19-12.04.48-18.67Z"/>
        <path class="st96" d="M341.95,447.95c.6.16,1.13.91,1.14,2l.13,14.08c.03,3.05-1.37,5.35-.3,8.23-4.08-10.35-9.83-22.08-12.15-34.57-.42-2.29,2.73-2.19,2.11-.09,2.14,8.41,4.93,15.72,8.68,22.89l.38-12.53Z"/>
        <path class="st34" d="M272.06,367.92c.1-8.6,2.34-18.62,5.06-27.12l-1.92,16.05,6.63-17.1c.54,3.64-1.31,6.9-2.6,10.44-4.34,11.93-5.24,24.06-7.4,37.12-2.07-3.95.1-8.05.15-12.25l.08-7.14Z"/>
        <path class="st156" d="M555.37,292.83c-5.59-.22-6.48-4.87-8.6-8.72-1.82-3.3-4.96-5.69-3.37-10.39,6.25,2.76,9.2,13.47,11.97,19.11Z"/>
        <path class="st121" d="M529.6,274.7c10.78,2.81,17.08,21.18,8.71,14.97-2.63-5.16-6.75-8.85-8.71-14.97Z"/>
        <path class="st174" d="M482.37,306.42c-4.21.92-4.65-2.98-5.46-5.4-1.85-5.54-5.94-10.64-4.14-16.93,5.08,6.96,6.25,14.47,9.6,22.33Z"/>
        <path class="st68" d="M423.22,185.79c.89-.07,1.49-.34,1.86-1.25,4.68.85,9.77-.46,15.04,2.13-7.41.06-14.44,1.45-21,5.13-4.26-1.16,3.72-4.67,4.1-6.02Z"/>
        <path class="st129" d="M488.43,308.82c-2.49-1.32-2.69-4.41-3.41-6.61-1.14-3.51-3.08-6.41-1.64-10.58l6.4,13.56c.72,1.52-.32,3.8-1.35,3.63Z"/>
        <path class="st41" d="M296.75,287.83l-5.77,10.27c.19-.28.18-1.79-.4-2.02-.4-.16-1.21.8-1.92.77,2.79-3.6,7.89-18.36,13.58-16.59-2.91,2.2-4.09,5.06-5.49,7.57Z"/>
        <path class="st156" d="M558.57,292.55c-3.04-2.54-3.6-5.4-4.29-8.88,3.01,1.53,5.06,4.62,4.29,8.88Z"/>
      </g>
    </g>
    <path class="st45" d="M354.9,416.09c-.89-4-1.35-5.86-2.82-4.89,0-.81-.64-3.02,1.03-3.55,2.2,2.45,2.13,5.74,1.79,8.44Z"/>
  </g>
  <g>
    <path class="st116" d="M284.05,394.17c2.82.78,1.82,3.92-1.05,3.78-2.99,16.63-.25,35.3,5.1,51.05,2.67-.25,2.86.62.62,2.08l4.28,11.03c2.46.28,4.41,6.2,2.51,7.86,1.62,1.87,3.12,3.66,4.53,5.36.47-2.43.34-4.77-.41-7.01l1.02-1.19-.89-21.21c.81-1.07,1.85-1.04,2.83-.16,5.45,27.94,28.42,46.51,52.58,58.64,1.2,1.04,1.72,2.19.79,3.6,1.33.76,2.85.89,4.55.38,5.42,4.33,3.22,5.86-2.78,3.86-9.91,3.58-35.32-20.75-44.13-29.09-2.78,2.68-3.54,8.47,2.18,7.75,1.25,2.9,5.44,5-.95,5.17.69,2.42-.39,5.25-2.92,6.03-1.77-.45-1.83-3.53-.99-5.06-1.51-.17-2.85-.86-4.03-2.06-11.37,29.15,25.52,54.91,51.47,41.42l2.68.68c1.17-.79,4.13-2.85,3.06-4.47-1.98-2.97-2.7-4.15,2.19-3.38,4.32,4.73,8.94,9.02,13.85,12.86l.77,2.95c1.29-2.37,6.01.34,4.75,3.07l3.35-.31c25.13,12.23,52.35,13.36,79.3,12.45l.66.72c2.26-.59,15.94-1.06,16.31-.33-2.06,2.35-2.46,4.8-1.19,7.35l3.28.32,17.06,13.57c9.58-5.4,8.23-13.42,7.64-22.45l1.94-1.47c-1.95.36-2.47-.46-2.04-2.3,7.2-1.99,12.12-7.43,20.12-8.61,0,0,11.57-4.59,11.57-4.59l4.08.42c3.14-.97,2.15,2.81,1.89,4.63-8.38,3.23-16.68,6.62-24.89,10.19-.77,1.5-2.29,2.58-4.03,2.36-.36,8.98-2.9,16.39-8.11,23.82,2.63.12,4.39,1.51,5.27,4.17,3.19-1.69,13.91,7.16,13.04,10.86,1.48.9,1.78,1.6.89,2.09.51,1.1,1.11,2.13,1.1,4.01-2.09.04-3.08-1.39-4.27-3.08-1.37,1.64-.36,3.77-.87,5.09.82,2.32-.36,4.77-3.52,7.33,5.85,22.21-14.02,18.02-4.48,9.99l.26-1.08c-2.44-5.56-2.77-10.66-.99-15.29,3.31-1.09,7.56-5.54,3.07-7.17-8.24-16.74-8.22.38-17.19-7.68-1.96,2.94-3.99,3.82-6.08,2.66.78-3.9-1.64-5.14-4.96-3.67,1.66,2.89.19,4.32-2.77,2.81l.03,6.08c-3.9,1.86-5.8,3.84-5.7,5.95,2.28,2.79,2.38,7.36-1.58,5.01.33,2.22-2.47-2.75-3.31-3.01-1.28-1.04-2.88.02-5.13,1,4.22-5.54,5.76-10.96,11.59-16.02-1.06-1.64-.44-2.15,1.14-.96,1.57-1.81,2.53-3.62,2.87-5.42,3.41.93,9.6-2.37,7.18-3.85-3.22,4.09-20.01-13.69-20.74-17.58-5.72-1.39-11.27,1.68-15.24,5.64l-2.31-.47c-2.14.92-4.85-1.11-7.13-.75-5.51.11-17.8,5.56-20.58-1.86,3.88-2.88,11.57,1.82,15.92-1.5-29.35-.45-59.14-6.51-81.71-25.85-33.09,19.85-82.04-11.31-65.74-50.11-14.45-20.56-20.95-44.37-24.53-69.23-2.89,3.04-16.57,13.65-19.94,12.79-4.75-1.22.35-7.79,3.87-6.97,9.61-5.92,18.09-22.29,20.86-32.99-2.84-.89-2.27-2.73.7-2.85,3.08-7.3,3.62-2.96,2.41,2.2Z"/>
    <path class="st164" d="M523.81,559.07c-2.48-2.15.3-3.45,2.26-4.08,3.72-.7,25.14-12.52,28.78-9.23-2.98,7.35-7.08,15.88-12.14,14.15-2.88-.98-3.3-5.98-6.19-5.92-2,.53-7.53,5.89-9.47,7.06l-3.23-1.99Z"/>
    <g>
      <path class="st21" d="M554.12,892.07c-2.86,13.29,7.63,33.62-3.46,43.18-7.17,5.98-29.18.15-31.3-15.49.29-10.66-1.3-33.52-1.24-43.87.45-2.7-.78-4.27-3.06-4.79,0,0-.81-16.84-2.42-50.52-6.26-2.07-11.5-.54-17.35,2-7.62,1.15-15.35,1.09-23.18-.17-8.47,22.49-16.89,45-25.25,67.53l-2.38.65-8.43,29.36c-5.78,21.54-38.69,18.39-35.24-5.06,0,0,2.38-15.74,2.38-15.74,6.15-21.52,13.18-67.21,18.39-89.46-8.35-3.02-14.17-6.17-20.4-12.02-4.96-1.77-9.38-5.1-13.43-8.57,2.02-4.23,9.14-22.64,11.93-26-1.27-10.32,11.76.44,3.4-.14,1.44,1.65.4,3.6-3.09,5.86l1.48,1.6-6.8,15.78c2.88,1.06,3.67,2.47,2.35,4.25,3.07,2.19,6.25,3.3,10.05,2.81.88,0,.9.13.06.4.88-.51,1.35.41,1.39,2.74l1.14,2.32c8.28,4.42,17.1,7.25,26.48,8.48,1.69-1.91,1.85-1.93,2.65.18,3.07,1.42,6.29,2.29,9.65,2.59,3.32,6.25,40.33,9.1,46.76,6.73-.43-.8-.18-.98.69-.59,5.13-1.81,11.48-2.3,19.04-1.46,1.88-2.21,5-1.06,6.03,1.56,1.72,1.15,3.77,1.56,6.15,1.21,10.44-1.98,20.91-3,31.42-3.05,1.4-1.36,2.29-1.5,2.66-.43l.86-1.64,10.6-4.6c1.26-1.84.79-7.53,3.36-3.46l10.92-.18-.54-1.22c3.26-2.04,6.51-4.28,9.76-6.72-1.46-6.45-3.37-12.81-5.73-19.09l1.46-1.94c-2.64-1.24-4.71-2.55-1.92-4.97-3.03.58-3.81-1.74-1.05-3.26-1.07-1.57-.23-3.14,2.51-4.7l-8.81-35.47,1.66-1.62c-1.09-1.45-2.24-2.8-3.45-4.06l1.5-1.83c-1.23-1.88-1.75-4.31-1.55-7.27-3.16.19-3-1.59-1.42-3.79l-.57-2.21c-3.41,1.68-6.33-6.9-2.69-7.75-1.2-3.67-3.81-14.31,1.25-12.14.81,7.8,3.52,15.5,6.31,23.18,3.48,3.12,4.28,7.64,2.51,11.91l7.37,24.49,3.65,15.42c.77,3.25-1.23,5.41-4.48,6.76l8.47,26.12c.68,2.09,2.08,5.5-.42,6.89l-12.11,6.72c-3.76,2.09-7.41.29-10.45,1.18-4.13,1.21-7.26,5.52-12.58,6.33-3.57,22.35-6.35,55.15-11.47,77.08Z"/>
      <g>
        <path class="st74" d="M553.77,904.11c-.83-3.16-1.69-7.04.24-10.11l-.24,10.11Z"/>
        <path class="st92" d="M453.21,855.07c-.66,4.44-3.15,8.78-3.99,13.14-3.03,4.75-2.74,12.66-8.07,15.39-2.8,1.03-21.04-3.69-24.14-5.63-8.2-3.03-1.53-16.01-.88-21.82,1.23-22.56,6.09,1.11,35.68-1.99l1.41.9Z"/>
        <path class="st1" d="M553.89,875.91c-.32,4.15-.66,7.24-2.87,10.78-.86.92-23.78.38-25.03-.69-.77-.66-.98-1.71-1.07-2.67-1.53-.6-2.4-.95-2.3-2.75.71-8.84.22-17.6-1.47-26.27,8.93,1.18,17.91,1.36,26.93.53.11-2.82,6.46-4.62,8.45-2.88l-2.64,23.95Z"/>
        <path class="st180" d="M445.03,880.17c-.35,1.61-1.39,2.83-3.81,2.99,2.32,3.97-.61,6.51-2.49,9l-1.98,8.99c-1.95,10.03-8.62,11.63-15.45,9.7-3.66-.06-6.55.42-8.48-3.83,4.46-1.89,9.52-1.12,8.45-3.5-.28-.63-1.33-1.29-2.37-1.12l-9.66,1.57c-3.49-.95.35-4.61.26-6.15-1.38-8.36,2.63-19.74,3.48-28.11-.8,7.19,15.26,10.5,25.79,11.72,2.59.3,4.48.47,6.27-1.25Z"/>
        <path class="st74" d="M551.1,903.94c.92,14.15-18.67,14.02-26.45,6.57l-2.76-12.55-.56-14.98c.06-.89.29-.84.68.05-.45-3.56,5.26,2.9,9,1.91,0,0,18.03.03,18.03.03,5.1,0,2.93-5.44,4.86-9.07-.22,2.03.78,6.37-.83,8.01-2.41,2.45-1.28,3.41-1.39,6.05l-.58,13.97Z"/>
        <path class="st163" d="M455.16,852.43c-4.78,5.1-41.19-.91-35.98-11.62l-.17-1.67,3.08-.94c18.59,13.36,41.09,2.88,33.07,14.23Z"/>
        <g>
          <path class="st172" d="M461.13,835.29c-2.09,3.5-.58,9.82-6.59,9.26-2.05,6.96-28.49-3.09-33.05-6.61-2.55-5.07.85-13.29,2.84-18.35,12.24,4.22,23.86,11.28,37.36,10.99l-.56,4.71Z"/>
          <path class="st111" d="M461.13,835.29l-.26-3.35c-10.72.65-19.89-2.57-29.11-7.75-2.22-1.24-5.91-.51-7.25-3.35-.59,2.07-1.02,2.5-1.94,3.18l2.87-13.49,8.45,1.38c5.98-.46,10.22,1.27,14.87,4.38,5.17,3.45,11.74,2.73,17.81,4.19l-5.44,14.8Z"/>
          <path class="st133" d="M558.83,835.08c-1.47-.65-2.25-2.16-2.35-4.53-9.71,3.56-19.51,6.7-29.39,9.4-3.24-.58-4.71-.07-4.42,1.54l-2.17.92c-2.02-.54-1.68-21.29-1.63-21.68.43-1,1.28-1.53,2.13-.72,4.99,4.56,32.07-.92,40.04-2.22-.66,2.58.24,16.04-2.23,17.29Z"/>
          <path class="st103" d="M558.83,835.08c-.06,1.96-.79,5.99-2.94,6.75-2.65,5.51-12.1,4.5-17.43,5.01-5.64.07-14.64.16-17.94-4.43l.82-5.34c5.89,2.83,13.74-1.5,19.33-3.36l9.63-3.2c2.87-.95,5.48-.96,8.22-4.1.81,3.48.42,5.7.32,8.67Z"/>
          <path class="st140" d="M459.17,841.87c.45,4.49-1.87,2.82-4.82,3.02,1.07,1.53,2.16,1.47,3.46,2.23-.32,2.16-1.01,4.94-2.65,5.31.03-1.47.96-2.6.89-4.71-11.66.82-22.74-1.22-32.58-7.18-1.6-.97-2.84-1.79-4.46-1.4.34-.74,1.19-1.44,2.63-1.5-.11-.67-.31-1.27-.63-1.74,10.33,6.99,29.65,12.86,38.17,5.97Z"/>
        </g>
        <path class="st137" d="M454.09,852.97l-.87,2.1c-12.06,1.8-24.49-1.17-35.1-8.46-.6,3.98-1.31,6.65-1.98,9.54-.51-3.74.13-7.99,2.33-10.97-.16-1.39-.77-3.59.72-4.38.22,10.22,27,13.21,34.91,12.17Z"/>
        <path class="st71" d="M411,912.4c.14,2.89.31,4.81-1.36,6.68-2.3-1.61-1.87-6.96-.92-7.75.79-.65,2.19-.65,2.28,1.07Z"/>
        <path class="st3" d="M426.7,918.2c-.37,1.3-1,1.5-1.32,1.71-3.31,1.5-2.29-3.85.13-4.11.81,0,1.65.81,1.19,2.4Z"/>
        <path class="st137" d="M449.22,868.22c0-3.04.69-6.22,2.9-8.34-.7,3.1-1.52,5.67-2.9,8.34Z"/>
        <g>
          <path class="st106" d="M551.1,903.94c1.88,10.53,1.11,11.91-2.65,21.98,3.14,13.07-18.49,7.45-23.74-.48-3.76-5.2-1.38-10.74-1.81-15.81l-1.01-11.67c2.31,1.96,1.55,4.98,2.36,7.98,1.88,6.98,15.09,10.16,23.46,4.74l3.39-6.74Z"/>
          <path class="st23" d="M548,923.11c-2.13-.53-3.3-5.93-1.69-6.79,2.74-.51,3.24,5.34,1.69,6.79Z"/>
        </g>
        <g>
          <path class="st36" d="M521.02,820.01c-2.45.47-1.85,2.61-1.46,4.38,0,0,.95,18.02.95,18.02,11.82,3.3,24.18,3.37,35.38-.58l2.92,2.57-2.27,7.56c-9.43,4.99-19.96,3.15-30.24,3.06-5.44-2.72-6.64.48-3.6,9.59.16,5.92.28,11.81.35,17.68l-1.04.75-.68-.05c-1.46-14.72-2.43-36.01-2.56-50.89-.1-4.2-1.93-8.37-.13-12.36.7-1.05,2.26-1.16,2.38.28Z"/>
          <path class="st33" d="M548.08,854.84c-1.14,2.57-20.33.24-22.5.6-.98-.03-2.28-1.04-3.15-.69-3.57,1.42,6.52,8.94.74,22.26-1.01,2.34.27,5.16,1.75,6.32-.77-.39-2.06-.29-2.91-.3.38-7.99-1.76-21.04-1.93-29.37,2.82-1.36,4.41.88,6.26.91l21.74.26Z"/>
          <path class="st33" d="M521.64,851.53c-.74-2.11-1.5-3.33-1.47-5.92,12.84,3.18,25.3,2.58,37.66-1.48-.64,12.5-27.6,8.7-36.18,7.4Z"/>
        </g>
        <g>
          <path class="st67" d="M450.89,807.23c.89.03.84.28-.03.7-.05,1-.77,2.25-.36,3.58,13.23,1.85,31.51,4.76,44.67,5.2-.52,5.29-37.71-2.01-40.59-1.27-4.19-.32-5.71-3.26-6.54-6.78-1.99-.4-1.88-1.19.16-1.44.83.64,1.86.64,2.7.02Z"/>
          <path class="st15" d="M409.08,794.14c6.01,7.02,19.32,7.14,27.02,11.82v1.25c-3.8,2.49-24.62-3.92-27.66-7.73l-1.33-5.81c.55-.25,4.25-.86,1.98.47Z"/>
        </g>
      </g>
    </g>
    <path class="st93" d="M510.75,281.98c3.37,6.56,6.23,13.34,8.59,20.33,4.77,6.72,9.11,13.71,13.02,20.95l8.09,14.72c3.68,4.6,6.91,9.27,8.9,14.86,3.95-.97,4.92.31,5.21,4.08-1.55,1.21-1.89,12.47-.99,12.09,1.8-.77,5.49-12.77,6.3-15.68,5.92-5.08,3.21-23.68,3.25-31.31.02-1.8-.69-3.27,1.13-5.84,1.08,4.62,4.23,6.08,6.5,9.08l10.51,13.96-.94.9-6.58-5.88c-2.09-2.79-3.5-5.9-6.98-8.58,1.49,19.29-2.08,42.07-15.98,53.59l-2.2-12.89c-2.85-.75-3.23,2.71-4.48,3.31-1.58.76-3.19,1.98-4.95,3.55-5.54,5.83-20.64,7.5-14.36.55,3.6-1.95,15.34-6.09,17.4-9.76-.24-1.68.34-3.01,1.75-3.99-5.19-14.07-13.65-26.97-22.46-39.04,2.43,22.82-2.36,44.35-10.4,65.08-1.11,1.5-1.69,3.45-2.17,5.16-4.08,8.47-7.26,4.59-5.46-3.12-7.68,15.5-18.28,27.87-30.93,39.45-1.66,1.52-11.22,7.19-12.7,7.11-1.59-.09-1.76-6.3-.69-7.65,0,0,0-6.98,0-6.98-5.63-11.58-15.72-20.37-21.67-32.02l4.58,20.77c-.78,1.83-.72,4.12.19,6.86-4.97-.7-10.12-7.01-12.6-11.59-12.96,4.07-28.66-.36-39.3-7.27-10.36-.08-2.06-10.63,1.64-2.66,2.04-1.96,7.45.07,7.98,2.78,4.71.38,23.62,6.27,24.5.19-9.07-14.41-14.8-30.99-18.86-47.84l-1.26.29c-17.87,38.32-11.98,36.71-24.24,49.69-1.46,6.47-10.63,26.97-18.99,25.9-.86-1.39-.93-3.02-.22-4.89,9.63-17.4,19.35-34.86,29.08-52.31,9.27-18.6,14.11-38.7,11.83-59.69l1.38.18c6.27,28.71,12.34,63.75,29.01,88.67l-2.15-15.09c2.78-8.89,1.61-30.12,8.62-7.8,6.71,17.63,24.74,31.06,25.75,50.54,23.24-17.5,38.67-44.68,42.37-73.67,6.13-9.55,3.75,16.77,3,19.24,1.94.98,3.12-.49,3.52-4.4-1.2-8.37.19-17.1,3.02-24.88,1.67-35.32-8.74-69.84-30.25-98.06,12.42,7.11,19.93,26.39,24.72,39.05Z"/>
    <g>
      <path class="st37" d="M542.29,570.68c2.99.87,6.55.87,9.27,3.88,4.69,5.19,12.05,8.89,15.67,14.94,3.36,5.62,3.85,12.67,10.24,16.11,3.82,2.05,6.07,5.67,7.2,10.13l15.99-23c2.19-3.15,5.58-3.48,8.93-4.25,2.61-.6,4.82-11.57,14.19-13.42,2.7-.53,5.27.02,8.51-2.04.2,3.07-2.07,2.38-2.39,3.58-1.5,2.09-3.94,3.71-7.33,4.85-2.45,2.75-4.92,4.23-7.41,4.44-1.88,2.74-3.9,6.32-4.92,9.58,5.3,7.92,11.95,14.73,19.97,20.42l-.39,2.23c2.09,2.35,8.43-.98,6.3,4.09.57,1.27,1.92,2.27,1.28,3.77l-3.28.51c-12.35-6.48-21.83-16.94-30.64-27.07-9.34,11.42-17.48,23.63-24.41,36.61-5.53,1.98-6.57-5.35-4.66-9.96,4.63-4.84,5.5-9.27,2.62-13.29-6.71-5.65-13.27-11.36-13.86-20.84-4.9-4.7-10.07-9.08-15.5-13.14l.45-2.65c-1.13-2.09-3.57-2.56-5.75-2.34-2.16-.55-4.13-4-.07-3.13Z"/>
      <path class="st61" d="M595.02,677.84c-.52,5.18-8.85,5.64-13.3,4.07l-1.56,1.39c-2.28-1.38-3.92.54-2.85,2.71-3.99,1.55-1.49,4.76-1.25,12.14-.96.13-2.34.31-2.72-.33-2.9-24.2-6.82-48.36-11.77-72.47l-7.85-22.17c-.45-4.1-.79-12.5,5.26-7.43,4.25,3.56,12.97,40.08,14.56,47.32.93,12.93,5.1,31.25,20.21,32.97l1.28,1.8Z"/>
      <path class="st37" d="M641.22,630.33c-13.38,15.92-42.96,66.28-63.76,50.87-1.17.39-1.63,1.47-2.56,3.9-1.63-1.94-1.6-5.36-.34-7.25,7.18,2.05,13.89,5.82,20.45-.02l.42-2.74c14.79-13.61,28.3-29.69,40-46.1l2.63-1.01,3.1-7.78c1.23,3.4.5,6.55.05,10.13Z"/>
      <path class="st72" d="M548.11,576.16c1.14,2.11,3.84,3.04,5.84,4.83l11.19,10.06c.95,15.34,14.23,17.36,15.46,24.2,1.83,10.1-10.07,10.43-3.01,20.48,3.78-12.49,19.14-29.84,26.51-40.48,7.77,13.11,20.63,24.24,33.28,30.76-.2.46.32,1.46.68,1.99-2.94,7.36-9.07,13.23-14.45,19.58-4.05,4.75-12.53,14.82-16.67,19.35-12.53,15.35-18.91,14.3-30.39-1.4-3.94-7.28-3.47-15.95-5.37-23.8-2.28-10.48-10.47-42.4-14.67-45.61-2.79.22-1.02,8.13,1.9,14.65,8.01,17.71,10.18,40.58,13.19,59.67,1.23,4.99,1.1,23.9,4.45,27.73-.49,4.47,4.55,8.24,3.12,12.54-3.94,1.38-7.66,2.99-10.87,5.11-2.72,1.8,1.17,9.6,5.7,7.1,5.69-2.62,9.1-1.9,10.21,2.16l9.41,37.83-4.77,3.97-15.75,5.27c-7.8,1.62-28.14,9.5-36.07,7.85-3.67-9.07-12.71-31.18-16.12-39.99-.98-2.46-3.13-7.18-2.58-9.85,3.47-16.98,4.22-36.72,2.82-54.13-.72-9,.64-21.05-3.69-27.12,5.65-4.71,17.07-14.07,22.78-18.68,8.38-5.72-.04-13.6-4.25-18.98,6.19-1.91,9.73-9.71,13.94-14.11-1.13-8.26-4.67-15.22-8.97-22.01l7.13,1.05Z"/>
      <path class="st165" d="M569.05,784.99l2.66,13.04c2.8.26,2.86,2.02,2.09,4.3.71,1.49.4,3.24-.92,5.23-5.06,1.58-8.97,3.71-11.72,6.38-9.61,2.38-40.15,6.91-40.23,2.27,2.86-1.33,3.27-2.05,1.22-2.18-.25-14.48-2.25-36.2-1.54-50.49l2.87.51,8.2,19.87c4.09,7.18,17.08,3.17,22.01-1.03,4.2,3.32,13.28-4.15,15.35,2.1Z"/>
      <path class="st130" d="M396.99,790.47c-.84-1.73-3.26-1.9-4.86-3.81,1.86-3.32,7.43-19.89,11.23-21.47,3.49,1.82,6.42,3.97,8.79,6.46l-6.81,16.87c3.81,7.66-4.29,4.91-8.35,1.96Z"/>
      <path class="st8" d="M496.77,814.91c-1.19,2.09-3.55,3.08-5.89,2.8-1.65-.77-51.28-1.87-40.02-9.78,2.42-2.02,37.21,3.25,41.14,2.82,2.81-5.69.9-20.74,5.11-23.5-1.7-.28-.79-2.08.72-2.21.16-2.79,2.47-2.52,3.79-.27.97,1.64-1.98,25.24-2.69,28.93l-2.16,1.21Z"/>
      <path class="st162" d="M580.74,711.9l-.37,2.26c-13.34,3.94-10.6,6.82.53,3.19,1.38,1.01,2.81,6.15,3.32,7.7-2.39-5.81-10.32,2.61-15.63-.74-2.27-1.43-4.09-9.04-1.69-10.09l11.26-4.95c1.14-.5.68-2.58.58-3.38,1.5,1.86,1.17,4.05,1.99,6Z"/>
      <path class="st59" d="M580.74,711.9c3.14,1.45,2.75,4.73,1.55,7.27-4.31.42-13.67,5.62-13.12-3.04l11.57-4.23Z"/>
      <path class="st64" d="M497.11,787.25c-.21,6-1.89,19.66-2.74,25.71-4.81-.88-40.04-2.2-43.51-5.04.97-6.31,0-18.14,4.95-22.4,13.66,4.73,26.74,5.29,39.24,1.69.94-1.15,1.38-1.5,2.06.04Z"/>
      <path class="st5" d="M516.7,765.48c-.57,8.36,1.29,40.97-.85,48.52-3.69.27-15.91-.85-19.08.91l3.23-26.91c.26-1.63.07-3.76-2.18-2.95-1.54.52-.28-4.11,1.57-4.02.87-.84,1.77-1.38,2.68-1.62,3.83-6.83,7.09-13.91,9.77-21.22.93-2.16,2.13-4.24,4.35-2.82l.49,10.12Z"/>
      <path class="st158" d="M498.21,583.7c3.15,2.63,2.24,3.55-2.72,2.79l-2.26,1.33c-1.16,2.07-3.29,3.65-5.08,5.16l-1.69-2.57c-7.95-.38-15.78-.8-23.49-1.26l1.95,11.21-1.73,1.74c-3.34-9.6-5.43-20.77-3.27-30.8,4.79-5.28,12.25-9.35,19.35-6.69.78,6.96,14.28,14.98,18.94,19.1Z"/>
      <path class="st13" d="M437.03,802.82c-1.53,4.76-26.05-5.42-27.95-8.68-.47-5.53,4.68-11.21,5.07-15.45l3.05-3.07c25.35,10.56,29.18-.34,19.82,27.2Z"/>
      <path class="st24" d="M488.15,592.97c-7.45,7.14-12.35,15.27-20.76,21.6-4.35-8.16-5.27-19.67-6.93-28.2,5.81,1.24,23.61,1.95,29.78,2.21-1.05,1.98-2,3.02-2.08,4.39Z"/>
      <path class="st18" d="M520.73,560.08s11.19,9.07,11.19,9.07c5.14,6.87,3.79,24.64,4.16,32.73-1.99.41-3.11-.2-4.27-.87l-.89-2.09c3.33-.66,2.38-17.77,1.52-18.19-.29,1.75-15.88,8.55-14.53,5.81,1.22-2.49,2.7-.02-.02,1.52l-4.85-2.29c-1.83,1.58-3.42,3.11-6.48,1.89,7.24-6.98,12.89-17.12,11.27-27.49,1.55-.39,2.18-.14,2.91-.1Z"/>
      <path class="st99" d="M520.93,816.22c2.74-7.34,28.67-4.79,36.16-6.11-1.09-8.09-4.31-15.32-2.47-23.69,3.6,8.42,3.27,17.6,4.97,26.47-.5,2.37-3.95-.29-5.39-.23-5.87.25-15.43.95-21.63,2.74-4.76,1.37-7.3,1.73-11.64.83Z"/>
      <g>
        <path class="st44" d="M542.36,573.81c1.06-2.8,7.53-.68,5.75,2.34-.43,1.43-1.44,2.06-3.03,1.86,3.37,6,6.33,12.49,6.71,19.45-3.37,5.48-7.44,10.28-12.23,14.39,7.16,7.5,8.02,13.96,2.56,19.38l-21.8,17.89c5.06,26.04,4.5,55.04-.05,81.52,5.38,16.08,11.42,31.93,18.13,47.54,16.14-1.92,33.04-7.42,48.49-12.78l1.98,1.45c-.06,1.36.69,2.34,1.05,3.26l-.61,2.22c-5.91.96-11.01,3.21-15.31,6.75.33,5.77,1.09,11.62,2.27,17.55-1.07,3.28-3.19,4.95-4.56,1.4-2.87-.03-6.08-11.2-2.66-13.04-1.78-.42-2.73-1.78-2.85-4.07-35.85,7.01-30.39,13.27-44.42-21.79-1.83,8.66-1.75,18.74-.7,27.91,4.44-1.63,2.69,22.86,3.01,25.47l-1.94,1.53c1.93,1.55,1.06,2.17-1.22,2.18-6.54-1.36-14.6-1.54-21.31-.97-.92.35-3.15,3.12-3.76.86-1.43-1.31-.94-1.91.91-1.21.32-1.58.99-2.48,2-2.7l15.68-.48c.33-14.97.41-29.98.24-45.05l2-1.19-.42-9.6c-1.53-.07-2.28-1.27-2.23-3.62-3.65,9.95-8.03,19.51-13.16,28.7l-1.49.06c.76,2.32.42,2.27-1.46.85-2.72,14.75-30.75,3.12-40.8,2.19-.38,2.06-1.42,3.07-3.13,3.05,1.64,3.98.43,12.89-2.76,15.83-.7,4.14-4.36,3.63-4.97-.39l4.09-19.27c-10.36-3.64-20.89-6.94-31.61-9.9-1.92,1.46-3.45,3.23-4.59,5.3,3.13.82-2.31,11.56-2.99,13.61l-2.02.92c-.15,3.11-1.41,2.45-2.11.06-1.16.99-1.4.41-.7-1.74-5.17-8.66,16.89-20.76-2.75-26.26l-.53-2.31c.47-.56.64-1.01.82-1.6.2-.68-1.45-2.2-2.06-1.33l-2.15,3.07c.72-2.34-1.22-3.62-2.93-5.04-.24-1,.69-1.52,2.8-1.54l1.84-1.46c26.62,15.38,59.39,23.2,90.2,26.72,22.01-32.65,27.42-75.92,25.16-114.73-.38-8.99-1.26-11.48-9.98-15.6-13.16-3.97-25.55-9.16-37.18-15.57-.97-5.1-.18-10.15,2.38-15.16-4.86,2.03-9.28.52-13.26-4.52-7.89-3.36-8.93-12.52-8.78-20.55-3.08-5.51-12.67-7.77-18.8-8.39-1.75,3.65-4,5.25-6.76,4.79-2.3.68-2.67.39-2.2-2.02-2.15,0-3.65-2.05-3.29-4.14l.89-1.02c2.6.94,4.98.99,7.15.17,6.1-11.47,20.65-14.01,32.24-11.24,2.85,2.87,3.11,10.07.95,13.07l3.11,15.23,2.28,1.25,2.45,7.54c2.63-1.35,4.93-3.37,6.89-6.06l3-.6c.74-2.16,4.72,5.3,5.91,6.38-3.92,10.98-7.89,21.21-7.53,20.39,11.46,4.79,23.01,9.63,34.65,14.51-8.65-17.22-16.78-6.58-19.7-19.5-.74-2.67-1.06-10.4,2.6-9.98,2.69,2.33,4.27,5.69,4.72,10.08,2.34.83,4.94,1.05,7.79.64l.9,4.36c2.17-.3,3.97,1.12,5.41,4.24l2.46-2.06c-3.1-6.5,7.11-4.07,4.46,1.35,0,0-1.79,7.65-1.79,7.65,7.07-6.15,14.09-12.4,21.05-18.75-4.27-5.16-7.94-10.66-10.99-16.51-2.68-2.14-.12-9.51,3.06-4.68l.99-1.34c1.02-.14,2.24-.15,3.66-.01.36-7.68.05-15.3-.92-22.84-2.56-.04-3.22-3.97-.78-5.19.67-1.77,1.56-1.68,2.86-.63,1.89-.39,3.8.1,5.73,1.47Z"/>
        <g>
          <path class="st173" d="M451.24,802.95c2.86.68,2.53,3.79-.35,4.28-.94,3.19-1.94,3.17-2.7-.02-.41,1.02-5.41-.7-5.14-.72,1.11-.07,4.6.97,4.98,2.17,1.84-.49,2.01.23.38,1.33-9.72,1.43-11.15-3.5-12.3-2.77-1.95.21-1.95-.61-.01-1.25-1.96-1.46-1.56-2.74.93-3.14l-1.59-1.64,4.56-15.97c-7.3-2.55-14.72-4.93-22.27-7.14-1.16,1.23-1.96,1.63-3.58.62.15-2.58,2.19-4.62,3.37-7.8,11.49,4.43,23.57,5.84,35.22,10.79l-4.7,22.15c1.53.48,2.39-.32,3.2-.88Z"/>
          <path class="st88" d="M407.05,793.28c-3.49,1.87-8.24.93-10.05-2.81,4.85.51,10.09,4.42,8.88,1.08-.61-1.69-3.33-2.51-2.85-3.02,1.65-.35,7.34-14.95,8.13-16.4-3.33-1.52-5.64-2.9-8-5.17-1.53.62-2.38,1.25-3.18,1.89.89-2.03,1.67-4.18,3.09-5.86,3.55,1.51,7.28,2.65,10.75,5.47-1.79,4.75-1.54,15.88-7.74,17.52l.98,7.31Z"/>
          <path class="st105" d="M483.22,612.12c.28-.01.48-.1.63-.17.33,1.71,1.99,1.62,3.19,2.2.89-.97,3.14-.77,4.34-.42,1.19-1.53,3.9-2.3,3.3.49-2.63,3.53-2.46,13.31.32,16.27,1.42,1.25,3.7,1.36,5.79,1.7,5.14.55,12.38,12.33,14.16,17.22l-31.25-13.18c-2.82-1.19-8.87-1.43-9.43-5.27,1.68-2.52,4.91-19.03,8.95-18.84Z"/>
          <path class="st48" d="M517.76,629.92c10.05-3.44,3.84-13.28,4.56-16,.68-2.53,3.5-3.19,5.45-6.9,1.12-.3,2.72-.09,2.9.71l.66,2.86c3.67,4.02,7.13,8.12,9.15,13.38-7.05,8.6-16.54,13.91-23.45,22.28-4.33-3.59,1.41-8.51.74-16.34Z"/>
          <path class="st86" d="M569.05,784.99c-4.04-1.34-8.82.02-12.8,1.88l-1.94-2.98c-2.29,4.89-6.88,4.3-11.17,5.38-5.36,1.36-11.13.72-13.49-5.02l-8.34-20.25-.22,23.04c-1.32-.64-1.19-2.33-1.14-3.96.36-10.64-1.55-20.3.78-31.14,4.85,9.48,9.02,22.31,13.7,31.67,6.2,2.07,13.71-1.15,19.84-2.13,4.24-.92,8.51-1.12,12.75-3.35,1.7,2.67,1.59,4.69,2.03,6.86Z"/>
          <path class="st170" d="M497.94,781.88c.06,1.38-.19,4.13-.83,5.37-9.76,7.61-28.32,3.79-43.1-.14.5-1.43.97-4.74,2.88-5.39,12.31,3.23,25.14,6.3,37.85,5.07l3.2-4.91Z"/>
          <path class="st19" d="M516.7,765.48c0-2.75-1.58-5.82-.82-9.61-3.05,2.66-2.76,6.42-4.46,9.64l-6.85,12.97c-.86,2.43-2.5,4.1-5.17,2.53,4.61-9.76,13.09-29.71,16.91-39.81,1.41,4.17-.89,7.17-.28,10.75.8,4.67,1.77,9.16.66,13.52Z"/>
          <path class="st110" d="M546.69,596.25c-.83,3.07-5.42,3.25-6.18,4.65-.37.68,1.74,2.78-1.4,3.44-.06-9.67-.54-18.46-2.04-28.89,4.34,4.44,9.98,19.45,9.62,20.79Z"/>
          <path class="st89" d="M462.09,610.96c-6.41-.13-7.54-11.05-6.84-19.83,3.79.65,5.64,17.2,6.84,19.83Z"/>
        </g>
      </g>
      <path class="st158" d="M479.01,604.39l-1.19-.18c1.02-3.13,6.41-8.01,9.19-10.29-.64,4.28-6.87,6.65-8,10.46Z"/>
      <path class="st73" d="M388.24,604.96c3.27,4.64-5.39,11.3-7.53,14.74,0,0-12.44,11.19-12.44,11.19-3.54,1.34-4.58-.78-4.9-4.13,7.29-5.44,14.09-11.38,20.39-17.84l1.3.08c.88-1.22.31-4.58,3.19-4.05Z"/>
      <path class="st62" d="M385.05,609.01c-9.85,13.73-28.96,21.02-16.79,21.88-1.14,1.03-2.13.87-3.17,1.2-2.42-2.35-1.68-6.54-6.11-7.14l-.16-.92c9.49-4.46,17.95-10.03,25.25-17.4,0,.96.02,2.02.99,2.37Z"/>
      <path class="st160" d="M611.11,592.96c2.41,6.67,13.72,17.12,19.84,20.3,2.89-2.38,2.32,1.29,3.95,2.67.74,3.21-2.77,4.35-5.1,2.19-6.32-4.97-29.63-24.81-18.7-25.17Z"/>
      <path class="st132" d="M634.01,614.72c-1.73.76-2.21-1.02-3.05-1.46,1.58.11,1.92-1.54,2.5-2.52,1.48-2.35,5.29,1.64,2.95,3.03,0,0-2.4.95-2.4.95Z"/>
      <path class="st132" d="M634.99,619.14c-2.08,1.37-4.04.89-5.17-1.01,2.28.97,4.4.33,5.1-2.19,1.6.55.56,2.26.08,3.21Z"/>
      <path class="st119" d="M437.03,802.82c-.3.97.12,2.33-.93,3.14-4.92-1.4-28.22-5.22-27.02-11.82,8.71,3.2,18.64,9.08,27.95,8.68Z"/>
      <path class="st107" d="M448.2,807.21c-.07.45-.28,1.01-.16,1.44-13.53-.1-10.39-8.35.16-1.44Z"/>
      <g>
        <path class="st146" d="M591.84,775.09l5.46,16.55c1.4,3.63,1.24,6.97-3.05,8.66,0,0-7.37,3.76-7.37,3.76,0,0-12.86-.08-12.86-.08-1.34-3.91.97-5.9,6.93-5.99-1.75-6.28-3.37-12.55-4.83-18.81,2.8-3.56,12.65-9.45,15.72-4.09Z"/>
        <path class="st97" d="M589.92,770.12l1.92,4.97c-3.63-2.24-10.32,2.55-13.78,3.94-.51,3.93,2,6.64,2.8,9.98l2.64,11.04-7.85.72c-1.16.11-.52,3.19.23,3,4.07-1.03,7.8-1.31,11,.3-3.33,1.7-7.74.44-12.1.72-2.67,6.83-8.4,5.81-13.63,9.17-.19-.53-.39-1.76,0-2.31.03-.05,6.76-3.67,11.5-4.24.4-3.51-.35-6.41-.95-9.36,1.68.45,2.75-.06,2.57-2.02,0,0-2.56-15.1-2.56-15.1-.96-5.68,10.24-8.79,18.21-10.79Z"/>
        <path class="st101" d="M586.71,801.15l-2.06.54c-.34.09-1.04-1.54-.68-2l11.96-6.51c1.99-.3,1.35,2.75-.34,3.44,0,0-8.89,4.53-8.89,4.53Z"/>
      </g>
      <path class="st136" d="M530.93,598.93l-13.04-10.86-.77-2.65c8.84-.74,11.78-5.92,16.9-7.57,1.56,7.98.96,15.12.86,23.31-1.09-1.71-3.09-1.51-3.94-2.22Z"/>
      <path class="st56" d="M493.24,587.81c.86-1.54,2.08-2.9,5.25-1.73.18-.84-.09-1.57-.28-2.39,1.45,1.14,4.17,1.59,5.35,3.77.44.82-1.88,2.23-3.11,1.09-2.17-2-4.87-1.7-7.21-.76Z"/>
      <g>
        <path class="st66" d="M517.76,629.92c-.71.86-2.54,1.63-2.73,3.37-3.55-.47-5.46-3.72-5.73-9.75.55,3.82-.16,6.34-2.13,7.57l-1.81-3.08c-3.1,1.56-6.99,1.16-9-1.16.39-4.83-3.42-6.94-2.61-10.84-1.3-2.8-4.22-2.5-6.71-1.87-1.74,3.04-5.78.42-3.19-2.2.99.19,1.91-.59,1.39-1.4-4.35-5.76-.9-7.67,3.83-10.24,1.58-.96.59-4.64,2.02-5.39,2.75,3.23,5.66.13,2.77-2.81,2.2-3.1,6.09-1.07,6.46,3.06,4.59-6,4.97-3.82,10.4-1.02,2.85-7.02,11.17-1.3,12.4,5.31.72-.02,1.7-.04,2.31.14,1.76,4.16-.62,8.46-5.11,9.7-2.57,11.44,6.56,12.02-2.58,20.63Z"/>
        <path class="st95" d="M515.03,633.29c-.23,2.06-.73,4.32-2.64,5.71-1.61-3.25-3.76-5.4-5.22-7.9l.21-27.25,5,24.86c.34,1.69,2.59,2.96,2.65,4.57Z"/>
        <path class="st139" d="M491.1,594.92c1.33-.7,2.15-1.6,2.77-2.81,1.33.11,2.62-.12,4.47,1.16-1.35,2.95-3.44,5.07-6.6,7-.8-2-.57-3.64-.63-5.34Z"/>
        <path class="st167" d="M503.61,624.94c-.96,1.33-5.02,1.34-6.2.56-.87-8.99-.62-19.5,6.15-21.55l.05,20.99Z"/>
        <path class="st116" d="M491.38,613.73c-1.56,1.65-2.65,1.73-4.34.42.43-2.3,3.75-2.8,4.34-.42Z"/>
      </g>
      <g>
        <path class="st70" d="M424.34,592.06c.64,1.74-.46,3.74-3.3,6-2.21,9.2-5.83,17.64-10.84,25.32,1.9,7.3,22.9,14.66,11.68,19.4,1.07,4.2,2.29,10.51-3.67,8.04-7.38-14.05-15.22-27.46-24.86-40.01-7.47,12.42-18.82,22.61-31.41,29.64,35.73,62.9,59.35,59.49,83.5-8.56.55-1.61,1.93-2.81,3.7-2.43,8.68,1.87-2.32,22.82-5,26.88l-2.42.35c-2.26,10.35-7.21,19.62-14.84,27.81-1.63,11.8-6.64,25.5-15.09,34.03l1.39,1.83s-4.94,10.86-14.82,32.58c1.17,1.06,1.55,2.25,1.17,3.58,1.3,3.23-1.63,1.23-2.8,1.54-3.49-2.12-4.42-5.14-2.47-8.82.73-3.79,29.66-59.04,25.34-61.75-24.09,17.61-43.77-18.73-56.6-34.49-5.41-7.03-12.53-17.68-7.99-20.18-1.08,2.59,1.63,2.39,3.25,1.38,0,0,6.82-2.12,6.82-2.12-.17-.8.89-1.2,3.17-1.2l-.51-2.23c6.7-6.29,18.26-14.51,20.49-23.71,1.6-.01,2.37-.94,1.81-2.11-.53-1.09-2.74-1.27-3.43-1.89.48-3.6,6-1.67,8.33-.03l11.15,15.81c3.47-5.89,8.34-36.12,18.25-24.67Z"/>
        <path class="st20" d="M399.53,756.53c-1.31-.45-3.73-2.6-2.97-4.21,0,0,8.23-17.4,8.23-17.4,0,0,7-16.38,7-16.38,6.6-7.31,11.44-16.34,14.54-27.11,10.48-15.32,13.96-34.29,23.12-50,1.93-3.81.14-12.13-1.52-10.01-2.43,9.72-16.9,42.79-30.34,52.17-23.98,19.15-46.96-28.23-58.81-44.65,14.83-5.76,26.26-17.78,33.89-31.33,2.87,1.47,3.48,3.76,4.96,5.84l10.73,15.13c2.46,4.97,9.2,17.04,12.01,22,1.31-4.74-1.22-7.76-2.46-11.76l5.33,2.36c.49-6.42-8.81-5.65-15.48-17.7,5.63-6.83,8.67-17.55,11.22-25.68,2.69-4.62,8.32-7.82,11.32-12.26,5.23-.93,12.75,2.6,17.33,4.8,8.08,3.57,1.55,11.14,7.43,21.3,10.77,5.04,6.31,10.66,20.37,6.26-2.5,5.84-5.17,10.78-4.29,16.96,19.26,13.07,52.88,9.79,47.47,37.08-.75,22.2,1.39,51.41-7.71,72.06-4.48,9.45-10.95,32.16-18.64,39.5-32.09-2.27-64.5-11.93-92.73-27Z"/>
        <path class="st80" d="M411.79,718.54l9.93-19.68c3.31-7.38,1.26-16.32,8.18-21.83,0,0,6.92-9.04,6.92-9.04l4.89-11.29c-.44,8.22-2.56,15.82-6.91,23.18-6.46,10.92-11.34,22.18-16.08,33.84-1.09,2.68-5.18,3.91-6.94,4.81Z"/>
        <path class="st175" d="M512.24,669.78c-7.29,1.9-8.44-10.5-1.42-10.49,4.89.97,5.8,8.29,1.42,10.49Z"/>
        <path class="st134" d="M513.79,711.14c-.28,6.92-9.03,6.57-7.9-.18-.99-7.37,9.46-8.01,7.9.18Z"/>
        <g>
          <path class="st108" d="M465.48,718.61c3.94.98.54,11-3.81,10.95-13.51-.14-26.12-3.66-38.5-8.87-3.16-2.65.6-8.5,2.28-11.12,3.36-1.61,6.93.78,10.25,1.61l29.78,7.43Z"/>
          <path class="st75" d="M461.25,726.59c-5.66-.65-44.48-4.33-33.19-13.9,0,0,34.79,7.41,34.79,7.41.74,1.89.31,4.19-1.61,6.48Z"/>
        </g>
      </g>
    </g>
    <g>
      <path class="st16" d="M641.22,630.33c-1.12-1.95-2.17-2.74-3.15-2.36-2.73.78-3.1-.43-.68-1.99-4.24-3.85-2.25-5.59-2.48-10.05-4.84,2.03,3.1-3.03-3.95-2.67-.53.57-1.14,1.07-1.92,1.22-1.68-.19-23.6-18.51-17.93-21.53-2.61-1.97,1.85-7.35,4.04-7.06,3,3.92-1.74,8.1,5.77,12.47l-.04,2.73c11.75,6.2,32.64,11.05,45.37,5.96l2.42.94.62-1.95c-1.3-2.11-.1-2.46,3.6-1.06l3.21-1.24-.75-1.1c1.64-1.57,2.89-3.47,3.74-5.7-2.96-.41-5.99-.64-9.08-.7-.42-.72-.19-2.43-.03-3.2-6.86,2.34-6.65-3.02-11.5-2.63-1.44,2.32-2.26.48-2.46-5.5-.85,2.74-3.08,1.98-3.03-.85-6.79-2.46-8.49-4.17-5.1-5.14l2.77-4.91c-6.07,2.04-12.32,3.48-18.76,4.32l-2.01-1.74-.37-1.12c-2.76,1.07-4.68.93-5.76-.42,1.2-1.18,3.23-1.95,5.23-1.94,13.98.04,22.39-8.51,26.49-1.13,1.38,2.49.25,5.25-2.33,8.27,9.89,4.2,21.1,1.71,28.83,10.98,5.57,8.96-2.55,14.48-9.53,18.2-8.34,8.32-22.3,4.81-32.6,3.43,2.26,5.4,6.3,12.48,1.35,17.47Z"/>
      <path class="st145" d="M583.94,457.99c2.65,4.16-6.35,8.84-6.9,13.48-1.26,4.92,8.65,4.39,11.3,3.78,11.34,4.46,23.72-2.46,25.03-15,7.56-6.85.61,35.84-2.1,38.08l2.06-9.85c-18.14-1.02-32.48,9.82-51.16-2.75-2.25-10.31-11.6-15.96-3.59-20.46-1.26-2.07-2.82-1.36-3.72-2.12l.77-1.06c10.5.93,19.73-3.35,25.17-12.44l2.33.21,1.54,2.38c-2.7,3.21-2.94,5.13-.74,5.76Z"/>
      <path class="st127" d="M637.04,434.1c7.35,11.04,6.78,24.07-1.38,34.84-4.79,4.15-9.01,10.02-15.63,10.73,1.92-9.06-.55-14.84,3.82-14.57,5.8-2.31,6.67-5,7.19-10.36l2.15-.55-1.15-16.47c-4.71-7.78-.78-10.01,5-3.62Z"/>
      <path class="st87" d="M614.98,489.03l-.88.13c-.25-4.06.56-8.42,1.96-12.16l-1.08,12.03Z"/>
      <path class="st87" d="M616.06,476.28l-.61-16.5c-.82,11.07-9.49,18.48-20.27,19.12-7.41-3.49-13.19.58-17.21-2.35-1.56-1.37-4.15-4.05-2.29-6.76,3.88-3.15-1.27-2.98-2.5-4.42-.28-1.33,1.41-3.45,2.8-1.43.93,1.15,2.91,1.01,3.72-.15,5.34-9.97,18.74-11.42,25.1-20.61-2-3.18-.06-7.7,3.38-5.25-.26,1.25-.77,2.53.11,4.41l9.64-7.59c-.35.17.09,43.37-1.87,41.51Z"/>
      <path class="st10" d="M573.73,334.23c13.15,16.87,23.82,38.61,31.12,58.99.81,2.16,4.48,8,2.32,10.05-3.18-7.21-9.18-10.51-12.94-15.34,1.22-1.68,2.17-1.25,3.48,0,.67-2-20.94-42.22-27.72-42.54-1.4,11.91-5.26,22.29-11.58,31.14l-.19,2.43c-9.26,1.25-16.97,6.23-24.13,12.01-.04-.43.47-1.13-.55-2.1-.75,1-1.85,2.49-3.73,1.86,2.51-5.14,7.63-9.1,12.95-10.74,2.92,3.39,7.21.62,5.82-3.42,0,0-1.61-7.74-1.61-7.74l-2.89.84c-2.24-3.17,2.32-6.64,5.62-4.6,1.21,11.27,2.89,13.65,8.91,1.96,6.32-12.26,7.43-26.78,6.8-40.36,1.57-5.38,9.8,4.62,8.32,7.58Z"/>
      <path class="st157" d="M608.18,437.94c-4.21,1.75-1.96,6.05,2.35,5.44-1.32,3.49-2.88,1.84-4.43,1.68-3.6,4.83-8.26,7.65-14.06,8.69-1.56,3.73-4.91,4.89-8.1,4.22l-.24-2.78c8.66-5.38,15.93-13.62,15.24-24.37l1.91-1.79c5.3-.91,5.42-6.59,8.75-11.17.92,6.36.6,14.36-1.42,20.07Z"/>
      <path class="st84" d="M637.04,434.1c-1.04.77-2.59-.61-3.44-2.13-1.3-1.49-2.45.36-1.58,1.58,4.8,6.34,2.27,13.57,1.18,20.63-2.73-.18-3.06-4.6-1.03-5.86-1.08-4.19-5.68-5.3-10.16-4.12l-.08-11.34c1.4-10.13,12.75-5.06,15.11,1.23Z"/>
      <path class="st152" d="M631.81,446.87c3.59,6.18.13,17.35-7.95,18.23,1.81-2.09,5.77-3.25,6.17-7.23-2.85,1.92-4.1,4.86-8.55,5.17l1.11-16.39c2.24-1.48,6.58.51,8.27,2.62,1.17-.21,1.26-1.87.95-2.41Z"/>
      <path class="st168" d="M662.14,591.37c7.53.86,14.96-2.94,17.34,2.48-4.01,0-6.86.18-9.78,1.25l-.49,1.1c3.34.11,6.64.35,9.89.75,4.13,5.09-5.81,8.16-9.47,8.68l-.94,2.37c-9.78,6.84-38.97,1.36-47.8-6.9,2.43-.36,4.84.65,6.31,2.6s9.39,1,14.84,1.41l11.99.91c-1.34-4.06-.05-8.73.82-12.3,1.31.55,2.02-.73,2.13-3.82,2.03.13,3.76.62,5.18,1.46Z"/>
      <path class="st85" d="M662.14,591.37l-4.13-.47c-.52,3.63-1.06,6.39-2.6,9.18l-.57-6.35c.68-2.8,1.58-5.82,1.2-8.82l14.72,2.93c-4.17,2.01-8.08,1.37-12.33.1-1.95-.58-2.03,2.67.28,1.85,1.98-.71,3.43.45,3.45,1.58Z"/>
      <path class="st43" d="M676.12,603.76c-1.57,1.2-2.97,2.34-5.53,1.62-.53.95-1.11,2.15-1.9,2.63,1.1-8.12-7.97-.42-14.01-4.94,13.5-5.41,16.01,3.79,21.45.69Z"/>
      <path class="st149" d="M669.71,595.1c1.28.03,2.96,1.54,5.39.77,1.6-.51,3.17.32,4,1.07l-8.93.32c-3.9.09-8.25,1.8-11.66-1.11,3.95-1.42,8.03-1.12,11.19-1.05Z"/>
      <path class="st148" d="M396.93,499.14c.14-.89.44-.89.89-.06,4.73,2.25,9.2,2.57,13.96,2.57,1,.7,2.26.98,3.79.84,11.77,22.24-1.1,15.89-34.57,28.44,3.2,4.08,5.39,8.26,6.57,12.54l-1.33,1.15c-2.13-.31-3.9-.16-5.32.43-3.66-1.62-13.88-12.3-16.83-15.18,1.09,4.42,1.33,6.04-3.04,7.21-1.1-.9-1.17-2.07-.21-3.49-2.8.08-4.26-1.63-4.2-4.43-3.92,7.1-10.34,1.22-4.97-1.26,2.23-5.04-14.32-18.43-12.28-21.82l-2.54.74c-4.95-4.08-10.39-7.78-16.32-11.1-2.17-.43-3.38-1.36-3.63-2.79-9.46.98-8.38-7.52-4.03-13.25,11.75,11.96,29.08,27.27,44.87,32.53,4.64-.39,7.01.55,7.09,2.83,2.49.85,3.72.47,3.7-1.14-4.2-3.45-7.44-7.81-9.72-13.08-4.43-.11-10.39-20.59-11.62-25.24l1.71-2.42c-.33-1.14-.2-1.99.41-2.56,3.59,3.07,4.33,7.26,5.68,11.82.9,1.79,3.08,3.54,3.49,6.32.68,4.64,5.64,7.01,8.16,10.55s5.38,7.25,10.23,6.34,8.73-5.87,14.78-4.21c2.24.61,4.9-.1,5.29-2.29Z"/>
      <path class="st124" d="M408.03,551.79c-5.18,5.78-15.17-9.66-18.6-2.61l-3.75-1.04-4.75-3.07c.1-1-.4-1.59.19-3.47,1.7.58,2.95,1.76,5.28,1.24-3.1-4.24-7.41-11.38-9.92-15.78,6.26,3.97,16.37-1.87,22.42-3.17,4.08-1.36,10.73-3.68,14.97-5.02,5.58-2.07,4.3-5.83,2.37-10.18-.68-3.59-.4-5.26-5.39-4.79.61-1.51,1.29-3.19,2.27-4.6,8.34-1.41,12.59-3.57,18.84-8.66.58-.47,1.33-.18,1.99.4-1.37,2.6-1.95,5.22-.33,8.45,9.65,18.61-11.16,33.69-27.88,37.2-4.8,1.15-10.04.08-14.89,2.58,4.32,7.26,12.73,7.75,17.17,12.53Z"/>
      <path class="st53" d="M310.93,497.04c-.16.74-.48,1-.98.78l-.49,9.92c.7.11,1.25.26,1.34.54,3.94,13.78,14.15,19.18,27.7,21.6-.03-.49,0-.96.2-1.32,1-.12,11.76-.33,11.11,2.36,6.23.56,4.29-6.38,7.55-4.94,2.38,1.06.23,5.8,2.59,5.57,16.13,2.28-26.3,26.03-51.31-7.11-10.09-12.84-5.47-41.78,2.31-27.41Z"/>
      <path class="st27" d="M335.29,509.11c.43,1.78-1.59,3.37-3.27,2.96l.26,1.2c-1.87,3.04-3.26,6.25-4.17,9.64,2.58,1.97,5.44,3.32,8.55,4.04l1.77,1.96c.89.23.89.56.05.98-16.75,1.79-35.08-14.35-28.54-32.06.62,3.73,1.27,5.16,1.98,4.28.33-7.03,6.87-9.54,12.73-3.96,0,0,12.62,8.21,12.62,8.21l-1.99,2.76Z"/>
      <path class="st176" d="M514.03,557.98c.66,12.89,2.67,17.75-9.18,26.41-5.15-3.44-30.35-18.48-18.23-23.6,4.66-.81,24.58-5.4,27.41-2.81Z"/>
      <path class="st117" d="M339.4,506.1c2.16,2.41-2.07,4.36-4.11,3.01,2.06-2.07-.58-2.65-1.95-3.44-4.87-2.54-11.77-9.96-18.49-9.61,1.09-.69,1.92-1.81,2.06-3.12,4.42.18,18.51,11.08,22.49,13.15Z"/>
      <path class="st79" d="M311.93,502.1c.56,1.55.09,4.25-.27,5.88l-1.48.03-.22-10.19c0-.37.66-.79.98-.78-.25,2.04.39,3.39.99,5.06Z"/>
      <g>
        <path class="st55" d="M382.12,599.78l1.32,6.47c-8.38,9.95-37.83,30.85-48.98,19.32l13.8-5.19c-5.93-1.56-12.57.33-16.62,5.51-3.88.36-14.63-2.49-7.62-6.84l.29-1.27c5.68-.58,11.21-1.71,16.6-3.4l.87.53c1.75-.91,2.86-1.99.13-2.21-1.56-2.16-1.72-3.83-.49-4.98l-.7-1.59c-7.79-.64,5.66-7,6.85-9.72-3.62-1.17-8.92-.71-7.3-5.21,3.33-3.08,8.78-.38,12.66-.58,11-.7,23.52-3.01,29.18,9.14Z"/>
        <path class="st17" d="M341.78,614.93l-6.93,2.75-10.83,1.38c-.5-.28-1.37-.8-1.97-.64,3.63-5.17,12.89-1.4,20.71-5.79.35,1.55-.66,1.93-.99,2.3Z"/>
        <path class="st83" d="M384.06,606.64c-4.88,8.23-16.8,13.77-25.08,18.32,0,0-1.99.31-1.99.31-1.82-2.1,7.09-3.45,16.61-10.72,2.19-1.51,4.16-1.82,5.25-5.04l3.97-3.47-.7-6.26c1.09,2.1,1.93,4.34,1.95,6.86Z"/>
        <path class="st113" d="M372.7,597.19c-7.84,2.25-13.4,5-19.31,11.47,1.69-8.3,10.2-14.74,19.31-11.47Z"/>
      </g>
      <path class="st112" d="M376.26,472.28c3.52,9.52,8.57,17.25,16.38,23.65-.19,1.07.31,1.86,1.23,2.56-2.62,2.33-5.44,1-8.45.31-13.52-3.1-13.71-11.95-18.67-11.56-.49.04-.56-1.83-.07-1.94.4-.09,1.44.18,1.78.2-.37-1.48,0-2.85.61-4.18-1.8-5.28-.39-12.91,4.57-15.47l2.62,6.43Z"/>
      <path class="st22" d="M354.9,416.09c.86,1.89,2.24,15.68,4.96,16.08-1.04,1.3-3.22.87-5.06-.36-6.77,12.97-7.16,28.3-5.9,41.36-2.9-10.55-3.79-21.66-2.79-33.31l5.97-28.66c1.96-3.56,2.84,2.31,2.82,4.89Z"/>
      <g>
        <path class="st42" d="M542.17,364c1.61,1.9.19,3.06-1.58,4.34-11.05,4.61-26.07,13.6-4.29,4.56,3.06-3.5,5.65-4.58,7.79-3.25,1.12-.97,2.3-1.67,3.56-2.1.58,4.28,1.6,8.22,3.07,11.84-2.08,1.66-6.87,5-8.3,2.38-2.96,1.56-5.69,3.55-8.17,5.95,1.71.66,1.02,2.03-.16,3.23.44,1.7-.1,3.25-1.6,4.65,1.87,2.44,1.62,5.37-.75,8.79,2.11.15,3.07,1.11,2.87,2.85-1.54,15.79-.35,34.89,10.22,47.25l.06,1.72c2.19.72,8.24,3.94,9.05,6.13,1.03-1.14,1.61-.69.94.79,3.1.02,4.84.86,5.22,2.53-3.54,3.23-2.71,8.17,2.47,14.82.65,5.26,5.46,6.59,10.39,7.93,13.4,4.69,27.18-3.39,40.36-1.91.19,34.19-65.67,57.59-94.26,66.44-10.44,4.69-25.59,9.56-36.9,6.43-24.84,1.98-50.09,2.4-73.52-5.28l-.61-2.32c-59.33-26.84,44.32-2.62,22.64-55.53.64-1.89,1.74-3.63,3.28-5.23-1.41-2.11.89-6.97,3.11-7.62,5.93-34.37-24.74-59.1-4.37-53.07-1.4-.74-1.47-1.67-.79-3.19-1.55-.66-2.41-1.55-2.6-2.68,5.07-1.27,1.68-3.29-1.71-4.87-9.18-4.29-27.06-4.25-36.53-.26l-1.69,2.67c-21.37,7.76-33.41,28.65-33.73,50.8,2.78,1.69,5.51,3.57,8.19,5.65l.26,2.43c3.33,1.6,4.79,3.14,4.36,4.62-1.33,1.13-.53,1.37.99.28,5.67,6.9,12.67,10.91,21,12.04l2.18-1.89c2.23-1.94,5.49.38,4.3,3.21,3.38,2.88-.93,4.01-4.07,4.48-4.54-.92-9.08.21-13.6,3.4-20.37,5.75-37.76-48.17-30.72-63.89,1.86-7.63,3.96-15.96,11.32-10.97-.96-1.74-.4-2.24,1.19-1.06,1.77-3.84,3.79-5.59,6.08-5.26,6.08-8.74,11.95-17.65,17.62-26.71,2.56-1.5,5.03-1.9,7.39-1.18,4.2-1.88,13.6,3.44,17.63,4.59l1.21,2.53c6.32,1.21,12.68.34,18.94-.79,2.07,3.51,7.5,12.17,12.29,10.91-1.85-4.54-1.53-10.46,4.68-9.88,3.89.36,11.1,10.89,12.2,14.69,2.42.38,2.45,6.39,0,6.98-.92,1.38-1.01,6.91.4,7.4,1.01.35,13.34-5.67,14.43-7.95,0,0,9.03-9.59,27.1-28.77,3.67-1.16,6.29-3.32,7.86-6.47-2.93-1.23-.81-6.52,2.17-5.16,4.88-14.39,9.21-28.99,12.99-43.8,4.28-11.3,19.07,17.46,19.78,19.05,0,0-1.65,2.71-1.65,2.71Z"/>
        <g>
          <path class="st148" d="M408.03,551.79l8.83,2.98c3.17-.23,4.01,1.9,5.75,2.39,16.67,5.09,42.56,1.13,59.55,2.22l-.74.89c-30.23.89-68.92,3.56-95.75-12.14,2.63.76,4.08-2.5,5.38-3.66,3.32.17,6.49,3.65,9.33,4.98,2.64,1.24,5.39,1.57,7.63,2.33Z"/>
          <path class="st6" d="M519.05,552.95c-1.54,2.24-6.42.91-5.02,5.03-9.5,1.79-18.9,3.83-29.16,4.78-1.22.76-.95,4.26-.76,5.25-1.83-1.7-2.04-4.42-.04-6.93l-15.08-.09c.83-1.17,3.15-1.35,4.87-1.02,15.59-.22,30-3.83,45.19-7.02Z"/>
          <path class="st52" d="M542.17,364c.39-2.49-1.65-4.09-2.92-6.31l-5.07-8.86c-.87-1.52-6.7-7.82-6.71-7.81-.49.14-1.35,1.15-1.57,1.94-.71,4.19-6.55,20.33-6.27,24.28-5.65,2.58-3.43,11.83-8.58,18.8,7.23-24.78,10.73-44.77,7.91-71.58,11.14,14.11,20.4,28.45,26.75,44.88.94,2.44-2.56,3.55-3.55,4.67Z"/>
          <path class="st35" d="M508.89,391.2c-.57,2-2.11,6.4-4.12,7.01-6.59,1.98-7.7,7.67-12.29,12.27-7.75,6.41-16.84,20.63-26.8,23.14-1.61.31-4.03.05-5.97,1.64-2.53-1.1-2.4-6.55-.61-8.27,0,2.16-.72,4.24.81,7.05,21.27-13.6,36.25-32.9,46.18-56.83,1.81,6.31-2.06,11.48-.97,18l3.77-4Z"/>
          <path class="st128" d="M518,520.15c-.27,3.97-4.76-.23-11.16,3.68-2.05,1.25-4,.2-5.11-1.14.93-1.11.66-2.6-.81-4.45-2.6-22.45,25.82-18.57,16.24,1.17l.83.75Z"/>
          <path class="st109" d="M459.1,420.01c-2.12-1.53-2.64-4.44-4.41-6.89l-8.33-6.18c-2.2,1.56-3.52,1.57-5,4.05,1.85,1.22,1.83,6.21-.42,5.98-3.34-.58-5.3-5.18-8.2-6.6-2.15-1.05-3.12-2.59-3.18-5.47-6.23,1.11-12.89,2.25-18.59.2,6.25-.06,12.68.65,18.88-1.94,3.55,4.73,6.82,9.22,12.09,12.33-3.68-12.01-6.83-22.53-7.03-34.92,3.62,6.97,23.36,32.07,24.18,39.46Z"/>
          <path class="st22" d="M390.3,396.76l1.84,1.2c-8.55-2.05-16.67,25.08-24.5,29.69-2.75-1.27-4.82,2.05-6.6,3.46,4.47-11.25,12.8-20.34,17.97-31.61.59.02.93-.19,1.04-.29,2.85-4.71,5.57-4.14,10.24-2.45Z"/>
          <path class="st91" d="M518,520.15c-.8.57-1.65,1.58-3.34.59,5.6-5.15,3.19-14.23-3.37-16.68-6.78-.28-14.59,13.34-4.69,18.33-2.28,1.11-3.52.33-4.87.29-7.37-7.91,1.58-25.17,12.61-21,7.2,3,8.99,13.99,3.65,18.47Z"/>
        </g>
      </g>
      <path class="st141" d="M600.85,429.04c1.23,5.82-1.19,10.99-3.77,16.17-3.13,6.99-10.46,8.8-13.14,12.78l-6.76,2.17c1.19-5.12,5.44-4.96,5.95-10.31,7.95-11.63,6.01-22.38,4.98-35.86,4.48,1.17,6.53,3.83,9.83,6.26.95.7,2.96.7,2.95,2.77l-.04,6.02Z"/>
      <path class="st47" d="M594.23,387.93c-10.3-5.87-23.94-14-36.01-8.97-.76-.62-1.77-.89-3.34-1.17,9.1-9.19,10.59-22.24,13.58-34.4,8.71-.57,11.82,11.37,16.31,16.86,5.86,9.29,12.35,20.44,16.59,30.82-3.64.24-5.02-1.99-7.13-3.14Z"/>
      <path class="st77" d="M571.29,457.22l-5.25,2.81c-7.74-.48-16.35,1.05-20.9-6.9-1.54-13.81,14.76-10.49,23.53-9.71,2.43.95,6.22,6.33,5.22,8.34l-2.61,5.46Z"/>
      <g>
        <path class="st49" d="M582.03,381.27c.44-.63,1.02-1.38,1.72-1.34.58.04,9.38,4.86,10.22,5.58l.26,2.42c10.53,7.53,10.99,6.25,12.94,15.34,2.83,5.32-5.6,6.11-.08,15.06,1.08,1.74-1.62,5.96-4.25,5.86.89-2.74-.53-3.95-1.08-5.31l-2.64-1.06c-.98-4.99-20.62-26.94-11.22-10.21,1.56,3.28,1.5,5.68-.18,7.19,1.35,10.71,2.1,21.34-2.61,31.32,1.81,2.07.68,3.95-1.95,3.71-7.6,10.8-15.49,13.9-28.27,13.29-.87-.76-2.27-1.52-1.89-2.86,4.37.25,8.73.16,13.06-.25-1.75-2.44,3.41-5.08,5.25-2.81,6.3-7.62,17.63-27.49,1.82-29.71-.93,10.11-1.75,14.17-12.35,14.81-8.2.49-14.77-.1-17.12-9.27-7.93,5.71.49,11.48,1.5,20.08.86-.32,1.06-.05.62.79,1,1.88,1.5,2.94-.88,2.3-12.6-13.21-14.35-33.19-11.99-50.52-2.32,1.13-3.03,2.59-5.02,2.29l4.24-9.19c-.04-.86-1.36-2.15-2.14-2.74,1.12-2.38,2.48-3.77,4.11-5.08.38-4.84,7.83-8.95,12.47-8.95,2.23-2.12,3.89-2.91,4.97-2.37,1.78-1.64,4.01-1.86,6.69-.68-.85-2.53.01-2.82,1.76-.83,7.48-1.48,15.21-.16,22.04,3.14Z"/>
        <g>
          <path class="st142" d="M601.75,418.89l.44,8.91c.44.34,1.54.22,1.95-.04-.64,2.68-1.07,4.58-3.29,1.28-1.99-.48-2.64-2.55-1.93-6.21-2.94-1.66-5.75-3.58-8.44-5.76,1.7,10.25.78,19.8-2.77,28.65l-2.63.41c5.18-17.1,4.86-34.64-5.63-50.2,10.5,4.1,18.25,13.07,22.29,22.96Z"/>
          <path class="st144" d="M566.04,460.03c-4.96,2.66-10.77-.91-12.11,2.32-3.67-1.15-6.58-3.37-9.05-6.13.88-.59.91-1.58.88-2.3l2.68.09c4.16,3.53,9.59,4.85,16.31,3.96l1.29,2.06Z"/>
          <path class="st179" d="M571.29,457.22l-1.47-1.57c3.2-2.61,2.01-9.6-1.71-10.34-6.73-1.33-21.9-3.36-21.02,6.61l-1.95,1.21c-5.84-7.54-11.88-20.93-.09-22.26,1.38,10.15,14.04,14.24,21.66,8.85,4.03-3.55,4.51-9.46,4.41-14.74,19.99-.47,10.74,27.04.17,32.24Z"/>
          <path class="st178" d="M538.07,417.37c-6.43-3.66-3.17-16.04,4.99-15.29,10.63,2.14,5.43,20.07-4.99,15.29Z"/>
          <path class="st98" d="M577.26,403.85c.1,6.72-10.46,6.72-10.36,0-.1-6.72,10.46-6.72,10.36,0Z"/>
          <path class="st10" d="M582.03,381.27c-7.23-2.29-14.52-4.05-22.04-3.14,7.23-2.06,15.6-1.2,22.04,3.14Z"/>
        </g>
      </g>
      <g>
        <path class="st30" d="M647.9,578.93c-5.13,5.03,16.34,5.56,8.72,9.26.72,2.01.77,2.92.16,2.73,0,1.98-.64,2.92-1.94,2.81.25,5.78.37,8.67.37,8.67l-.97.6c11.04,11.52-50.1,3.18-39.08-17.1,7.2-11.61,21.11-8.17,32.48-13.4,7.42-2.85,6.18,6.36.26,6.43Z"/>
        <path class="st85" d="M647.9,578.93c-2.34,3.04,1.9,2.13,5.1,5.14-3.37-.94-7.08-1.42-9.5-5.16,1.63-1.5,3.11-.07,4.39.03Z"/>
        <path class="st114" d="M644.4,590.86c-6.69-3.42-12.64-4.2-20.11-4.54,6.94-4.61,15.73-1.56,20.11,4.54Z"/>
      </g>
      <path class="st118" d="M339.4,506.1c5.23,2.35,11.51,16.44,14.68,21.03-.97,1.59-3,3.26-4.28,3.8l-11.3-1.04-.05-.98c-3.23-.75-3.38-1.69-.77-3.74l9.77.47-8.65-12.99c-2.09,1.1-3.99,1.54-5.71,1.32-6.93,2.36,4.84-7.21,6.32-7.87Z"/>
      <path class="st38" d="M364.83,515.06c1.21.03,2.23.34,3.51-.77-5.93-3.56-7.62-8.24-9.53-13.45,3.71,3.19,4.47,9.26,11.84,14.11-2.25,2.13-4.15.78-5.81.12Z"/>
      <path class="st9" d="M338.44,528.91c-11.18.39-11.8-6.76-6.87-14.8l1.51-.14c.88-1.88,5.74-4.74,7.29-2.43l10.47,15.58c-5.16,1.6-9.06.08-13.39-.21.1,1.08.61,1.59.99,1.99Z"/>
      <path class="st12" d="M333.07,513.97c-2.98,6.36-3.26,9.84-4.96,8.94-.71-4.17.52-8.43,3.9-10.84.02.92.39,1.62,1.06,1.9Z"/>
      <path class="st2" d="M399.92,396.87l.22-1.32c7.04.36,14.11.73,21.22,1.11-8.13-8.04-10.97-19.91-15.18-30.15-3.93,9.03-8.01,17.91-12.24,26.65l-1.99.94c-1.25-.69-2.95-.97-4.89-1.07-.11,2.41,1.88,2.83,3.25,3.73-5.01,1.98-7.25-.7-10.24,2.45,10.05-18.21,17.45-36.97,25.3-58.26,5.43,20.75,10.67,39.81,21.06,58.01-7.82,2.13-19.52,1.08-26.5-2.08Z"/>
      <path class="st28" d="M399.92,396.87c-2.81-.3-5.56-1.44-7.98-2.78.17-6.52,6.58-13.29,8.86-19.41,1.53-2.98,1.89-8.8,5.17-10.51,2.6-1.36,2.03,2.52,2.51,3.5,1.44,2.92,2.9,8.64,4.66,10.96,2.59,3.41,2.11,5.68,3.58,9.27,1.26,3.07,7.2,5.68,6.91,10.55-6.89,1.72-16.65-1.45-23.71-1.58Z"/>
      <g>
        <path class="st123" d="M431.9,427.15c1.85,1.87,6.41,3.59,4.97,7.01-3.59-.92-5.97-3.03-10.71-2.8,9.92,15.28,16.64,34.33,10.91,52.05-6.06,5.9,5.43-24.02-10.07-22.42-.33,1.92-1.24,2.05-2.86,1.74,1.12,8.09-1.34,11.59-7.48,16.18-4.28,10.74-17.88,6.73-23.32-1.68l-1.72,4.75c.13,2.41-.36,4.33-1.45,5.78,4.89,6.97,14.56,10.28,22.78,10.64,1.48.52,1.35.9.24,1.88-3.7,3.32-12.12-.34-16.25-1.12-1.89-3.32-4.69-2.82-7.61-3.43-5.46-3.06-11.31-14.46-13.96-20.23l.9-3.21c-2.88-4.53-4.39-9.44-4.51-14.7l-2.66,8.64-2.3.66c-.99,5.67-.4,11.18,2.25,16.37-5.26-.54-9.84-6.42-15.07-9.64-1.88-34.25,29.52-62.4,63.18-56.64.56-1.43,1.01-1.26,1.36.35,5.16.58,10.82,1.94,14.24,6.14-3.07.99-3.75,1.8-.86,3.69Z"/>
        <g>
          <path class="st169" d="M437.06,483.41c-1.76,6.35-3.8,8.72-9.07,12.57-8.3,2.52-22.2,10.45-30.17,3.11,4.07-.26,8.04,4.03,15.24.24-8.76-.58-21.42-5.41-22.9-11.57,2.89.18,5.86,1.54,8.88,4.07l8.27,3.2c4.36.18,8.64.55,12.84,1.11l.88-2.28c6.73-1.97,12.14-8.42,11.89-15.55l2.01-1.22-2.01-2.91c1.4-6.41-.44-9.99-5.51-10.77l-.41-2.42c12.86-2.34,7.9,13.64,8.94,21.05,0,.87.77,1.35,1.13,1.38Z"/>
          <path class="st138" d="M431.9,427.15c-2.55-.92-5.87-1.52-8.09-3.88l7.81.05c-3.48-3.93-7.86-4.96-12.5-5.26-7.85-.57-20.82-2.06-28.05,1.28,7.76-4.59,16.59-3.46,26.62-3.31-2.47-2.37-5.85-.87-8.93-2.89,6.3-2.1,12.7-1.02,18.96,1.6l-9.4,1.85c6.11.98,11.39,2.73,16.66,6.83-1.05,1.02-2.03,1.35-4.53,1.77l1.46,1.97Z"/>
          <path class="st125" d="M369.07,481.32c.6,1.25,1.65,3.93-.61,4.18l-4.36-4.62,4.1,2.08c-2.54-5.56-3.09-10.97-1.4-16.09l2.02,1.28c-.42,4.46-.33,8.85.26,13.18Z"/>
          <path class="st29" d="M416.64,478.9c.75-.99,1.09-.91,1.15.35l.74,1.19c-4.7,6.01-4.32,10.35,1.12,13.02l.49,2.68c-10.12,3.83-22.83-1.01-29.98-8.39-2.43-2.56.87-11.44,1.73-12.4,2.87-3.17,4.1,6.19,12.81,7.68,4.68.8,9.29-.19,11.94-4.13Z"/>
          <path class="st131" d="M389.97,448.45c1.97,7.17-4.82,13.23-11.18,9.71-9.03-8.17,6.02-22.01,11.18-9.71Z"/>
          <path class="st11" d="M426.99,460.98c3.01,1.76,7.87,1.8,7.89,6.18l.04,9.92c-2.16,1.96-3.81.57-2.79-2.11-3.32-1.13-6.75-1-10.12.05,1.23,3.43-2.47,5.6-5.37,3.87,11.46-10.98-.44-19.71,10.35-17.92Z"/>
          <path class="st50" d="M376.26,472.28c-.66-1.78-3.01-3.08-2.55-5.49-2.55,5.54-5.25,9.61-4.64,14.54-4.53-9.87-2.32-21.01,4.37-30.17.04,7.8,1.06,14.19,2.81,21.12Z"/>
          <path class="st115" d="M423.83,441.12c.1,7.03-10.94,7.03-10.84,0-.1-7.03,10.94-7.03,10.84,0Z"/>
        </g>
      </g>
      <path class="st4" d="M432.13,474.98l2.79,2.11c.73,9.05-6.15,17.37-14.78,19.05-8.72-4.24-8.65-10.51-2.34-16.88,3.05-5,9.02-6.19,14.33-4.28Z"/>
      <path class="st29" d="M432.13,474.98l-10.12.05c3.05-2.04,7-2.49,10.12-.05Z"/>
    </g>
  </g>
</svg>