<?xml version="1.0" encoding="UTF-8"?>
<svg id="Layer_1" xmlns="http://www.w3.org/2000/svg" version="1.1" viewBox="0 0 640 640">
  <!-- Generator: Adobe Illustrator 30.3.0, SVG Export Plug-In . SVG Version: 2.1.3 Build 182)  -->
  <defs>
    <style>
      .st0 {
        fill: #d8a392;
      }

      .st1 {
        fill: #5e4c63;
      }

      .st2 {
        fill: #5c6286;
      }

      .st3 {
        fill: #efb09f;
      }

      .st4 {
        fill: #352743;
      }

      .st5 {
        fill: #f1a98e;
      }

      .st6 {
        fill: #512718;
      }

      .st7 {
        fill: #f6ede8;
      }

      .st8 {
        fill: #82413f;
      }

      .st9 {
        fill: #d69d92;
      }

      .st10 {
        fill: #5b201f;
      }

      .st11 {
        fill: #d3927e;
      }

      .st12 {
        fill: #423c5b;
      }

      .st13 {
        fill: #f7d4bf;
      }

      .st14 {
        fill: #cc8c7d;
      }

      .st15 {
        fill: #eee1e5;
      }

      .st16 {
        fill: #7b4041;
      }

      .st17 {
        fill: #c1796a;
      }

      .st18 {
        fill: #804042;
      }

      .st19 {
        fill: #62273a;
      }

      .st20 {
        fill: #4f110e;
      }

      .st21 {
        fill: #2a1f13;
      }

      .st22 {
        fill: #4c181c;
      }

      .st23 {
        fill: #efd9d5;
      }

      .st24 {
        fill: #74312d;
      }

      .st25 {
        fill: #8b1f0d;
      }

      .st26 {
        fill: #433856;
      }

      .st27 {
        fill: #e8d5d3;
      }

      .st28 {
        fill: #695b75;
      }

      .st29 {
        fill: #2c1f2e;
      }

      .st30 {
        fill: #e2a18b;
      }

      .st31 {
        fill: #f9cbb3;
      }

      .st32 {
        fill: #ba2534;
      }

      .st33 {
        fill: #ea9a87;
      }

      .st34 {
        fill: #ab8f95;
      }

      .st35 {
        fill: #1d2016;
      }

      .st36 {
        fill: #7a666b;
      }

      .st37 {
        fill: #763c3b;
      }

      .st38 {
        fill: #e4b9ae;
      }

      .st39 {
        fill: #495f7e;
      }

      .st40 {
        fill: #ea9e85;
      }

      .st41 {
        fill: #74382c;
      }

      .st42 {
        fill: #f5cbb8;
      }

      .st43 {
        fill: #451523;
      }

      .st44 {
        fill: #a092ad;
      }

      .st45 {
        fill: #94192e;
      }

      .st46 {
        fill: #581c1e;
      }

      .st47 {
        fill: #4e1213;
      }

      .st48 {
        fill: #5f1e14;
      }

      .st49 {
        fill: #4e465b;
      }

      .st50 {
        fill: #e1a28d;
      }

      .st51 {
        fill: #46251f;
      }

      .st52 {
        fill: #f4e3e9;
      }

      .st53 {
        fill: #f1b4a2;
      }

      .st54 {
        fill: #3c3a54;
      }

      .st55 {
        fill: #820c22;
      }

      .st56 {
        fill: #7a121f;
      }

      .st57 {
        fill: #482236;
      }

      .st58 {
        fill: #391e10;
      }

      .st59 {
        fill: #975a5c;
      }

      .st60 {
        fill: #572221;
      }

      .st61 {
        fill: #de9f8e;
      }

      .st62 {
        fill: #deb2a1;
      }

      .st63 {
        fill: #864448;
      }

      .st64 {
        fill: #f1a875;
      }

      .st65 {
        fill: #302711;
      }

      .st66 {
        fill: #4b2918;
      }

      .st67 {
        fill: #e0daea;
      }

      .st68 {
        fill: #6e262c;
      }

      .st69 {
        fill: #495676;
      }

      .st70 {
        fill: #5b4b53;
      }

      .st71 {
        fill: #76383c;
      }

      .st72 {
        fill: #ab7174;
      }

      .st73 {
        fill: #f4e9dc;
      }

      .st74 {
        fill: #5a6789;
      }

      .st75 {
        fill: #475e7d;
      }

      .st76 {
        fill: #222613;
      }

      .st77 {
        fill: #d48f6f;
      }

      .st78 {
        fill: #2f2b27;
      }

      .st79 {
        fill: #f2c1a9;
      }

      .st80 {
        fill: none;
        stroke: #231f20;
        stroke-linecap: round;
        stroke-miterlimit: 10;
        stroke-width: 3px;
      }

      .st81 {
        fill: #c06f4e;
      }

      .st82 {
        fill: #e1a694;
      }

      .st83 {
        fill: #410318;
      }

      .st84 {
        fill: #f8d6c0;
      }

      .st85 {
        fill: #606688;
      }

      .st86 {
        fill: #35220b;
      }

      .st87 {
        fill: #3f2110;
      }

      .st88 {
        fill: #f0e9e6;
      }

      .st89 {
        fill: #ede0de;
      }

      .st90 {
        fill: #f1eae9;
      }

      .st91 {
        fill: #5a2121;
      }

      .st92 {
        fill: #8988a8;
      }

      .st93 {
        fill: #b6a8ae;
      }

      .st94 {
        fill: #ecdedc;
      }

      .st95 {
        fill: #fce2cb;
      }

      .st96 {
        fill: #531a15;
      }

      .st97 {
        fill: #f5d2bb;
      }

      .st98 {
        fill: #8d4d4f;
      }

      .st99 {
        fill: #eee2df;
      }

      .st100 {
        fill: #182718;
      }

      .st101 {
        fill: #7a3929;
      }

      .st102 {
        fill: #814444;
      }

      .st103 {
        fill: #f8d3c2;
      }

      .st104 {
        fill: #f1e9ea;
      }

      .st105 {
        fill: #626486;
      }

      .st106 {
        fill: #f8cbba;
      }

      .st107 {
        fill: #cb786d;
      }

      .st108 {
        fill: #e68951;
      }

      .st109 {
        fill: #332309;
      }

      .st110 {
        fill: #4d3e4e;
      }

      .st111 {
        fill: #f0b6a3;
      }

      .st112 {
        fill: #77393e;
      }

      .st113 {
        fill: #dea291;
      }

      .st114 {
        fill: #3e3950;
      }

      .st115 {
        fill: #f3ae76;
      }

      .st116 {
        fill: #e4977f;
      }

      .st117 {
        fill: #3b2215;
      }

      .st118 {
        fill: #430319;
      }

      .st119 {
        fill: #5f4843;
      }

      .st120 {
        fill: #931b39;
      }

      .st121 {
        fill: #350e1b;
      }

      .st122 {
        fill: #cb8573;
      }

      .st123 {
        fill: #dbaaa5;
      }

      .st124 {
        fill: #6f343d;
      }

      .st125 {
        fill: #451817;
      }

      .st126 {
        fill: #9996b5;
      }

      .st127 {
        fill: #662c39;
      }

      .st128 {
        fill: #e7ac9d;
      }

      .st129 {
        fill: #592c26;
      }

      .st130 {
        fill: #572418;
      }

      .st131 {
        fill: #541914;
      }

      .st132 {
        fill: #4a4a66;
      }

      .st133 {
        fill: #9291b3;
      }

      .st134 {
        fill: #350f20;
      }

      .st135 {
        fill: #3d0d23;
      }

      .st136 {
        fill: #f5c8b5;
      }

      .st137 {
        fill: #ec9d81;
      }

      .st138 {
        fill: #f7c1a5;
      }

      .st139 {
        fill: #b8abb2;
      }

      .st140 {
        fill: #b56e63;
      }

      .st141 {
        fill: #4e131a;
      }

      .st142 {
        fill: #843d3c;
      }

      .st143 {
        fill: #352741;
      }

      .st144 {
        fill: #9c5c59;
      }

      .st145 {
        fill: #a89fbd;
      }

      .st146 {
        fill: #cf9a8e;
      }

      .st147 {
        fill: #bf7d77;
      }

      .st148 {
        fill: #2c1e35;
      }

      .st149 {
        fill: #e8a797;
      }

      .st150 {
        fill: #6c3331;
      }

      .st151 {
        fill: #8d4f46;
      }

      .st152 {
        fill: #ebab9b;
      }

      .st153 {
        fill: #a74c40;
      }

      .st154 {
        fill: #f2e3e5;
      }

      .st155 {
        fill: #452537;
      }

      .st156 {
        fill: #44506b;
      }

      .st157 {
        fill: #b47564;
      }

      .st158 {
        fill: #58161e;
      }

      .st159 {
        fill: #f1b2a1;
      }

      .st160 {
        fill: #f6b194;
      }

      .st161 {
        fill: #2d2e12;
      }

      .st162 {
        fill: #e9ad9c;
      }

      .st163 {
        fill: #7f6257;
      }

      .st164 {
        fill: #dda396;
      }

      .st165 {
        fill: #ebaa97;
      }

      .st166 {
        fill: #3b1824;
      }

      .st167 {
        fill: #c28f8e;
      }

      .st168 {
        fill: #4f0d1b;
      }

      .st169 {
        fill: #7e3f40;
      }

      .st170 {
        fill: #682d3a;
      }

      .st171 {
        fill: #5a6283;
      }

      .st172 {
        fill: #dba08c;
      }

      .st173 {
        fill: #f3ece8;
      }
    </style>
  </defs>
  <g>
    <g>
      <path class="st158" d="M262.83,390.41c2.8-1.12,4.04,4.33,1.39,5.46.6,1.87.53,3.26-.22,4.16l-2.25-.34-3.33-9.2c-4.91,2.98-39.21,22.12-41.89,26.48-4.03.79-5.5,1.94-4.42,3.46l-1.61,1.71c-2.06,3.31-4.87-1.42-4-3.97l-19.55-16.18c.27-1.36-.99-5.71,1.26-4.43-.06-2.86,1.06-2.76,3.41-1.63,5.23,5.34,11.04,9.74,17.42,13.2.79-.5,1.07-2.76,1.98-1.21l2.04.04c.43,2.39,9.09-5.61,11.13-6.41.84-3.47,3.85-4.83,7.19-3.82,7.3-5.88,15.14-10.53,23.55-13.97,4.27-3.7,6.99,2.42,7.9,6.65Z"/>
      <path class="st43" d="M263.93,413.35c-1.89.48-2.01-.31-.18-1.19"/>
      <path class="st43" d="M263.94,406.11c-3-.05-2.8-5.6.06-6.08l.22-4.16c2.59-.86,3.24,2.02,2.8,4.19,3.12,16.98,11.68,31.57,13.39,48.59-13.48,9.79-27.54,18.81-42.17,27.06l-2.27-.97c-1.4.84-2.11,2.98-4.05,3.19-5.98-2.3-10.78-7.09-15.06-11.81,2.15-5.55,7.78,4.84,12.27,4.35l1.75,2.6c1.16-2.16,3.31-2.98,4.97-.87-.74-2.21.05-2.89,2.36-2.03l.56-2.34c11.97-6.28,23.33-13.53,34.63-20.89l.62-1.75c-1.37-5.46-3.1-10.86-5.19-16.19l1.44-1.95c-1.63-1.92-3.38-2.49-5.23-1.71-2.97-.46-5.77-2.42-2.57-4.37"/>
      <path class="st76" d="M266.96,360.17c2.44,1.71,1.57,2.99-1.23,1.96-.19,1.78-.32,2.99-1.73,1.6-1.33,2.5-3.71,3.6-7.14,3.31l-.08,2.37c-14.16,12.31.03,12.31-6.67,14.81l.07,1.34c-12.78,5.25-24,12.6-33.66,22.03l-1.47.37-1.54,1.21c-.71,1.15,1.58,3.02-1.38,3.82,1.35-13.45,17.42-22.53,29.15-27.77,4.8-5.07,6.42-13.49,11.5-18.14-1.9-2.25,8.19-5.5,9.81-6.77-.66-2.54,2.43-4.09,4.41-2.23l-.05,2.07Z"/>
      <path class="st87" d="M192.12,423.2c-.95,1.79-1.64,3.71-2.07,5.76,1.19-.4,1.61-.44,1.28.87.9,1.09.76,2.17-.41,3.22,2.64.74,4.39,2.91,5.25,6.52,2.11,1.97,6.17,1.71,7.9,3.65.17,13.39,23.57,23.28,12.79,22.9-7.07-4.73-14.24-10-16.18-19.03-.42-1.62-4.28-1.99-5.54-3.34-4.63-4.98-8.84-12.25-8.43-19.15,2.88-9.02-.59-3.64-4.04-15.75-2.09-6.24,10.58,7.45,9.45,14.34Z"/>
      <path class="st60" d="M180.23,387.86c3.05.02,13.79,6.41,7.98,9.69-.03.74-.74,1.7-1.25,2.21-1.86-.51-3.6-1.75-5.21-3.71.48,4.09,5.48,10.48.92,12.8-2.93-4.97-5.4-11.59-7.46-16.57.76-1.51,1.85-2.78,2.14-4.83.82-.59,2.1.14,2.88.4Z"/>
      <path class="st32" d="M270.96,426.81l4.08,15.39c1.32,3.8.87,6.29-2.45,8.33-7.58,4.24-26.9,17.41-34.66,20.23-4.33,3.88-9.27-19.8-18.01-43.27-3.7,2.38-7.68-9.01-3.68-9.91-.25-7.62,20.17-14.7,24.86-18.58,6.09-3.49,11.47-8.07,18.21-10.53l4.4,12.17"/>
      <path class="st55" d="M186.97,399.77c5,2.98,10.64,9.28,15.73,12.49,2.05,1.57,2.55,3.74,5.33,4.88-.03,2.86,1.18,5.81,4.58,4.88,0,0,6.71,16.52,20.13,49.56l-1.86,1.47-6.73-1.98c-2.49-2.36-4.01-5.16-7.29-4.97.54-.4.97-1.25.82-1.66-.06-.18-8.73-5.26-10.8-9.21l-4.87-9.3c-.5-.95.3-3.07.07-3.87-5.23-.86-7.29-2.96-6.17-6.31-2.31-.85-2.77-2.15-.86-3.77-.41-1.1.16-1.55,1.7-1.37-3.83,1.12-4.64-.14-6.7-1.65.49-1.93,1.18-3.85,2.07-5.76-4.97-7.8-13.27-21.73-12.1-30.22,3.92,1.19,5.89,3.88,6.95,6.78Z"/>
      <path class="st108" d="M216.53,416.97c.09,3.3,1.29,7.7,3.68,9.91,6.18,14.33,9.09,29.61,16.25,43.52.97,2.3-3.72,3.19-5.58,2.65-3.18-11.46-19.02-43.96-21.77-56.09,2.43-.96,5.24-1.51,7.42,0Z"/>
      <path class="st90" d="M254.93,383.75l-23.6,16.44c-1.85-1.38-4.8-1.06-5.02.77-.08.64.54,2.56-.19,2.55-4.59-1.08-10.16,7.98-11.06,4.44,5.72-8.07,14.34-14.97,23.83-18.99,3.34-1.09,12.39-6.33,16.05-5.22Z"/>
      <path class="st25" d="M238.22,470.16c-.51.87-1.23,1.57-2.36,2.03-.86-3.73-2.7-7.27-5.34-9.81,1.46-3.83-9.57-31.17-10.31-35.49,6.75,12.61,9.54,27.25,15.41,40.51.62,1.43.57,2.91,2.6,2.75Z"/>
      <path class="st123" d="M195.05,431.99c-.09,3.67,6.36.09,4.99,4.42-.57.62-3.81.2-2.99,2.02,2.61,1.31,4.41-.47,5.03,3.65-6.09,3.67-8.46-3.6-11.16-9.03-.52-2.31,3.44-3.05,4.13-1.05Z"/>
      <path class="st167" d="M192.12,423.2l2.13,2.82c-1.36,1.82-2.89,2.03-4.2,2.94-2.37-1.56-1.42-6.62,2.07-5.76Z"/>
      <path class="st38" d="M195.05,431.99c-1.4.09-2.76.52-4.13,1.05-.52-.99-1.79-3.21.41-3.22,0,0,6.39-.59,6.39-.59.61-.06.35,2.6-.3,2.63l-2.37.12Z"/>
      <g>
        <path class="st161" d="M211.03,407.91c-.81.49-3.98-.87-4.78-1.1-2.84-2.58-18.19-21.64-19.74-16.89-1.99-.52-4.08-1.2-6.27-2.05-1.37,3.02-3.05,4.49-5.02,4.43-.5-1.2-2.48-3.52-.87-4.86,2.58-2.15,5.81-4.82,8.81-6.23s4.44,2.3,5.99,3.52c8.24,6.49,19.04,14.93,21.89,23.19Z"/>
        <path class="st99" d="M209.92,408.06c5.03,11.19-16.33-7.17-18.37-9.67-1.07-1.06-2.23-1.54-3.34-.83.23-5.21-4.14-4.35-7.98-9.69,2.08-3.38,3.52-.71,5.53,1.29l-.55-4.52c9.65,6.53,17.62,14.9,24.72,23.42Z"/>
        <rect class="st36" x="188.26" y="388.23" width="1.46" height="8.52" transform="translate(-221.14 245.67) rotate(-44.59)"/>
      </g>
    </g>
    <g>
      <path class="st22" d="M240.84,339.23l.52-1.23c12.73,3.93,26.09,6.56,40.09,7.9,5.02,3.93,12.62,2.92,18.55,2.1,0-2.86,2.26-2.79,3-.07-1.35.9-2.35,2.49-2.18,4.24l-16.02-.17-.62,4.17,9.07,7.57c-1.39,6.73,2.93,4.8.72,6.06-.87,3.25-3.8,2.65-3.36-.68l-.29-1.53c-6.7-2.22-10.61-8.48-13.65-14.54l-3.93,2.01c-.83,2.73-10.06,8.24-5.74,3.03-1.41.2-2.76-.51-4.05-2.14-4.54-1.21-9.05-2.55-13.51-4.04,2.48,2.67,2.94,4.89,1.38,6.67-5.7.73-11.47-.8-16.66-3.55l-.11-.97c3.29-.15,6.15,1.24,9.73,1.99l-1.26-13.42-16.03-7.26-13.45-12.83c-9.63,2.75-21.44.28-21.09-1.89,1.07-2.93,15.12-.85,17.17.73,1.72-1.18,3.29-2.32,4.71-3.44l2.8.93c6.14,8.69,14.2,15.48,24.2,20.36Z"/>
      <path class="st13" d="M183.96,292.41l1.03,2.02c-4.18,7.71,3.72,14.53,10.06,17.76,1.91-2.04,3.96-.89,4.13,1.87,3,.8,5.2.38,6.61-1.28l1.38-.15c6.03-3.99,8.82,6.43,1.95,8.76-16.75,4.59-36.07-12.6-29.9-30.07.73-2.2,2.31-4.08,4.6-4.5.64,2.3.3,3.83.13,5.61Z"/>
      <path class="st95" d="M266.02,250.28c1.82,2.94,7.83,12.49,6.48,1.75,3.53-1.02,6.44,1,8.75,6.07.77-.48.97-.24.65.66.87,2.01.92,3.69.13,5.05,1.04,1.82,1.3,3.27.78,4.35l1.23.89c9.92-3.34,18.83-8.83,26.75-16.49l2.23.74c1.14-4.46,3.11-6.87,5.92-7.25,5.18-7.83,9.39-16.14,12.65-24.94,8.17-5.72,10.33,19.85,11.35,25.11.93.02,1.42.72,1.5,2.08-2.8,3.56-16.31,3.36-13.2,9.63-2.91,10.31-2.5,22.4-2.33,33.12,1.84,2.86,6.81,7,8.04,9.79,1.49,1.11,1.77,3.04.84,5.79,2.29,22.21,34.02,7.34,25.23,22.81-32.35,22.31-76.61,22.63-113.37,13-2.66-1.23-13.02-3.57-12.58-7.39-24.27-14.98,8.05-8.18,16.35-14.57,3.73-6.34,4.4-12.46,1.99-18.37l1.09-2.3-.27-1.52c6.47-9.07,5.55-20.51,3.03-30.86,1-1.58.73-3.3-.78-5.17,1.42-6.67,1.31-6.93-4.76-9.01-6.54-2.24-13.88-1.52-20,1.65-1.22-.26-4.17-1.03-3.71-2.71,2.93-4.1,23.4-30.3,25.23-31.1s2.95-.19,3.63,1.62l2.56,11.56c2.02,5.47,3.55,10.81,4.59,16.03Z"/>
      <path class="st138" d="M340.94,300.96c5.42,2.07,11.14-.14,11.67,8.4,4.92,4.41,20.86-2.45,17.61,7.89-1.6,4.65-3.26,9.04-7.2,12.18-.58-1.79-.96-3.35.09-6.03-12.95.49-32.91-6.16-26.16-22.57-.3-1.88,2.99-.98,3.99.13Z"/>
      <path class="st5" d="M375.01,299.94c-.97,5.89-2.88,11.75-4.79,17.31.14-9.54-18.72,1.34-20.09-9.26-.76-5.91-5.62-4.19-9.19-7.03.21-1.06,3.27-1.26,3.87-.17,12.25.59,24.28-11.33,30.2-.85Z"/>
      <path class="st138" d="M371.55,289.75c-.85.72-1.63,2.67-.03,2.52,6.69-3.7,4.95.7,3.5,7.67-8.39-1.98-3.27-5.31-13.3-.49,0,0-12,1.35-12,1.35-1.91.22-3.51,2.07-4.9,0,1.54-1.59,5.12-4.43,7.24-2.79,6.58-1.63,11.19-6.99,15.35-12-1.31-4.44,6.24-9.2,3.25-13.89l1.4-2.05c-.7-2.75.39-3.18,2.34-1.17,1.55,6.96-.39,14.2-2.85,20.85Z"/>
      <path class="st160" d="M213.99,290.15l2.2.5c.64,3.87,2.26,7.02,4.86,9.46,4.34-.84,8.58-.94,12.72-.32l1.22-.52c2.59,2,5.48,3.33,8.66,4-.09-3.02,5.16-3.72,6.24-.99,2.55,1.1.75,6.06-.31,8.17-3.99,7.92-13.66,13.52-21.87,8.88-6.84-.58-1.1,6.58,1.88,8.48-.34,5.17,9.85,6.28,11.23,11.42-10.75-3.97-34.01-16.8-25.81-30.79,2.77.66,3.1-.37,1.74-2.52-3.37,1.26-5.06-3.89-4.2-6.92l-3.04-9.87c2.23-2.49,2.3-5.2,4.47,1.02Z"/>
      <path class="st30" d="M207.78,302.44c1.3-1.92,8.83,3.98,8.58,4.44-.05.1-1.85-.28.4-.96.91.3,1.75,1.6,1.51,2.42-.16.55-1.84,1.07-2.05,1.76-1.34,3.6-1.95,11.16-7.11,11.28,4.83-3.14,2.6-7.86-1.95-8.76l-1.43.3c-1.26-3.92-2.79-7.79-4.62-11.59-2.25-.49-3.04-1.62-2.38-3.41-2.8-.09-5.26-5.13-.83-3.92,2.87,3.28,6.52,5.98,9.87,8.45Z"/>
      <path class="st33" d="M188.36,290.26c4.97.74,7.61,3.42,9.33,8.54,7.22,1.44-5.88,3.53-5.54,9.32,2.35.29,3.99,1.64,2.9,4.06-10.81,1.44-19.78-19.47-6.69-21.92Z"/>
      <path class="st128" d="M194.25,289.81c.3,3.96-4.78,1.77-5.05-.81-5.13-1.82-5.46-5.54-1.54-8.97l6.6,9.78Z"/>
      <path class="st17" d="M194.25,289.81l3.66,4.19c-2.04,1.12-.07,2.95.83,3.92,1.95,4.9-5.86-3.74-6.74-4.77-1.18-.97-3.05-1.28-3.64-2.89.34-.35.6-.74.83-1.26,1.47,1.03,3.21,1.96,5.05.81Z"/>
      <path class="st107" d="M199.18,314.05c-10.49-3.13-7.45-9.13-.37-14.16.98-.73,3.01,2.36,3.5,3.33,3,5.9,5.88,13.37-3.13,10.84Z"/>
      <path class="st48" d="M207.17,312.62c-.75,4.03-5.24,3-8,1.43.85-1.5,3.06-1.04,4.72,0-.34-9.95-3.98-18.4-11.74-5.92-1.3-6.32,8.38-6.76,5.54-9.32.21-.4.58-.81,1.05-.88,6.05,2.92,4.29,9.36,8.43,14.7Z"/>
      <path class="st131" d="M362.64,225.11l-1.95-.13c-2.01,6.38-4.94,12.42-8.77,18.12,2.19,10.25-11.86,7.26-6.93,3.11,8.68-3.66,13.27-24.34,12.71-33.3,4.03,4.64,7.86,11.19,4.94,12.19Z"/>
      <path class="st31" d="M256.51,299.79c3.14,5.96,3.53,11.16.28,17.21-3.69,17.89-42.68.16-19.71,18.04-6.26-2.47-14.92-8.66-14.7-16.3,3.77-2.53,7.49-1.46,11.1.95,16.92-4.26,14.78-14.75,16.43-17.4,1.98-.31,5.02-.52,6.61-2.5Z"/>
      <path class="st172" d="M260.08,215.99c.61,11.24,2.79,22.62,7.13,32.97.9,12.34-10.06-26.53-10.66-26.91-6.21,7.83-19.23,24.18-25.52,32.07-2,1.23-4.45,2.35-5.79,3.79-7.2,1.78,5.03-11.1,6.99-12.47,1.76-1.51,2.05-3.23,3.14-4.31l3.91-3.88,10.86-13.97c3-6.3,6.32-8.72,9.95-7.27Z"/>
      <path class="st113" d="M343.75,241.78c.18,1.65.31,3.2-.81,4.43-2.72-5.65-5.16-17.41-7.65-23.5-.23-.71-2.14-.69-2.39-.22l-1.24,2.3c-2.77,8.13-6.76,15.52-12.72,21.25,6.42-12.42,11.06-25.21,12.73-40.55,6.58,11.26,10.66,23.48,12.08,36.29Z"/>
      <path class="st62" d="M314.96,245.83c-.77,2.47-2.04,4.82-1.94,7.46-7.3,6.17-22.1,17.47-28.97,15.75l-.32-2.13c13.97-1.5,23.47-14.5,31.85-25.04.41,1.67-.29,2.9-.62,3.96Z"/>
      <path class="st79" d="M274.24,238.92c.61-.08,1.1-.11,1.18.06.57,2.57,8.8,18.35,5.83,19.12-1.61-1.62-3.76-2.58-4.86-4.8-2.71,2.86-1.27-.85-3.9-.06,1.22.76.75,4.91-.42,4.8-4.06-.38-5.06-5-6.05-7.76l1.21-.28c1.87,1.9,1.63,5.02,4.92,6.73.05-7.05-.61-12.35.06-19.12.62.74,1.22,1.16,2.03,1.31Z"/>
      <path class="st6" d="M332.88,295.12l2.17-.7c3.51,3.39,8.14,4.69,11.89.67l2.74.09c-.65-2.78.33-2.99,2.38-1.3l.13,3.03c.86.48.81.85-.14,1.09-4.41,3.07-9.93,3.22-15.11,2.83-3.52-2.6-6.83-5.57-8.04-9.79.84-.44,1.18-1.16,1.21-1.88,2.23-.56,2.74.23,1.53,2.4l1.23,3.56Z"/>
      <path class="st129" d="M288.32,264.91c-.15.39-.12,1.28.44,1.36-2.39,1.46-5.83,3.55-8.61,4.28l1.89-6.75c1.04,3.35,4.23,2.78,6.29,1.11Z"/>
      <path class="st97" d="M372.86,259.07c1.28,1.31,1.22,8.12,1.53,9.82l-2.34,1.17c-3.4-9.59-11.94-21.74-20.97-22.04l-2.13-1.51c2.28-2.69,4.81-5.94,6.49-8.79,7.2-28.28,14.11,14.26,17.42,21.34Z"/>
      <g>
        <path class="st65" d="M340.02,501.04c2.31.48,1.76.83-.26,1.75-.15-.17-1.89.61-1.78,1.34,1.63,10.73,2.77,21.2,3.52,32.11.07,12.12,5.03,22.36,6.77,33.79-3.83,6.83-4.85-5.93-4.12-8.31l-2.22-.39-2.27-11.11c-1.64-.44-2.12-1.25-1.75-3.05-.1-6.46-.6-12.94-1.5-19.46l1.85-1.59c-1.6.31-2.35-.6-2.25-2.72l-9.37,1.42-1.63-1.78c.3-5.67,10.24-3.46,12.08-9.15-2.94-1.21-2.86-7.24-2.03-10.01-2.87-1.73,3.32-4.45,4.96-2.85Z"/>
        <path class="st121" d="M344.16,561.73c.37,1.07,2.58,1.92,1.73,4.3-.34,1.85-.1,4.27,2.39,4,4.98,20.79-29.15,13.34-23.79-12.38l2.37.69c1.53,7.96,11.99,6.8,17.3,3.38Z"/>
        <path class="st94" d="M337.91,547.18c-3.09,5.31-11.66,2.69-16.77.57l-5.11-18.78c2.93-1.38,6.02.23,8.99-.22l5.95-.9c-1.1-2.87,6.11-4.45,7.28-1.73l1.91,18.75c.2,1.94-1.22,2.32-2.25,2.3Z"/>
        <path class="st57" d="M337.91,547.18l3.17,1.54c.95.46,1.3,7.83,3.08,13,.03.86.2,1.87-.24,2.53-.72,1.08-11.4,3.85-16.16-.08-3.82-4.12-2.79-8.59-5.9-13.44l4.39-1.26c-2.13-1.73-4.49,1.46-5.12-1.72,5.59.96,11.33.55,16.77-.57Z"/>
        <path class="st136" d="M325.01,521.98c-2.42.25-5.84-.16-7.89-.73.77-2.49,17.77-6.13,19.97-7.34,2.36,6.52-8.09,7.11-12.08,8.08Z"/>
        <g>
          <path class="st21" d="M232.04,485.06c3.16,1.03.85,7.82-2.25,6.84,1.1.43,1.63,1.4,1.58,2.91l10.18,3.53,1.03,1.75c.37-3.01,5.26-.73,8.27-1.2-5.17-2.65,2.62-7.43,1.29-.75l2.49,2.84c3.39,1.16,5.03,2.76,4.95,4.79l.99.9c7.06-.09,14.11-.17,21.16-.24l1.2.86c-.91-2.12,1.03-2.38,2.06-.52.49-2.65,2.7-4.22,4.01-1.53l1.29-.15c-.35-3.1,8.74-3.12,9.45-.15,1.53-1.2,2.05-.62,1.08,1.12,8.24.81,16.69.52,25.36-.88l2.67-1.93c3.06-2.1,5.95.73,2.26,3.01l-.27,2.69c-5.62,1.62-11.32,2.82-17.09,3.59.49,3.19,1.62,6.1,3.38,8.73,3.59-1.61,6.22-1.37,7.89.73.87.31.86.67,0,1.07l-.42,1.41c9.47-.78,7.91,7.23-.3,6.37,0,0-5.72-.43-5.72-.43l4.13,15.48-1.56,1.87c1.75.74,3.82,1.24,6.2,1.5-2.09,1.99-2.54,4.15-1.35,6.46l-1.49,1.94,1.57,7.3-2.07,1.21c-1.64-2.4-1.93-5.61-2.6-8.47l-1.31.23c-4.8-14.58-9.09-29.78-12.88-45.61-6.99-2.72-16.65-5.09-23.92-.22l-2.36,46.99-2.06,1.08c-.78,9.43,2.82,26.61-11.86,26.21-16.63.56-8.67-22.98-11.97-35.5-.44-1.71-5.47-47.11-5.83-47.41.25.17-12.3.5-22.83-6.94,1.03-6.2,3.13-10.64,4.61-15.51,3.63-1.97,3.85,1.32,1.06,4.03Z"/>
          <g>
            <path class="st89" d="M278.05,529.16c-.15,4.15-.47,18.22-1.78,21.77-3.62,3.87-14.6,3.49-18.53.12-6.02-37.1-5.68-15.81,20.3-21.89Z"/>
            <path class="st155" d="M276.27,550.92c-.91,5.5,2.6,20.38-5.82,21.42-2.69.82-9.64,1.49-9.4-2.26-2.71-4.86-2.61-13.38-3.31-19.03,6.25.16,12.22.74,18.53-.12Z"/>
            <path class="st137" d="M278.37,521.73c-4.71,2.28-24.84-3.69-25.1-8.48.1-.07.88,1.49-.62,1.16-.51-2.92-.98-5.86-.42-9.4,6.99,5.67,18.74,3.8,26.87,4.34l-.73,12.39Z"/>
            <path class="st40" d="M337.09,513.9c.9,4.38-16.39,6.34-19.97,7.34-4.6-1.29-4.24-2.88-5.82-10.85,3.65-.88,17.31-1.03,19.8-4.16-.27-2.9,1.59-3.33,3.95-2.35,2.41,2.49,1.81,7.22,2.03,10.01Z"/>
            <path class="st135" d="M261.05,570.08c5.35,1.67,11.92.97,14.92-4.18-.3,10.15,2.14,21.14-13.35,17.73-3.07-1.88,4.43-8.44-3.81-7.51-1.33-1.17-1.16-2.5-.02-4.73-.07-.49.93-1.15,2.26-1.3Z"/>
            <path class="st106" d="M278.37,521.73c-.12,1.08-1.4,2.67-2.16,3.21-4.15-.39-22.03,2.26-22.21-2.85,0,0-1.35-7.69-1.35-7.69-.79-1.54,1.2-3.66,1.65-1.02,5.32,2.9,10.78,5.46,16.73,6.52,2.66.48,5.59-.27,7.33,1.83Z"/>
            <path class="st119" d="M277.05,524l.91,1.88-18.61-.33c-1.65-.03-3.59-1.34-4.53.42-1.46-.82-1.73-2.6-.82-3.87,7.99,3.34,15.1,2.21,23.05,1.91Z"/>
            <path class="st27" d="M338.25,526.13l-7.28,1.73c-.26-1.79-13.4-.94-14.66-1.35-.87-.57-1.61-2.14-2.08-3.68,6.67,2.13,15.94-.97,22.55-1.56,1.63-.25,1.35,3.59,1.48,4.86Z"/>
            <path class="st23" d="M277.96,525.88c.24.5-.13,1.39-.07,1.94-6.47,4.51-14.77,2.95-21.86.23-1.56,1.39-1.02-1.04-1.21-2.08-1.07-1.3-.77-2.33.87-2.11,6.88,1.25,13.83,1.61,20.85,1.08l1.41.94Z"/>
            <path class="st119" d="M277.89,527.81l.16,1.34c-6.64,2.96-14.71,2.73-22.42-.53-.97,1.84-.91,3.76-.64,5.4-1.78-1.81-1.07-5-.07-7.03,10.06,3.21,12.82,4.35,22.98.81Z"/>
            <g>
              <path class="st1" d="M282.93,507.28c-7.21,1.83-15.13.77-22.77,0l-.59-1.52c1.49-1.95,2.75-2.35,3.78-1.2,2.27-.57,24.66-2.26,19.58,2.71Z"/>
              <path class="st126" d="M242.57,500.09c-4.17.38-8.47-2.48-13.02-3.75-.88-.93-.22-3.48.23-4.44l10.2,4.1c2.21.5,3.64,1.59,2.59,4.08Z"/>
            </g>
          </g>
        </g>
        <path class="st116" d="M300,348.01c-.21,2.08-11.76.72-13.09,1.14-1.15,0-1.87-.42-2.02-1.16l15.11.03Z"/>
        <g>
          <path class="st4" d="M290.28,505.08l-5.3,1.68c-1.9-.09-1.85-1.67.14-1.81-1.17-.59-1.82-1.19-1.95-1.82l.3-11c-5.44,5.09-14.52,4.04-20.22-.18-2.82.06-5.51.18-8.05.37.45,3.62-.58,5.55-3.07,5.81-.11-.52.27-1.18-.54-2.3-.82.85-.82,2.02-.75,3.05-8.04,1.44-10.12-2.19-6.24-10.89-4.35-1.8-8.54-2.77-12.57-2.94.19-1.47.51-3.3-1.06-4.03l.94-3.1c-1.05-6.06,8.12-3.21,6.94.87,8.54,4.57,20.15,6.48,30.07,7.61,11.96,2.25,13.44-2.49,16.09-13.69,1.22-5.15,3.04-5.87,5.87-3.58-.82,11.76-1.48,25.26-.6,35.93Z"/>
          <path class="st100" d="M320.09,359.87c12.83,3.73,25.01,32.28,37.53,36.72l8.19,22.15c2.47,12.59-5.16,24.1-16.67,26.3-2.59,4.61-7.43-.61-.66-2.14.05-.85.36-1.63,1.12-2.03,19.8-8.84,11.8-26.12,4.42-41.21-10.16-6.73-19.74-19.19-26.49-29.44l.71-2.36c-1.98.51-3.91-.34-5.78-2.54-3.39-1.12-9.45-2.01-4.54-6.32l2.14.87Z"/>
          <path class="st166" d="M324.12,426.22c1.87.02,2.63,1.24,2.28,3.66,5.07-2.11,8.77-1.45,9.03,2.61-2.82,2.31,5.99,3.23,7.25,2.33,1.03-.74-1.11-12.15-1.54-14.06-2.51,1.63-4.59-2.92-2.31-4.64-.78-2.32-.38-3.12,1.19-2.4,6.73.03,12.19,26.48,6.32,28.91-.89.07-.12-3.69,2.15.26-.12.96-1.68,1.24-2.16,2.15,1.39,1.29,2.12.12,2.82-.01-.57,1.33.83,4.49-1.17,4.1-1.18,1.23-9.45-2.21-11.13-3.3-5.23-2.85-7.45-9.5-11.91-12.98-3.62,1.43-8.62-7.88-4.94-9.8-.33-1.96-2.12-7.79.9-7.28.51-7.41,11.25-2.56,3.52,2.36,7.09-.13,3.72,6.24-.31,8.07Z"/>
          <path class="st35" d="M339.76,502.79l.26-1.75c1.97-1.32,4.65-1.97,8.04-1.94-1.95-.99-1.78-1.67.5-2.04-.93-1.24-.15-1.71,2.33-1.41-1.08-1.49-.22-2.74,2.58-3.76l-3.62-9.57,1.37-2.01c-1.13-1.04-2.31-1.24-3.53-.6-2.4-.88-2.31-2.14.27-3.77l.05-2.27c5.44-1.66,7.95-3.76,7.55-6.31l-6.25-11.32,1.08-2.17c-3.21-2.23-2.97-4.62-1.49-7.07,3.97,7.69,9.34,15.81,12.24,23.98-2.67,2.95-6.14,3.97-9.33,5.95l7.32,18.97c-9.61,2-7.06,6.3-19.36,7.1Z"/>
          <path class="st93" d="M317.95,359c-.1,1.87.63,3.7,1.56,5.29,2.83-.38,2.85,1.87.17,2.69l-.75,2.15c-5.7,1.78-11.02,1.71-15.97-.21-2.18,1.82-6.79,3.02-8.98.9,2.36-8.04,12.76-10.53,8.6-18.73,4.97-1.33,12.74,3.71,15.38,7.92Z"/>
          <path class="st116" d="M300.82,352.17c.12,1.3,1.18,3.98-.09,5.42l-7.73,8.62c-3.19-3.01-7.83-5.46-10.65-9.48l.62-6.75c2.89.66,16.98-2.05,17.85,2.2Z"/>
          <path class="st74" d="M325.89,489.71c1.46.19,1.92,1.64,1.38,4.35,2.37.52,2.74,4.82,2.53,6.95.95.14.96.46.09.95.23.48-.11.9-1.03,1.26l.9,2.54c-5.74.2-26.14,4.93-28.93.28-.8-12.61-1.78-25.06-2.94-37.34.2-2.72,1.61-2.58,3.38-.85,4.95,6.86,5.12,19.57,13.84,22.54,3.91-1.31,7.51-1.54,10.79-.67Z"/>
          <path class="st171" d="M296.16,459.01c1.8,15.05,3.53,30.16,5.2,45.32l-1.63.59c-1.47-.34-10.84,1.05-11.53-.55-.58-1.76-.34-27.2.79-36.4-3.35-.31,2.72-12.09,3.2-14.48.1-.23.48-.34.95-.42,2.18-1.33,5.91,4.59,3.02,5.94Z"/>
          <path class="st2" d="M285.13,504.95c-1,.76-2.71.51-5.12-.75-7.05-.94-13.87-.41-20.45,1.57-5.13-2.2-9.31-4.21-7.44-7.63s.33-6.63,1.89-7.62c2.95-1.88,6.8,1.27,9.4-1.04,4.22,4.03,10.74,4.97,16.11,3.1s3.61-9.07,6.31-13.77l-.72,26.15Z"/>
          <path class="st85" d="M250.84,498.89c.11,1.53-2.14.64-8.27,1.2-3.4-2.58-7.5-4.52-12.28-5.83l-.51-2.36c.9-1.92,1.97-4.61,2.25-6.84.67-.66,2.31-2.4,3.69-1.97l12,3.79-3.92,10.05,7.03,1.95Z"/>
          <path class="st92" d="M296.9,461.05c2.96-.67,3.81,6.72.97,7.64,1.79,9.14,2.61,26.72,4.72,35.45,8.94-1.09,16.83-1.61,25.54-.86-4.77,2.26-9.8,1.06-15.17,1.57l-12.15,1.18-1.08-1.12c1.56-3.37-.17-7.18-.5-10.95l-.83-9.23c-.7-7.74-.98-15.24-3.5-22.81-.45-1.34.31-2.95,1.26-2.92,2.48-.42,2.78.6.74,2.04Z"/>
          <path class="st133" d="M285.13,504.95l-.14,1.81-2.06.52c-.16-1.35-1.3-2.28-2.91-2.29l-14.05-.09c-2-.01-4.14,1.82-6.41.86,1.9-3.02,2.47-6.22,2.8-9.83,1.12,2.51.4,4.45.35,7.82,7.09-1.21,16.56-1.63,22.4,1.2Z"/>
          <path class="st70" d="M348.05,499.09c-3.49,3.2-11.11-.11-13,4.79-.44,1.61-3.06,1.54-3.95,2.35-.11-1.33-.07-3.66-2.26-3.01-.31-.88.28-1.28,1.03-1.26,2.77-1.01,17.57-7.57,18.17-2.86Z"/>
          <path class="st139" d="M290.61,369.13c-2.06-1.26-5.76-1.2-7.47.68-4.92-.57-9.96-.84-15.12-.83l-1.09-2.03c-1.33,1.19-1.78.63-.7-.82-3.18-3.63.19-3.32.73-5.96.93-4.39,6.85-9.9,11.41-9.08,2.43,11.62,18.91,17.1,12.25,18.04Z"/>
          <path class="st75" d="M289.87,406.01c4.54-.05,3.43,5.54,2.23,8.73,2.07,1.47,2.83,3.93,2.29,7.36.61.39,1.08.77,1.07,1.14.09,9.5-2.16,21.35-7.8,28.34l1.41,2c-4.3,10.8-7.23,22.35-11.26,33.11-5.8.59-16.35-.99-22.48-2.41-1.12,1.25-1.8,1-2.07-.7-4.49-1.62-11.34-1.28-14.39-4.8-1.78-1.29-4.2-1.63-2.89-4.07,0,0,23.02-13.85,23.02-13.85,0,0,19.74-12.75,19.74-12.75-1.31-8.81-4.1-16.14-6.96-24.23-3.06-12.75-6.46-24.32-9.96-36.66-3.05-5.4-3.14-6.04,3.78-5.48,2.79.22,9.12,1.28,8.91,4.3-2.28,2.92-3.47,5.83-3.58,8.73l18.78,10.09.18,1.13Z"/>
          <path class="st148" d="M315.19,382c.75-.53.99-.32.76.58,11.26,19.23-2.01,20.3-17.71,24,.8,10.36.71,20.78-.28,31.27,3.36,15.78,12.07,30.31,17.96,45.09,9.82-1.9,19.5-4.5,29.04-7.8l3,.78-.98,1.87c2.57-.05,4.33-.01,4.23,2.5-2.55,2.62-2.55,6.8,0,12.55-.92,1.26-1.03,2.19-.32,2.79-.78.44-.97,1.45-2.33,1.41.05.89-.16.85-.58-.02l-1.93-1.43c-.42-1.39-2.97-8.87-3.52-9.2-.49-.3-9.87,1.58-10.38,3.73l-2.11,1.27c-.1,1.92-.7,2.65-2.76,2.65-.31-1.53-.75-3.06-1.38-4.35-3.5-.38-8.11-.81-13.85-1.28-3.92-4.78-6.85-10.45-8.79-17.02-2.12-2.83-6.15-9.07-2.89-11.49-3.51.62-3.49-8.54-7.22-6.85-.28,5.22-3.26,10.1-4.15,14.89-5.77,4.61-3.64,14.11-8.12,18.36-4.36,3.01-20.88-.32-26.43-1.3l-.46,2.44c-1.39,1.24-2.15-1.2-.91-3.16-6.02-.76-15-3.88-14.95-3.78-.22-.45.24-1.31.73-1.72,11.54,3.45,29.57,8.77,39.56,6.86,2.89-10.09,6.24-20.08,10.07-29.95-2.93-2.91,2.77-13.77,3.17-16.87,1.27-6.94,5.03-16.55,1.17-22.26.66-5.31-.02-9.82-2.04-13.51.7-.95.85-2.12.47-3.51-3.75,1.28-7.45-8.99-5.39-11.45,2.7-.35,4.32.98,4.03,3.95.85.07,1.77.39,2.78.97.44,2.46,1.81,2.79,4.12.96.49.77,1.18,1.43,2.04,2.03l-.22,2.92c5.42-1.43,10.55-3.3,15.39-5.63-1.65-4.09-2.48-8.14-2.49-12.15l3.68.85Z"/>
          <path class="st148" d="M265.72,362.13l.5,4c-2.55,1.76-2.95-1.93-.95-.67-1.2,4.22-3.87,20.53.54,8.62.61-.51,1.7.2,2.32.96,1.56-.18,2.82,1.18,3.76,4.09,3.57-5.48,8.17-.69,10.29,2.71-3.33,3.31-5.8,7.07-7.41,11.26l13.54,7.5.26,2.43c4.7-1.35,5.66,6.78,1.29,2.98l-16.71-8.24c-8.19-1.28-2.01-8.34.07-12.32l-12.1-2.6c.89,2.95,1.64,5.15,1.7,7.55-.85-3.34-4.35-6.08-7.9-6.65-2.16,1.16-3.77,1.31-4.83.46,1.14-1.05.76-4.35,2.69-4.43,1.09.1,4.45.39,4.99-1.38.83-2.74,1.46-9.88-.93-11.36l8.87-4.91Z"/>
          <path class="st39" d="M328.26,367.86c5.97,7.14,17.77,25.86,26.34,29.74,4.52,2.93,4.14,10.75,6.68,15.1,8.2,12.13-1.43,32.01-16.45,30.17,4.73-7.68.29-20.77-4.81-29.13-5-2.36,1.13-7.19,5.21-2.54,5.74-4.91,5.22-8.38-2.22-5.33-3.8,3.84-7.62,5.33-7.45-1.83-2.15.12-4.35-.4-4.37-2.9,1.66-12.4-.71,1.17-1.23,6.28-16.51-1.2-11.77,21.68-2.57,27.04,5.1,18.15,15.14,9.73,23,19.41,1.04,3.55,11.52,15.34,5.49,18.05-11.06,7.03-28.32,10.59-41.18,13.37-5.52-15.75-16.13-30.46-18.72-47.27-.48-8.15,3.36-26.18-.93-33.59,7.79.25,21.28-4.76,22.08-5.88,3.06-4.28-1.83-10-1.17-15.96,1.87-.93,3.63-.18,5.25,2.24,4.45,2.11-.1-9.53,2.76-10.35-.4-3.68-.57-10.02,4.29-6.61Z"/>
          <path class="st110" d="M328.26,367.86c-3.5-.35-1.91,3.39-4.29,6.61-1.72-.07-2.53-1.66-2.43-4.77l-.68.6c-2.92.46-3.76-1.68-1.19-3.31-1.58-6.39,5-3.68,8.58.88Z"/>
          <path class="st84" d="M338.83,416.14l2.31,4.64,1.6,8.61c-1.09,3.08-5.84,5.08-7.46,1.75-2.48-.87-4.83-.21-7.49.58-.64.08-1.24-1.5-1.38-1.83l-2.28-3.66c.32-2.26,1.5-3.97,3.29-6.12l-6.23.16c.35-3.3,2.59-4.01,5.05-5.65-1.92-1.4-4-.19-5.32,1.17-1.59.68-1.67.19-1.75-1.22,1.39-10.18,22.1-10.52,19.68,1.57Z"/>
          <path class="st143" d="M340.03,413.73c-.02.59-1.19,1.36-1.19,2.4-3.52-12.35-22.56-7.45-17.93-.35-.9,2.29-1.17,4.85-.9,7.28-4.16-9.07-1.85-15.16,8.46-16.63l.88-11c1.18-1.1,2.75-2.2,3.04-3.63,2.45,3.64,2.34,6.53.28,10.15l6.52.2c-.67,2.1-2.27,3.01-1.42,5.76,8.71-11.15,19.13-1.19,10.26,1.35,3.64,3.2,10.17,2.75,9.97,7.96-4.59-1.77-7.82-4.66-12.09-4.95,3.18,4.28,6.84,7.72,5.73,12.91-4.05-11.31-12.79-18.68-11.61-11.45Z"/>
          <path class="st54" d="M347.98,449.14c1.75.74,1.72,3.49,2.4,4.72-2.77-1.91-5.53-3-9.12-3.22-13.33-.81-13.59-14.46-16.32-17.78,3.35-.35,4.49,1.56,6.07,4.26s4.52,4.74,6.85,7.03l5.01,1.67c1.85,1.83,3.33,2.56,5.11,3.31Z"/>
          <path class="st11" d="M335.27,431.14c1.59-.47,3.68-.06,5.56-1.53l.31-8.83c2.18,4.4,5.09,10.37,3.13,15.67-4.85,1.79-13.76-.38-12.96-4.46,1.7.62,2.84-.52,3.96-.85Z"/>
          <path class="st130" d="M326.4,429.88c-1.43-.64-2.51-2.03-2.28-3.66,1.92,1.38,4.02-2.78,7-.62-2.48.68-5.45,1.24-4.72,4.28Z"/>
          <path class="st132" d="M251.15,381.64l-6.51,2.03c5.68-7.34,4.62-12.44,12.21-16.64,7.56-1.8,1.78,8.52,2.88,12.59l-5.55,3.26c-1.02-.85-2.07-1.55-3.03-1.25Z"/>
          <path class="st28" d="M351.21,480.3l4.81,12.44c-1.13.31-6.18,4.46-7.09,2.69,1.71-3.73-6.18-16.55,2.29-15.13Z"/>
          <path class="st44" d="M347.97,497.04l.58.02c.1.51.04,1.65-.5,2.04-7.42-2.13-13.18,2.96-18.17,2.86-1.34-3.23,2.99-5.67,5.1-2.8v-2.09c2.75-1.48,12.9-4.6,12.99-.03Z"/>
          <path class="st173" d="M319.67,366.98c3.02,6.52,8.01,23.41-5.1,12.8-2.84-.83-3.94-2.15-3.29-3.97-2.88-1.89-4.93-5.5-8.33-6.89,1.11-1.42,3.39.23,4.98-.03l11.74-1.9Z"/>
          <path class="st26" d="M325.89,489.71c-7.37,1.41-11.98,5.71-16.66-.96-7.23-10.29-6.31-21.45-11.35-20.06-.1-1.95-2.95-14.17,2.48-8.78,1.01,2.8,1.5,6.6,3.31,9.33,5.78,8.75,3.99,13.33,8.74,17.1,1.67,1.32,5.03.21,6.67.45,2.27.33,4.04,1.87,6.54,1.78.38-.01.45.96.27,1.13Z"/>
          <path class="st12" d="M332.14,490.14c3.71-1.29,6.32,7.7,2.84,9.02l-5.19,1.85c-2.33-.81-2.99-4.65-2.53-6.95.24-1.18,1.37-3.15.52-5.21.24-.74,2.65-.95,3.13-.33l1.22,1.62Z"/>
          <path class="st4" d="M300.36,459.92c-1.2.59-2.26.93-3.46,1.13-1.3-2.58-1.04-6.32-3.76-7.98.19-1.17-.38-3.48,2.35-4.29.25,7.15,4.1,5.45,4.86,11.14Z"/>
          <path class="st39" d="M315.19,382c-.49-.08-1.18-.5-2.38,0l3.87,13.34c-7.32,1.91-13.5,4.3-20.55,6.87-.81-8.19,10.6-7.07,7.48-18.36,2.29-1.47,4.38-2.95,6.47-3.6.54-3.68,5.94-.97,5.11,1.74Z"/>
          <path class="st69" d="M282.19,381.84c3.96,5.28,5.47,12.29,9.06,17.71,1.07,4.26.18,5.42-2.67,3.48l-16.55-9.17c2.67-6.44,7.49-14.17,10.16-12.02Z"/>
          <path class="st88" d="M283.14,369.81l-6.24,6.9c-4.32,6.19-7.28,5.57-8.77-1.67-3.59.19-5.12-7.26-1.21-8.09,6.96.28,15.26-.71,16.21,2.86Z"/>
          <path class="st29" d="M323.97,374.47c.04,3.56,4.53,17.29-4.64,11.34-2.45-2.76-5.52-5.92-9.25-5.55.08-1.57.4-2.97,1.2-4.45,3.35,1.75,6.65,5.56,10.52,5.91.24-2.67-2.21-12.74-.07-14.85.62,3.07.73,5.49,2.24,7.6Z"/>
          <g>
            <path class="st168" d="M290.61,369.13c3.83,2.45,8.24-2.4,12.34-.21,3.55,0,9.55,3.01,8.33,6.89,2.11,1.52,1.43,4.28-1.2,4.45,0,1.94-1.42,3.46-4.25,4.54.99,4.3-1.97,13.82-6.99,11.21-1.96.95-2.45.03-2.04-2.03-3.34.43-6.67-.29-5.95-3.99l-1.34-.09c-.27-2.3-.74-2.88-1.41-1.73.13,2-.62,1.97-2.23-.07-2.83,1.18-5.83-4.22-3.67-6.26-2.49-.31-6.04-1.7-5.28-5.13-2.52-1.83,3.61-8.44,6.24-6.9-1.73-4.38,6.98-4.85,7.47-.68Z"/>
            <path class="st56" d="M290.84,389.99c.81,2.01.49,2.7-.95,2.05-.66-1.24-2.44-1.67-1.8-3.88.34-1.19-1.5-3.01-1.76-4.44-.57-3.06-1.5-4.63-5.25-5.14-.05-4.65,3.48-7.65,8.05-6.4-2.63,2.26.62,4.09,1.14,5.47.41,3.9-1.17,8.65.57,12.34Z"/>
            <path class="st34" d="M296.8,393.98c-.74,1.83-1.17,3.64-2.79,5.79l-4.12-7.72c.3-.81.47-1.42.95-2.05-.02,1.07.88,1.09,1.12,1.59.55,1.16,2.65.66,2.22-.51-1.29-3.53-2.6-6.5-.69-9.42,2.27,3.92.36,7.69,3.3,12.32Z"/>
            <path class="st45" d="M299.47,380.08c-.43-.12,3.29,6.6,2.25,8.77-.72,1.5-1.28,4.51-4.2,3.85-.95-4.16-.65-8.51-.23-12.32.62-.32,1.8-.4,2.18-.3Z"/>
            <path class="st120" d="M301.94,375.84c-1.95.4-5.29-3.4-4.29-4.74,3.22-3,9.37,2.65,4.29,4.74Z"/>
          </g>
          <path class="st49" d="M266.23,366.13c.25.16.82.51.7.82-.95,2.52.42,5.5,1.21,8.09-3.02.52-.3,4.59-3.67,5.3-1.41.3-2.88.07-3.32-.9-.23-.51.45-10.5,3.31-15.58.43.87,1.08,1.84,1.78,2.28Z"/>
          <path class="st4" d="M278.41,485.66c-.96-9.5,6.55-24.93,9.23-34.06-.19,1.05.98,1.72,1.5,1.03,2.32-3.04.53-6.59,4.12-7.72-.93,5.43-2.25,10.31-4.3,15.07-4.8,11.13-7.62,25.12-10.55,25.68Z"/>
          <path class="st114" d="M294.38,422.11c-.09-1.25.07-3.45-1.23-4.42-1.1-.82-2.56-.74-2.8-1.47-1.06-5.13,4.11-6.62-.48-10.21.75-.12,1.49-.24,2.21-.65l-3.5-2.33c2.4.67,2.65-2.05,2.67-3.48,2.71,6.67,4.59,15.71,3.13,22.56Z"/>
          <path class="st105" d="M347.97,497.04c-3.23-1.89-9.6,1.34-12.99,2.12-2.37-14.61-8.61-10.89,8.67-15.24,1.02,3.14,4.96,9.86,4.32,13.12Z"/>
        </g>
      </g>
      <path class="st0" d="M223.15,256.12c-.54.31-1.54,1.1-2.2.7-3.37-3.99-7.1,2.14-7.18,5.69-.24,3.16-2.1,4.74-2.78,6.61.6-9.12,4.16-17.42,8.71-25.8,1.71,7.65.27,17.61,3.44,12.79Z"/>
      <path class="st162" d="M362.64,225.11c4.72,10.17,8.13,22.37,10.21,33.96-3.31-6.1-7.43-21.47-10.6-28.18-.27-.71-1.29-1.55-1.78-1.56-2.03-.04-2.3,9.72-8.56,13.78,3.65-7.43,7.07-15.21,7.47-24.17,2,1.6,2.32,4.1,3.26,6.18Z"/>
      <path class="st122" d="M260.08,215.99c-1.31,1.86-4.07,1.63-5.91,1.6-.6,3.27-2.87,4.16-4.04,5.67l9.45-16.49.5,9.22Z"/>
      <g>
        <path class="st83" d="M256.51,299.79c1.01,8.25-13.84,2.42-3.22-2.95,1.01-2.1,2.32-3.01,3.93-2.72.23-3.85-.19-7.52-1.25-11.01-1.61-.2-2.11,1.22-1.51,4.26-2.16.06-4.38.24-6.66.54,1.25,2.86-5.21,7.26-7.06,4.33l-2.05.95c-10.48-8.8-6.31-.3-.41,4.51,2.24.82,3.55,2.19,3.94,4.1,1.41-3.09,4.13-.84,1.46,1.47-4.14.66-7-.8-9.88-3.48-5.53.39-8.83-8.15-10.57-12.91-2.38,4.19-9.07.67-6.52-3.26-2.95-.53-4.9-.91-4.74-4.79.88-5.2,6.49-22.24,13.29-20.93-1.31-2.62,3.79-6.4,5.79-3.79,10.52-6.45,23.49-5.24,32.52,2.36l-3.9,2.17c3.21.63,5.06,1.65,5.67,4.18l-5.22-1.58c1.24,2.92,3.45,3.55,1.04,6.32,3.51,12.18,2.83,22.96-4.63,32.24Z"/>
        <g>
          <path class="st73" d="M233.78,299.79c-.67,2.45-2.54,1.52-4.87,1.38-2.6-.16-6.96,2.26-9.43.29-3.3-2.64-4.51-7.69-5.48-11.32-3.59-4.04-3.08-10.93,2.7-6.53,1.21,1.71,1.99,3.34,4.58,3.55-.39-4.79-.9-9.21,2.5-12.48-.52,10.28,3.05,18.6,10.02,25.11Z"/>
          <path class="st103" d="M223.15,256.12c.65-.37,1.95.86,2.09,1.78-4.75,5.59-16.05,18.85-8.55,25.72-.6.4-1.71-.2-2.33-.44-1.76,2.11-.96,4.75-.37,6.97-.57-1.3-1.72-2.14-3.38-2.14-2.97-4.81,3.06-46.44,10.97-31.1-.63-2.52-.29-2.36,1.57-.79Z"/>
          <g>
            <path class="st64" d="M257.21,294.13c-1.99,5.58-5.4,5.33-7.31,8.16l-6.24.99c.18-1.25-.56-1.21-1.46-1.47-2.94-1.53-2.53-6.77-1.48-9.56,2.84-.94,4.73-2.98,7.06-4.33,5.83-1.39,11.31-1.49,9.43,6.21Z"/>
            <path class="st81" d="M240.73,292.25c2.42,1.84.99,6.63,1.48,9.56-15.46-5.17-15.25-22.68-1.48-9.56Z"/>
            <path class="st15" d="M259.74,267.13c-.89,6.36-9.78,4.73-9.38-1.47.62-6.94,9.2-4.64,9.38,1.47Z"/>
            <path class="st68" d="M257.21,294.13c.65-3.81-4.1-6.27-9.43-6.21,1.49-.86,2.62-1.35,5.46-.98-4.16-9.04,11.04-8.46,3.97,7.19Z"/>
            <path class="st52" d="M234.28,268.48c-.11,3.86-4,6.89-7.01,4.12-3.54-4.8,6.1-12.02,7.01-4.12Z"/>
          </g>
        </g>
      </g>
      <path class="st115" d="M341.38,287.88l3.79,2.02c3.1-2.87,8.45,2.62,4.52,5.28-10.21,14.59-30.59-12.02-8.3-7.3Z"/>
      <g>
        <path class="st118" d="M345.45,242.61c-1.28,6.72.14,5.04,5.64,5.42,4.67-8.08,26.17,17.66,20.97,22.04,3.54,6.41-1.4,10.91-4.65,15.94-3.65,5.4-4.02-2.34-2.43-6.27-.32-6.5-1.04-5.46-2.17,3.12-3.7,16.65-16.43,16.25-10.75,11.03l-.86-1.12c2.8-4.55,3-8.06.6-10.52l-4.01,7.53-2.62.13c-1.78,2.37-4.49.8-3.79-2.02-4.43-.98-7.46-.56-11.25,1.28.56,2.46.15,3.09-1.21,1.88-4.16-8.99-2.43-20.54.11-29.75-1.17.26-1.76.85-3.32.41l4.45-4.54-5.27.63c6.78-8.6,15.84-8.92,17.46-9.89,1.4-1.69-.69-5.38,1.42-6.13l1.69.82Z"/>
        <g>
          <path class="st7" d="M367.41,286c.73,5.94-11.32,15.72-15.35,12,.08-.35.15-.72.14-1.09,7.82-7.42,10.9-17.53,9.63-29.4,4.73,6.77,7.01,11.3,3.36,18.3.81.47,1.56.35,2.22.19Z"/>
          <path class="st153" d="M352.06,293.88c-.41.62-1.81.93-2.38,1.3.54-2.94-2.31-4.11-4.52-5.28,2.63-3.14,3.92-6.83,5.98-10.91,6.6,3.45,4.67,10.31.91,14.9Z"/>
          <path class="st154" d="M357.76,270.46c-4.38.85-6.94-6.8-3.52-9.15,5.14-2.14,10.03,6.77,3.52,9.15Z"/>
          <path class="st104" d="M337.12,265.5c.46,4.89-5.12,6.53-7.01,2.83-1.5-4.72,6.61-9.48,7.01-2.83Z"/>
          <path class="st77" d="M341.38,287.88c-2.27.61-4.59.8-6.91.76-.83,1.62-2.13,1.55-2.2,2.37-.11,1.16.63,3.45.62,4.11-6.82-9.03,1.05-11.54,8.5-7.24Z"/>
        </g>
      </g>
    </g>
    <g>
      <path class="st109" d="M404.13,273.38c-2.06-2.58-2.16-4.27-.32-5.06,6.64,2.34,1.7-10.11,6.36-9.57-.32-2.99-.6-10.29,3.11-10.68l.37-13.21c3.76,1.07,7.58,2.32,11.47,3.78l.46-1.1c-3.83-3.77-11.82-10.42-9.19-15.95-3.03,3.09-10.48-25.08-10.1-26.82l-3.55-3.62c-4.17-9.95-9.35-19.45-15.48-28.33l-1.07-4.97s-3.96-1.92-3.96-1.92c-12.52-17.43-29.63-29.15-48.06-39.12l-3.84.67c-14.28-4.61-30.15-7.69-44.64-3.69-1.49-1.62-4.16-2.92.42-4.06,23.4-6.39,49.58,3.16,69.65,15.7,58.25,37.75,46.68,88.39,79.2,115.74-6.75,2.43-12.52.46-19.09-1.32-.58,12.74-3.32,25.85-11.72,33.54Z"/>
      <path class="st134" d="M186.39,147.63c1.35.42,2.19,1.25,2.51,2.48,13,10.66-20.36,10.84-17.69,38.1.47,5.55-9.17,8.48-9.89,2.84-1.75,2.42-3.19.98-2.35-1.51l-1.76-1.28,1.94-8.32-2.18-1.97c-2.22.81-2.77.5-2.98-1.86-1.09.63-1.54.87-1.47-.48.83-.53,1.42-1.57,1.29-3.03.46-2.09,3.09-4.22,5.25-3.3-3.26-4.51,16.71-13.01,19.89-17.27-.06-1.53.66-1.91,1.98-1.9,1.36-3.14,3.1-4.5,5.22-4.1.14.42.34,1.18.23,1.61Z"/>
      <path class="st86" d="M293.01,93.18c-2.61.87-2.04-.54-1.07-2.56-.64-.63-1.16-1.52-.76-2.25,7.28-2.52,1.45-24.01.27-22.53-7.31,14.04-16.02,33.55-12.41,50.44,1.32,1.43.71,1.89-.91.7-1.61.32-3.18-.8-4.71-3.34-27.15-4.07-59.94,16.27-78.99,34.22-2.18,3.69-4.02,4.44-5.52,2.25-1.48.05-3.19-.72-2.51-2.48,25.27-20.01,52.38-41.31,88.58-38.37-5.84-20.61,14.49-34.42,12.85-55.15,11.01,9.94,17.07,28.08,5.2,39.07Z"/>
      <path class="st58" d="M152.53,175.63c.49.55,1.11.48,1.47.48-.21,6.59-17.62,13.85-22.97,9.93-6.28,7.02,22.8,4.7,25.89,2.97,3.35.59,6.8,2.99,3.55,6.6,0,0-3.19,7.9-3.19,7.9,11.57-1.79-16.52,35.36-22.17,30.3-8.46,7.46,8.08,5.69,12.11,6.08l1.51,1.8c4.13-.49,5.12,0,2.99,1.47-.19.88-.48.85-.85,0-8.99,2.18-24.15-1.53-30.48-9.1,22.89,1.78,29.69-20.61,32.68-37.76l-1.34-.99c-15.12,2.74-24.25-2.22-34.17-12.07,13,1.9,24.81-.31,34.96-7.58Z"/>
      <path class="st78" d="M186.15,146.01l-4.45,6.52-2.75-.52c-3.6,2.45-7.18-3.64-8.16-6.85-5.52,1.43-8.17,8.12-12.94,10.73l.63,2.33c-2.4,2.42-1.89,5.38,1.54,8.89-.87,3.95-7.24,8.73-8.24,2.18-.22-1.55,1.56-2.94,1.86-4.67.25-1.44-1.9-3.48-1.53-4.83.73-2.66,11.44-16.88,17.71-19.99l7.86,4.89c2.84-2.08,7.02-2.99,8.47,1.32Z"/>
      <g>
        <path class="st127" d="M176.21,297.47l.95.42c-.25,6.52,2.22,14.86,8.94,17.12,2.74-1.36,7.1,1.69,6.89,4.71,4.48,4.65,14.78,3.87,20.38,1.03,8.11,10.29,17.93,16.87,30.4,20.94,1.2,2.28,1.79,6.05.67,8.21,5.89,14.31-10.22,3.5-15.8,1.32.49,4.64-2.53,5.02-9.08,1.13-1-2.95-2.74-5.61-5.21-7.96-2.71,1.68-5.51.3-8.4-4.13l-1.01.53c-.47-.36-.98-.82-2.23-.55.38,2.79.43,5.31.1,7.89-4.48.51-10.88-7.01-13.02-10.8l.84-2.18c-.25.17-.5.31-.72.38.02,8.5-22.32-24.79-18.25-25.35-.55-.97-.47-1.96.23-2.97-1.57-3.91-1.15-12.05,4.33-9.75Z"/>
        <path class="st117" d="M153.66,243.61c2.82-1,3.32,11.55,2.89,12.07-1.48.08-2.08,1.03-1.8,2.83l1.65,2c2.48,11.23,4.98,22.4,7.49,33.51,4.25,2.95,8.36,11.01,7.75,16.16,2.18,4.05,3.29,8.45,6.99,12.28,2.12,2.09,7.35,14.73,11.26,13.06-1.3-1.85-3.29-3.56-2.49-6.39,2.02,1.39,2.18,3.73,2.63,5.24,3.08,3.91,5.16,8.98,9.67,12.17,2.09-5.73.3-10.2.39-15.63,1.91,1.34,3.8,4.44,3.59,6.39-2.3,3.09-2.71,7.76-.89,10.82-.16,1.22.39,2.43-1.26,4.08-31.24-27.52-48.5-68.16-50.67-109.09h.85c.83-1.65,1.64-1.27,1.93.48Z"/>
        <path class="st51" d="M234.06,354.07l.11.97c-1.26-.67-1.89-2.32-4.91-2.07.76,1.61,2.14,3.02,1.88,5.48-11.19-2.51-19.12-9.89-26.2-17.65,1.46-5.67,2.96,3.93,8.23,3.09-1.37-2.34-3.58-3.51-3.88-6.97,4.36,1.52,5.83,5.4,8.36,8.49,1.52,1.85,3.85,3.08,2.88,6.25,2.35.14,3.62,1.18,6.58,2.36-3.38-9.87,4.95-3.8,6.96.05Z"/>
      </g>
      <path class="st66" d="M293.01,93.18c-4.21,5.49-8.89,10.16-9.92,16.79l3-.25c-.61.77-1.3,1.83-2.13,2.38,2.27,13.65-11.61,8.73-4.92,4.18-1.24-7.6-.1-11.11,3.92-17.42,1.78-2.79,5.93-9.2,8.98-8.24.15,1.07.3,1.95,1.07,2.56Z"/>
      <path class="st124" d="M176.21,297.47c-7.48,4.5,1.21,9.98-4.57,12.72-9.78-15.41-11.15-33.52-15.54-51.15l-1.35-.52c-.13-.71-.92-16.08-1.57-16.22,3.88-1.07,7.1-2.94,9.66-5.61.7.21,2.1.22,2.81.08,2.7-5.69,6.46-9.03,11.26-10.03,2.28,1.6-1.56,6.85-2.29,9.11-.35,14.98-.07,30.53,5.13,44.72,3.51,2.53,3.17,5.69-.99,9.5-.73,2.77-1.58,5.24-2.56,7.4Z"/>
      <path class="st141" d="M179.03,227.28l1.08,3.01c-2.52,12.11-2.98,24.56-1.36,37.35l-.97,1.42,2.21,1.59c.37-2.22,1.07-3.95,2.12-5.19-1.42-4-1.13-6.15.86-6.46l2.5,1.44c3.38,15.85,11.25,28.09,23.76,38.07l-.37,2.4c2.09,1.67,1.42,2.36-1.09,1.52-1.98,1.07-3.77.13-5.35-2.83-2.61-1.62-4.11-3.5-4.52-5.62-2.18,1.83-5.34-2.04-3.66-4.19-2.68-.78-5-2.84-6.96-6.18-.84,1.43-.25,2.43,1.75,3.01l.15,2.36c1.61,1.23,1.13,1.93-.83,1.26.19,2.39-2.64,3.61-4.4,2.15-4.73-7.84-6.24,13.98,2.3,20.05l-.17,2.55c-2.33,2.51-7.62-4.17-9.62-9.44-.66-12.97-.62-11.82,3.87-20.05-7.19-15.17-7.57-32.36-6.36-48.6-3.97,4.58-8.6,7.33-14.33,7.16,6.42-3.5,16.67-9.36,17.26-17.33-1.2-1.39-.7-1.94,1.08-1.39,1.42-1.77,1.76-1.12,1.03,1.93Z"/>
      <g>
        <path class="st125" d="M407.77,265.58c1.91,2.25-3.93,7.44-3.96,2.75l-1.14.09c.2,1.98-.38,3.09-1.74,3.33-4.26,24.94-10.02,57.99-27.55,75.58-.8-1.72-.32-2.79-.38-4.5l-13.79,11.04-.42-7.31c-4.55,3.44-8.37,6.44-14.16,8.64.53-4.97,1.65-8.55.61-13.35l-13.88,4.57-8.21,8.69c-1.62,1.72-3.69,2.46-3.07,4.78-.65,2.1-1.55.82-2.14-.87-3.87.32-8.66-7.17-12.54-5.25,2.05,6.1-16.47,22.12-12.41,12.46l-.92-1.97,7.19-7.99c-.44-2.08.08-3.43,1.54-4.07-2.17-2.05-1.45-3.46,2.18-4.24l2.31-2.09c19.01-1.37,38.52-5.89,54.56-16.55l3.15.13c1.37-3.87,2.98-7.7,4.83-11.47l2.37-.71c-.67-5.54.63-13.41,4.79-17.31-1.69-1.21-1.96-3.42-.82-6.62-4.82,3.16-8.27-4.31-2.65-3.57.96-1.45,2.05-2.15,3.28-2.1l1.64-2.98c12.54-8.93,22.41-22.17,25.44-37.4l2.24-1.54c-.81.11-.8-.14-.09-.71,4.18-1.34,3.86,17.76,3.72,20.55Z"/>
        <g>
          <path class="st163" d="M403.81,268.32c.11,1.62-.28,3.24.32,5.06-.82-.74-1.78-2.96-3.21-1.65.45-2.66.53-5.56,2.6-7.64l.28,4.22Z"/>
          <path class="st170" d="M382.43,313.07c-3.22-2.17,2.22-7.35,5.26-5.97.61.4,1.43.14,2.49,0-1.04,9.62-4.11,18.49-9.73,26.38-1.29,1.81-1.07,4.95-4.64,4.66,1.02-2.75,1.44-5.06.8-7.09-2.63,1.11-1.1,4.57-1.73,5.71-2.84,5.15-7.72,7.94-12.68,10.69-.23-2.95.37-4.63-1.03-6.69-3.74,2.55-7.6,8.1-12.59,7.75-4.73-14.61,16.45-6.5,23.94-30.83,4.87,1.03,9.01-1.05,9.92-4.62Z"/>
          <path class="st63" d="M404.14,245.73c-1.77,15.47-14.94,34.45-29.32,41.92-.53,1.28-1.9,1.2-1.74.27,1.1-3.2,2.24-17.72,5.46-16.81,1.88,1.8,3.95,2.42,5.48-.05,0,0,6.8-10.26,6.8-10.26,4.31-6.51,7.56-13.15,8.63-21.05,2.96,2.22.34,6.59,4.69,5.99Z"/>
          <path class="st42" d="M387.69,307.09c-1.47,1.99-4.59,3.34-5.26,5.97l-8.08,3.22c-.61-3.56.8-8.83,4.65-9.38,2.11-3.93,6.04-8.77,4.61-13.65-4.16-3.02-1.62-7.63,2.69-6.46,4.77,5.77,6,14.05,1.38,20.29Z"/>
          <path class="st19" d="M395.6,290.53c-.11,1.75-1.26,2.67-3.03,4.02-6.93-18.7-9.06-5.07,7.05-28.86.64,3.8-1.63,11-3.41,15.57l-.6,9.27Z"/>
          <path class="st14" d="M386.31,286.8c-1.16.92-2.23,1.47-3.62,3.25,6.36,2.07,1.81,16.95-3.68,16.86l-2.73-1.24,2.92-9.58c1.31.42,2.49,1.04,3.73.79-.73-1.86-2.35-1.79-2.95-2.41-2.43-1.9,1.78-13.28,6.34-7.66Z"/>
          <path class="st142" d="M410.17,258.76c-.99,1.99-1.55,4.61-2.39,6.82-1.05-7.84-6.08-24.05-2.29-31.72.8,2.74.77,4.69,1.61,7.04,3.92,10.95-.51,17.85,3.07,17.86Z"/>
        </g>
      </g>
      <path class="st156" d="M178.96,152.02c-.27,8.28-10.51,6.28-19.89,17.27-7.13-9.27-4.63-10.67,4.09-17.18,1.05-1.76,5.83-8.98,7.64-6.94,3.56-.14,3.23,4.74,8.16,6.85Z"/>
      <path class="st37" d="M158.97,189.54c-1.21,2.53-6.01,2.32-8.9,2.75-8.84,1.32-17.43.37-24.1-5.26,4.46-3.7,16.06,5.22,27.75-6.25.9-3.56,5.74-3.14,8.33-4.48l-3.08,13.24Z"/>
      <path class="st147" d="M156.98,177.97c-1.18,9.01-16.65,12.9-27.06,9.67.42-.47.88-1.04,1.11-1.61,8.59-.18,16.55-4.45,22.97-9.93,1.27,0,2.48.62,2.98,1.86Z"/>
      <path class="st140" d="M291.94,90.62c-12.44,14.85-10.22,14.71-12.9,25.66-8.87-21.66,5.64-33.88,11.82-55.1,6.52,8.71,9.41,21.59,1.08,29.44Z"/>
      <path class="st72" d="M163.89,294.03c-4.05-11.54-6.63-23.5-9.14-35.51.24-.49.37-1.18.2-2-.12-.61,1.72-.96,1.84-.34,2.37,12.25,4.66,24,8.11,35.97.29,1.02-.25,1.87-1.01,1.87Z"/>
      <path class="st67" d="M170.8,145.17l-7.64,6.94c-1.02.36-1.09-.09-.24-1.34,1.53-1,6.38-11.17,7.88-5.59Z"/>
      <path class="st145" d="M163.16,152.11c-1.28,1.14-2.29,2.79-4.01,4.24-.32.89-1.37.6-1.29-.45,1.57-1.84,3.32-3.44,5.06-5.13l.24,1.34Z"/>
      <path class="st98" d="M182.12,265.46l-.5,15.69c-1.92-3.87-3.23-7.84-3.83-12.09,3.65.77,1.17-3.65,2.85-8.13.29,2.01.15,3.64,1.48,4.53Z"/>
      <path class="st71" d="M368.8,205.96c7.68,15.95,9.01,35.89,7.88,53.31-1.06-1.27-.85-2.14-1.07-3.58-.85,1.85-1.64,3.54-1.9,5.6-2.55.21-2.67-.48-.86-2.22-2.95-10.63-6.51-21.2-10.68-31.71.22-.95.6-2.96.64-3.93-3.45-6.5-7.59-11.84-4.36-19.72,2.48,6.27,6.2,11.03,10.91,16.55l-.57-14.3Z"/>
      <path class="st91" d="M322.23,225.95c-.51,1.95-2.95,6.9.98,6.78-2.54,4-3.33,11.41-8.25,13.11-1.48-.18.78-3.79.67-3.6-5.75,11.27-12.08,17.97-23.71,23.9-1.1.61-1.94,1.01-3.17.14-6.94,1.4,14.65-10.4,15.24-13.12,7.43-8.07,13.09-16.57,16.07-27.15.12-1.33,2.15-1.35,2.16-.05Z"/>
      <path class="st8" d="M355.26,229.97c1.2,3.17-6.07,19.96-10.27,16.25-1.41.23-.66-3.05.45-3.61l-2.63-18.4,7.36,7.69c1.23,1.34,4.01-1.05,5.08-1.94Z"/>
      <path class="st151" d="M274.24,238.92l-.93.86c.59,4.18.85,8.4.79,12.65l-1.68,1.07c1.07,7.73-5.44.88-5.19-3.5-1.03-.27-1.03-.62-.02-1.04,1.99-3.58-4.52-11.91.66-12.9-.25-2.78.45-4.43,2.11-4.96.24-2.97.65-5.46,2.92-7.32-.6,4.93.57,9.69,2.21,14.27l-.87.86Z"/>
      <path class="st96" d="M281.9,258.76c-3.13-6.84-12.33-28.07-9-34.97l1.37,8.99,4.02,10.86c2.17,5.88,7.17,14.01,5.06,19.61-.38-2.08-.43-3.47-1.45-4.49Z"/>
      <g>
        <path class="st157" d="M334.16,116.81c17.12,11.86,46.61,23.85,51.02,52.67,3.86,1.26,10.16,19.45,1.68,16.68-1.34-1.53-12.29-11.84-12.87-11.21-1.89,2.04.38,18.88,5.61,20.17.35-3.15.97-6.14,1.86-8.99l3.02-.44c4.11,3.88,7.97,8.07,11.58,12.57l-4.43-12.92c2.61-11.83,14.82,8.19,12.35,12.88,5.4,2.71,7.71,17.45,10.96,23.25l1.45.12c2.16,5.74,6.09,10.53,9.19,15.95l-1.24.87c-3.45-.93-6.5-2.77-9.16-5.51.43,2.15-.08,3.29-1.54,3.41.11,3.18-.67,24.79-5.58,23.42l-2.16-15.96-1.85,1.27c.24,2.52-1.75,3.57-3.58,1.48-1.55,3.57-18.61,39.93-21.93,24.6-4.07-9.68,1.7-21.15-.85-31.65-.68-4.27-4.08-37.9-8.89-33.51,5.13,15.7.68,21.31-9.37,4.43.34,1.18-.63,1.9-1.73,2.53,2.02,3.23,2.26,5.52.71,6.89-1.06,13.97-9.79,20.62-15.59,4.4-2.73,1.65-5.47-11.66-3.76-12.09-2.73-7.96-5.13-16.01-7.22-24.15-1.64-1.25-2.45-3.32-2.44-6.19,1.17,7.27,1.85,14.6,2.05,21.99-2.89,8.89-3.2,19.96-7.24,28.59-.08.22-.49.31-1,.37-5.02,4.46-4.19-5.22-.98-6.78l-1.58-1.86c1.54-11.21-.02-11.16-4.67.13-8.18,11.35-17.56,21.6-28.13,30.75-2.96.37-4.82-1.97-5.57-7.02l-6.29-24.9c-.7.9-1.72,1.15-3.08.74l-1.43,3.1c.05,2.05-.44,3.46-1.48,4.22-.3,2.76-.77,3-3.12,1.49l-4.11-13.59c-2.81,1.35-3.31-26.53-.59-25.91-1.03-3.25-1.65-3.53-1.88-.85,3.3,4.69-9.16,35.18-15.92,32.5-12.34,11.23-16.62,20.23-20.57,15.18-.05-7.2-.08-14.4-.11-21.57-5.14,1.54-1.78-11.67-.51-14.36-2.87-7.6-8.15,25.91-8.83,28.29-.55,13.62-2.89,26.52-5.48,40.06l-1.26,1.19,1.9,15.4-1.1.86c.7,3.09.4,4.84-3.01,2.91-9.35-5.3-17.05-29.12-18.96-39.8-.35,2.89-1.5,4.93-3.44,6.1l-.86,6.46c-2,1.77-1.77-3.86-1.58-3.67.92.97.88,13.49-2.75,7.27-1.97-13.87-3.69-28.61,1.25-41.77.38-1.89.04-2.53-1.03-1.93-4.42,4.98-9.52,9.16-13.58,14.84-.93-2.1.22-3.09-.63-4.82,3.94-9.01,7.47-18.14,10.59-27.41l1.41-.11c2.42-3.27,4.4-7.19,5.92-11.77h1.48c-1.18-2.12,1.07-7.83,3.61-7.48,1.91-.59,2.76-.48,2.57.32l.34,8.31,2.25.6c.43,3.45,1.21,6.78,2.35,10,5-4.36,15.14-18.7,21.81-13.46,1.65-4.82.96-6.88-2.06-6.18-2.41-1.22-3.45-3.66-3.12-7.32-3.57,3.27-6.6,7.07-9.08,11.4-8.69,2.14-2.64-17.8-5.34-22.83,1.85-2.75,2.96-4.98,3.35-6.67-1.25-2.48-10.41,13.49-11.81,14.68l-1.54.39c-6.08,14.53-11.91,29.03-17.47,43.5l-1.45-.21c-2.52,9.95-16.71,19.41-26.43,17.07-25.47,3.39,10.62-9.57,17.99-34.24l-7.11,8.14c2.42-4.99,5.24-17.32,9.26-21.05,13.07,5.97,5.41-16.25,13.11-22.8,4.62-5.41,14.63-10.53,14.96-11.37,1.34-3.41-1.53-4.88-.49-6.77,2.17-.08,2.8-2.57,4.32-3.85l18.44-15.54,19.48-10.56c13.5-6.01,27.55-9.99,42.3-8.52,3.58.64,3.9,5.65,6.21,7.31,3.64,1.67.58-4.37,4.31-6.84,16.36-4.6,35.04-1.1,50.2,4.71Z"/>
        <g>
          <path class="st20" d="M262.16,193.09l.59,25.91,4.52,16.41-1.54,2.77c3.36-.11,5.62,10.81,1.48,10.77-3.39-7.89-12.12-24.88-7.13-32.97h-1.34c-.53-2.57-1.36-2.43-2.49.44-2.38,1.37-4.42,3.64-6.12,6.83.48.64,1.2,1.6.89,2.12-1.5,2.45-11.66,15.46-13.35,16.26l-2.31-.53-.44-1.93c2.91-4.75,8.06-9.06,9.43-14.44,8.37-7.95,14.62-21.17,15.93-32.5,1.21-2.05,1.66-1.41,1.88.85Z"/>
          <g>
            <path class="st46" d="M378.54,271.11l-3.88,15.53c-.86.36-.66,1.43.17,1.01-.35,1.54-1.89,2.17-3.28,2.1l-1.29-2.33c3.17-5.96,4.19-11.78,3.07-17.45l1.06-1.07c-2.41.1-3.79-6.78-.67-7.6-.38-2.83-.45-5.66,1.33-8.16.34-26.4-6.22-49.83-14.71-74.63,15.92,28.36,20.99,61.07,18.2,92.61Z"/>
            <path class="st111" d="M406.28,194.76c2.78,18.41-9.71-15.55-12.39-11.39-2.19,1.74,5.66,11.08,4.5,21.18-3.81-4.84-6.76-8.5-10.51-12.47-1.64-1.74-2.48-4.37-5.41-4.97.04,4.14-.43,7.22-1.82,11.53-9.97-6.1-9.37-16.67-8.55-27.12,6.73,3.59,11.55,8.52,16.69,13.92,1.46-6.48-3.13-10.81-3.62-15.96l-.86-5.21c-1.91-3.15-2.91-8.7,1.86-6.41,8.34,11.41,15.13,23.69,20.11,36.91Z"/>
            <path class="st164" d="M334.16,116.81c20.93,8.54,38.8,22.96,52.01,41.04-1.56.43-2.19,2.7-1.36,4.04,1.84,3,.17,5.52.37,7.59-9.09-24.14-29.82-41.83-53.15-51.99.53-.73,1.4-.68,2.13-.68Z"/>
            <path class="st150" d="M425.57,237.53c1.22.62,2.48.8,4.65,2.09-5.6.92-11.57.09-16.11-3.7-.25,4.65.42,8.25-.83,12.15l-.14-22.39c2.29,6,7.3,9.25,12.44,11.85Z"/>
            <path class="st146" d="M416.38,221.59c-.54.95-.93,2.1-2.61,2.58-2.38-9.46-5.98-17.69-9.8-25.95l1.85.85.46-4.3,10.1,26.82Z"/>
            <path class="st47" d="M185.87,183.07c3.01.9-1.9,9.32-4.17,9.52.09,7.82-5.91,13.97-8.09,21.03-4.75,12.31-6.3,26.67-19.95,29.99-.36.39-1.69-.08-1.93-.47.5-1.99-2.05-.94-2.99-1.47,1.16-2.14,3.57-3.49,7.22-4.06,18.5-15.61,13.1-32.4,30.57-59.76,1.02.82.8,2.56-.66,5.22Z"/>
            <path class="st112" d="M148.74,241.68c-4.83.94-10.31-.98-14.82-2.74,12.5-.91,26.94-6.22,33.68-17.81-3.24,14.39-5.5,17.95-18.87,20.54Z"/>
            <path class="st59" d="M135.12,233.79c-.03,1.87-.76,2.74-2.69,4.36l8.76.04c-4.57,1.62-8.88.94-13.63-1.13l7.57-3.27Z"/>
            <path class="st10" d="M223.17,204c-4.05,15.27-1.27,9.78-6.83,35.67,1.18-4.93,3.29-8.56,6.32-10.9l1.33.91c.13,5.92.21,11.75.23,17.49,2.45-2.66,5.17-5.35,8.14-8.09l2.56.11c1.56-.72,1.71-.08.44,1.93l.97,2.01c-.12,1.1-9.47,11.02-11.22,12.86-.51.54-1.24.46-1.96.14-2.29,3.05-5.27-2.64-4.56-5.92-3.85,5.83-5.99,12.14-7.59,18.93l1.45,2.06c-.66,5.25-.86,10.55-.61,15.88l-1.23.94c.7,6.07,4.52,17.37,6.16,17.92.02.54.31,1.13.02,2.23-3.83-1.07-6.29-3.71-9-5.71.47-.83,1.7-2.16,2.49-2.69-2.27-3.21-3.06-6.58-1.88-9.96-.95-8.2-5.03-21.85-3.95-29.84,1.3,4.2.23,8.36,3.11,12.43,5.97-31.93,5.65-71.39,27.35-97.33-4.13,9.54-10.82,18.48-11.73,28.94Z"/>
            <path class="st18" d="M208.39,289.8l2.62,7.38c.4,1.13,1.53,2.01.46,3.66-.55.85-1.33,1.27-2.59.08l-9.66-9.12c-9.92-9.37-12.93-21.51-16.23-32.79.66-4.91,2.17-9.53,3.58-14.35,3.49,16.84,7.85,35.74,21.07,47.52.75-1.09.31-1.84.75-2.38Z"/>
            <path class="st124" d="M179.03,227.28c-.43-.67.3-2.15-1.03-1.93.47-.28,4.67-12.5,5.86-11.25-.13,4.77-3.24,8.95-4.82,13.18Z"/>
            <path class="st102" d="M322.23,225.95l-1.03.48c-3.31,15.87-17.99,31.94-32.88,38.48-2.74,3.53-7.2,4.63-6.29-1.11l-.13-5.05.85-.26c-4.29-11.2-9.77-22.7-9.84-34.71,1.21-.99.61-4.02,3.95-5.45l9.1,36c11.14-12.64,25.98-22.47,32.34-38.95,1.12-2.63,1.22-5.66,3.43-7.11.99,6.79,2.11,12.38.51,17.67Z"/>
            <path class="st53" d="M189.71,197.24l-.35-8.31-2.56-.33-3.61,7.47c-2.18,1.49-2.68.32-1.49-3.49,4.51-10.27,8.83-23,18.18-29.81,1.46.28.83,1.69.3,2.51-3.18,2.38-1.22,5.81-.76,8.92.83,5.61-2.56,11.25,1.1,17.25,3.26-6.27,8.62-14.31,11.89-12.38,2.3,4.78-2.21,8.42,6.67,7,.03,6.04-1.56,11.55-3.46,17.02-3-1.94.18-7.09-2.12-8.06-.43-.18-2.08-.4-2.56.02l-9.59,8.32c-2.73,2.37-4.28,6.29-8.14,6.93-2.58-4.36-2.23-9.16-3.5-13.07Z"/>
            <path class="st159" d="M293.91,191.89c.52,6.05-1.37,12.21-4.55,12.84-3.4.18-12.74-11.72-19.9-2.89-3.8-.32-1.4-21.06,3.18-31.25l1.95,8.9c4.79,6.89,12.54,18.38,19.32,12.4Z"/>
            <path class="st16" d="M244.35,224.75c3.73,3.02-7.15,12.9-9.43,14.44-4.1,3.26-7.32,8.68-11.83,11.96-2.61-6.63,1.28-13.87-.61-21.34-.42,1.22-5.29,12.8-5.46,13.72-7.69,4.89,1.6-24.51,2.63-27.83,1.18-3.95-.09-9.04,3.53-11.7l-1.15,13.22c1.83-1.51,2.6-2.79,3.84-4.55l-.86,27.11c3.66-.86,5.2-3.84,7.5-6.26,2.77-2.92,6.12-5.21,8.68-8.35,1.12-1.38,2.41-.6,3.18-.42Z"/>
            <path class="st131" d="M331.85,187.97c2.97,11.65,7.43,24.59,10.97,36.24,2.63,4.43,6.36,14.49,2.63,18.4-1.14,4.41-5.76-10.79-5.86-12.94-.15-2.85-6.41-18-6.97-16.65-2.37,14.96-9.38,29.1-19.59,40.28-3.93-.82-.39-6.77,1.94-7.46,1.96-4.02,3.89-8.14,5.81-12.37l2.45-.74c8.34-24.65,9.81-53.34-3.7-76.5,7.31,2.38,10.5,24.74,12.33,31.74Z"/>
            <path class="st3" d="M237.53,197l-10.21,11.67c-.47-8.96,2.98-17.27,7.54-25.57,1.79,3.15.68,5.67,1.25,8.5,3.95.41,3.26,3.16,1.42,5.4Z"/>
            <path class="st41" d="M199.88,162.78c-5.32,6.31-9.68,13.18-14,20.28.43-9.49,12.16-21.63,19.98-27.45-1.61,3.16-4.12,4.97-5.98,7.17Z"/>
            <path class="st169" d="M339.06,212.12c-4.17-6.83-8.05-15.63-7.22-24.15,4.55,7.44,6.61,15.27,7.22,24.15Z"/>
            <path class="st144" d="M269.99,231.1c.23,2.98.6,8.22-4.25,7.08-1.07-6.44-2.83-12.68-2.98-19.18l5.11,11.26c.14,1.72.94,1.48,2.13.84Z"/>
            <path class="st152" d="M302,202.5c-.69,1.47-1.23,3.67-3.25,1.16l5.14-18.82c2.58,6.27.8,12-1.89,17.66Z"/>
            <path class="st24" d="M304.09,118.61c-5.56-.14-9.28-2.99-8.25,2.64-3.43-.48-6.66-1.39-9.44-4.35,6.27-3.02,12.96-2.61,17.7,1.72Z"/>
            <path class="st165" d="M244.34,192.26c2.72.42.94,8.66-4.29,11.86-1.12-5.73,2.65-12.12,4.29-11.86Z"/>
            <path class="st101" d="M262.16,193.09l-1.88-.85c.64-7.2,1.55-14.23,3.2-21.33,1.61,3.96-.24,7.36-.51,11.05l-.81,11.13Z"/>
            <path class="st9" d="M183.19,196.08c-10.16,23.03-7.98,10.59-1.49-3.49-.12,1.42,0,3.15,1.49,3.49Z"/>
            <path class="st82" d="M310.52,192.05c.4,1.28.36,2.71-.37,3.42-.47.46-1.28-.24-2.91.26.15-4.38-.44-8.63.08-13.9l3.2,10.23Z"/>
            <path class="st50" d="M355.54,196.62c-4.35-3.63-3.68-8.52-4.18-12.6,3.65,3.26,5.05,7.6,4.18,12.6Z"/>
            <path class="st149" d="M348.69,193.64c-4.17-2.73-4.06-6.93-5.43-11.05,3.46,2.22,6.01,6.32,5.43,11.05Z"/>
            <path class="st61" d="M312.01,186.79c3.8,2.51,3.43,11.44,2.58,12.15-1.53,1.27-1.42-5.36-2.58-12.15Z"/>
            <path class="st9" d="M189.71,197.24c-.94-2.88-.65-5.27-1.01-8.56-.62,3.05-2.48,1.97-1.9-.07l2.85-3.72c.58,4.57.42,8.34.07,12.35Z"/>
          </g>
        </g>
      </g>
    </g>
  </g>
  <line class="st80" x1="287.56" y1="334.37" x2="298.22" y2="334.59"/>
</svg>