<?xml version="1.0" encoding="UTF-8"?>
<svg id="Layer_1" xmlns="http://www.w3.org/2000/svg" version="1.1" viewBox="0 0 1024 1024">
  <!-- Generator: Adobe Illustrator 30.3.0, SVG Export Plug-In . SVG Version: 2.1.3 Build 182)  -->
  <defs>
    <style>
      .st0 {
        fill: #e7dedc;
      }

      .st1 {
        fill: #e6dddb;
      }

      .st2 {
        fill: #56453a;
      }

      .st3 {
        fill: #97767c;
      }

      .st4 {
        fill: #743c3a;
      }

      .st5 {
        fill: #5a211d;
      }

      .st6 {
        fill: #f2eaea;
      }

      .st7 {
        fill: #7d3e32;
      }

      .st8 {
        fill: #773d36;
      }

      .st9 {
        fill: #dbb0b2;
      }

      .st10 {
        fill: #a6685f;
      }

      .st11 {
        fill: #7b4342;
      }

      .st12 {
        fill: #596483;
      }

      .st13 {
        fill: #aa7166;
      }

      .st14 {
        fill: #9b94ac;
      }

      .st15 {
        fill: #d4c3c6;
      }

      .st16 {
        fill: #886761;
      }

      .st17 {
        fill: #f0cdb9;
      }

      .st18 {
        fill: #de9b8a;
      }

      .st19 {
        fill: #bfc8ca;
      }

      .st20 {
        fill: #4c1214;
      }

      .st21 {
        fill: #ddaa94;
      }

      .st22 {
        fill: #864842;
      }

      .st23 {
        fill: #882335;
      }

      .st24 {
        fill: #b6adb6;
      }

      .st25 {
        fill: #e9af7f;
      }

      .st26 {
        fill: #f5ddc2;
      }

      .st27 {
        fill: #3e3550;
      }

      .st28 {
        fill: #192418;
      }

      .st29 {
        fill: #875b60;
      }

      .st30 {
        fill: #b52b36;
      }

      .st31 {
        fill: #ecaf9b;
      }

      .st32 {
        fill: #deb8a4;
      }

      .st33 {
        fill: #9f7077;
      }

      .st34 {
        fill: #5c6584;
      }

      .st35 {
        fill: #854947;
      }

      .st36 {
        fill: #e6a085;
      }

      .st37 {
        fill: #40516e;
      }

      .st38 {
        fill: #d6a694;
      }

      .st39 {
        fill: #d4a292;
      }

      .st40 {
        fill: #f3ece5;
      }

      .st41 {
        fill: #ad7464;
      }

      .st42 {
        fill: #f7dec6;
      }

      .st43 {
        fill: #43061a;
      }

      .st44 {
        fill: #7a4443;
      }

      .st45 {
        fill: #f6dcc2;
      }

      .st46 {
        fill: #432433;
      }

      .st47 {
        fill: #475c79;
      }

      .st48 {
        fill: #4b566e;
      }

      .st49 {
        fill: #b37464;
      }

      .st50 {
        fill: #f4b49a;
      }

      .st51 {
        fill: #556282;
      }

      .st52 {
        fill: #675e77;
      }

      .st53 {
        fill: #e99781;
      }

      .st54 {
        fill: #e4a896;
      }

      .st55 {
        fill: #ac8184;
      }

      .st56 {
        fill: #e9e0e1;
      }

      .st57 {
        fill: #7d5d4a;
      }

      .st58 {
        fill: #d8b3b5;
      }

      .st59 {
        fill: #ad8d98;
      }

      .st60 {
        fill: #655a72;
      }

      .st61 {
        fill: #46231c;
      }

      .st62 {
        fill: #566285;
      }

      .st63 {
        fill: #343147;
      }

      .st64 {
        fill: #f6d0b7;
      }

      .st65 {
        fill: #703c34;
      }

      .st66 {
        fill: #34161d;
      }

      .st67 {
        fill: #7e4240;
      }

      .st68 {
        fill: #efe3e0;
      }

      .st69 {
        fill: #fbe2c8;
      }

      .st70 {
        fill: #c0a9b0;
      }

      .st71 {
        fill: #35334d;
      }

      .st72 {
        fill: #465d7a;
      }

      .st73 {
        fill: #331421;
      }

      .st74 {
        fill: #e9dbdd;
      }

      .st75 {
        fill: #7b423e;
      }

      .st76 {
        fill: #633025;
      }

      .st77 {
        fill: #69312c;
      }

      .st78 {
        fill: #a56a5f;
      }

      .st79 {
        fill: #967e78;
      }

      .st80 {
        fill: #62261f;
      }

      .st81 {
        fill: #382c1c;
      }

      .st82 {
        fill: #331d0e;
      }

      .st83 {
        fill: #595d7b;
      }

      .st84 {
        fill: #cf9d8f;
      }

      .st85 {
        fill: #f3dbc0;
      }

      .st86 {
        fill: #282b42;
      }

      .st87 {
        fill: #7b4a48;
      }

      .st88 {
        fill: #7f4440;
      }

      .st89 {
        fill: #2c2c47;
      }

      .st90 {
        fill: #1e1f19;
      }

      .st91 {
        fill: #d7a896;
      }

      .st92 {
        fill: #ebb49e;
      }

      .st93 {
        fill: #eab09c;
      }

      .st94 {
        fill: #894e45;
      }

      .st95 {
        fill: #9f9ab3;
      }

      .st96 {
        fill: #475d79;
      }

      .st97 {
        fill: #391d21;
      }

      .st98 {
        fill: #b67763;
      }

      .st99 {
        fill: #811d30;
      }

      .st100 {
        fill: #998183;
      }

      .st101 {
        fill: #9c9ab1;
      }

      .st102 {
        fill: #faf8f7;
      }

      .st103 {
        fill: #8d5444;
      }

      .st104 {
        fill: #9198b1;
      }

      .st105 {
        fill: #7b3e31;
      }

      .st106 {
        fill: #32131a;
      }

      .st107 {
        fill: #914e42;
      }

      .st108 {
        fill: #f1887b;
      }

      .st109 {
        fill: #43081a;
      }

      .st110 {
        fill: #955b51;
      }

      .st111 {
        fill: #8f95b2;
      }

      .st112 {
        fill: #2e1d0b;
      }

      .st113 {
        fill: #613428;
      }

      .st114 {
        fill: #7c4043;
      }

      .st115 {
        fill: #3f2531;
      }

      .st116 {
        fill: #6c3d31;
      }

      .st117 {
        fill: #ba8680;
      }

      .st118 {
        fill: #efe9ea;
      }

      .st119 {
        fill: #b4a5af;
      }

      .st120 {
        fill: #d5ac9e;
      }

      .st121 {
        fill: #642d27;
      }

      .st122 {
        fill: #cbb6ba;
      }

      .st123 {
        fill: #c9998c;
      }

      .st124 {
        fill: #e9c6b2;
      }

      .st125 {
        fill: #a1543f;
      }

      .st126 {
        fill: #a2856f;
      }

      .st127 {
        fill: #9e9dbc;
      }

      .st128 {
        fill: #793b32;
      }

      .st129 {
        fill: #af7469;
      }

      .st130 {
        fill: #f3d9c1;
      }

      .st131 {
        fill: #e9ae9b;
      }

      .st132 {
        fill: #e5a089;
      }

      .st133 {
        fill: #e5b19a;
      }

      .st134 {
        fill: #b27564;
      }

      .st135 {
        fill: #743c3c;
      }

      .st136 {
        fill: #4e546b;
      }

      .st137 {
        fill: #313149;
      }

      .st138 {
        fill: #a85943;
      }

      .st139 {
        fill: #b49f88;
      }

      .st140 {
        fill: #f6c3a9;
      }

      .st141 {
        fill: #774445;
      }

      .st142 {
        fill: #281c14;
      }

      .st143 {
        fill: #f7c6ac;
      }

      .st144 {
        fill: #4a4460;
      }

      .st145 {
        fill: #69313a;
      }

      .st146 {
        fill: #90859b;
      }

      .st147 {
        fill: #89646c;
      }

      .st148 {
        fill: #3b344d;
      }

      .st149 {
        fill: #1b1f18;
      }

      .st150 {
        fill: #db9785;
      }

      .st151 {
        fill: #662421;
      }

      .st152 {
        fill: #5c1622;
      }

      .st153 {
        fill: #d2b7ba;
      }

      .st154 {
        fill: #8d564d;
      }

      .st155 {
        fill: #8d8296;
      }

      .st156 {
        fill: #edb680;
      }

      .st157 {
        fill: #7b5253;
      }

      .st158 {
        fill: #f7f4f5;
      }

      .st159 {
        fill: #e6ab97;
      }

      .st160 {
        fill: #efad92;
      }

      .st161 {
        fill: #ccb9b8;
      }

      .st162 {
        fill: #251d35;
      }

      .st163 {
        fill: #e39f87;
      }

      .st164 {
        fill: #3c4054;
      }

      .st165 {
        fill: #831e30;
      }

      .st166 {
        fill: #54546e;
      }

      .st167 {
        fill: #ebac97;
      }

      .st168 {
        fill: #4b1412;
      }

      .st169 {
        fill: #dfced1;
      }

      .st170 {
        fill: #eae4e4;
      }

      .st171 {
        fill: #efe4dd;
      }
    </style>
  </defs>
  <path class="st142" d="M601.28,738.32c3.67,17.26,23.23,37.43-4.38,44.94-2.96,8.75-15.09,8.19-22.46,11.24-2.62,17.9-10.89,74.93-13.77,91.79,8.63,23.92-2.65,40.72-29.81,26.33-8.82-7.14-4.52-20.44-5.81-30.29.48-15.37-4.03-29.66-4.19-44.61,7.36-11.04,5.21,11.66,5.16,16.76,1.65,1.55,3.38,3.26.66,4.34-1.54,6.44,6.03,12.74,1.03,18.75,5.71,9.25.21,24.21,7.87,31.14,7.64,2.69,16.93,3.7,22.53-2.2-1.79-.76-2.32-4.71-.13-5.11-6.86.77-6.74-3.86-1.05-8.16-5.76-23.34,13.24-48.31,7.61-69.2,7.42-5.94-.22-22.31,5.28-23.61.63-1.58,1.43-3.73-.04-4.91-.53-.69-21.33,1.95-13.93-2.45,3.01-6.92,5.13-7.44,6.34-1.58,8.77-2.51,19.27-3.22,27.81-8.11,0,0,1.91,1.26,1.91,1.26.9-2.41,2.58-4.64,5.31-5.38-2-2.85,8.28-6.71,9.43-7.96-1.04-3.11-14.23-43.89-5.36-32.98Z"/>
  <path class="st66" d="M639.96,455.57c-1.09,3.49-7.01,3.5-8.26,7.76-3.66-13.61,2.96-28.04,2.61-42.13l2.37,20.41c.98,1.05-2.1,19.11,3.28,13.97Z"/>
  <path class="st97" d="M525.05,882.33c-2.69,2.03-.41-17.76-1.05-18,2.21.07.57,16.71,1.05,18Z"/>
  <path class="st97" d="M525.63,903.5c-.87-2.48-1.39-17.53.43-12.25,0,0-.43,12.25-.43,12.25Z"/>
  <path class="st139" d="M685.98,416.33c1.99-7.05,10.08-2.76,1.49,1.05-.6.22-1.45.21-1.49-1.05Z"/>
  <path class="st46" d="M453.8,852.08c-.2,3.49-1.35,7.63-5.6,8.51,2.66,4.86-4.76,11.28-6.55,15.3-3.33,6.02-3.87,13.8-7.92,19.42-16.92-4.19-30.32-2.45-22.4-25.39,1.28-3.9,1.07-18.66,5.23-20.94-3.09-5.58,3.62-11.53,2.3-2.74,8.88,8.69,26.42,15.01,34.94,5.84Z"/>
  <path class="st0" d="M459.78,840.47c-2.29,4.5-7.45,14.53-10.21,18.65-24.18.1-40.07-10.35-27.7-34.92,11.15,2.03,23.14,14.74,38.01,12.29,1.09.52,1.06,1.84-.09,3.99Z"/>
  <g>
    <path class="st106" d="M426.07,815.44c.77,2.41-2.38,8.39-4.2,8.76,0,0,1.62,1.63,1.62,1.63-4.21,12.16-1.98,14.2-6.43,15.38,2.46,22.95-23.19,50.15,15.87,51.82,2.21-12.08,12.13-21.57,13.87-33.15,8.53-.41,4.45-8.62,8.13-14.33.14-5.36,7.86-4.31,4.11-7.7,4.67-5.06.91-9.95,7.08-10.82-3.41-3.03,4.77-7.35,4.57-13.4,1.72-6.57,12.65-10.8,6.42-1.56,6.27,1.13-30.43,65.73-29.99,68.77-14.39,4.89-2.25,30.68-15.16,37.31-18.22,6.45-35.44-16.51-28.56-32.89,1.7-8.66,23.22-104.01,22.69-69.83Z"/>
    <path class="st16" d="M430.03,911.17c-.1-3.06.7-6.04,2.16-8.78,3.54,1.78,1.88,8-2.16,8.78Z"/>
  </g>
  <path class="st115" d="M529.01,825.62c-5.98,7.1,6.08.53,5.93,5.93,8.74,1.73,17.69,1.25,26.28-1.03-.37-3.44,6.23-6.95,4.76-1.05-4.23,13.13-26.52,7.02-37.71,5.44-.67.58.42,17.13,1.06,17.74,26.75,12.29,40.07-13.35,31.68,5.22-1.68,12.34-1.13,28.26-6.77,38.58-6.65,1.25-23.3,3.46-24.64-7.07.57-5.42-10.63-71.51-.58-63.77Z"/>
  <path class="st97" d="M556.92,893.24c-2.37,8.08-4.33,5.43,1.05,8.16-4.17,2.93,5.22,8.25-3.73,9.42-2.03,2.99-4.23,2.93-7.38,1.83-25.5.95-13.88-18.31-19.15-35.08,3.58,2.56,3.9,7.42,2.14,11.76,5.9,8.72,18.7,6.75,27.08,3.91Z"/>
  <path class="st97" d="M563.44,851.4c-4.74-4.34-1.44-17.24,2.7-21.13,0,0-2.7,21.13-2.7,21.13Z"/>
  <path class="st97" d="M527.02,865.3c-1.91.51-.59-10.08-1-10.81,2.36,1.56,8.65,3.59,1.3,4.05,0,0-.3,6.77-.3,6.77Z"/>
  <path class="st79" d="M557.97,901.4l.13,5.11c-3.44.67-4.41-6.93-.13-5.11Z"/>
  <path class="st97" d="M524,863.33c-2.13-.3-.63-10.65-1.05-12.02,2.24.29.63,10.62,1.05,12.02Z"/>
  <path class="st68" d="M564.82,825.87c-5.5,16.1-54.78-.66-31.61,1.29,10.68,2.11,21.06,1.07,31.61-1.29Z"/>
  <path class="st1" d="M529.01,825.62c1.4.32,3.12.55,4.21,1.54-2.87.28-6.93-.69-3.45,3.18-3.48.09-5.4-5.6-.76-4.73Z"/>
  <g>
    <path class="st162" d="M547.99,539.91c3.85,4.54,6.19,19.61,8.97,19.38,3.54,3.2,3.77,14.91,8.61,13.91-1.58-6.34-.09-19.26,6.41-8.62,1.25,7.03,2.4,15.6,7.11,20.87,1.48,4.08-6.31,13.31-8.26,5.86-13.28-.18,1.75-15.49-19.95-1.59,18.15,11.45-9.34,33.89-19.32,41.07,10.17,40.63-7.23,84.53,21.41,119.25,15.48,2.37,53.65-31.93,48.32-11.73-2.05-1.02-2.06.76-.02,5.33-18.26,6.63-8.39,22.47-3.59,36.87-3.65,4.91-8.48,5.61-8.53-2.06-1.36-3.44-7.29-29.63-7.52-29-39.16,13.43-33.06,10.62-49.62-22.9-8.52,14.5-10.66,35.19-26.19,42.52-.82,4.68,1.76,23.4-4.52,18.46,0,0-.51-22.07-.51-22.07-7.23-2.21-6.42,9.99-11.84-1.74-1.12-1-27.93-6.19-29.43-6.06-.55.05-4.53,7.49-5,9.41-1.19.34-3.13-3.13-1.32-2.8,5.24-17.1-32.4-12.91-31.39-25.82-3.42-1.93-.5-3.03,1.8-4.53,25.45,13.9,57.61,24.32,86.86,23.44,18.55-35.75,23.63-82.68,14.55-122.76-14.69-7.74-58.52-2.81-46.82-29.3-14.98,3.05-24.59-11.59-20.98-23.91-4.58-3.84-4.55-10.93-6.3-15.98-4.99-.04-10.76,6.72-15.22,3.96-2.83-11.76,16.31-11.18,24.22-12.41,6.87-11.22,9.57,23,17.14,22.84,6.98,12.73,20.17,5.15,13.08,12.75.16,4.47-4.65,16.06-7.05,20.08,4.21,2.72,35.5,13.46,36.77,11.96.49-5.62-24.05-16.29-15.88-22.75,4.19-13.55,2.03,10.84,13.07,5.93,0,0,.33,2.44.33,2.44,4.47,2.96,2.49,8.31,7.33,9.24,3.13-1.71-1.14-9.41,4.14-11.06.81-4.86,2.06.65,4.23,1.27,0,0-1.84,12.25-1.84,12.25l18.67-23.08c-16.82-11.19-7.87-16.44,6.57-21.67-3.98-10.32-7.05-21.98-13.58-30.11-3.95.85-3.49-3.77.62-4.76.09-3.11,2.29-5.27,4.49-2.42Z"/>
    <path class="st149" d="M689.18,412.23c1.15,1.87-1.23,4.35-3.2,4.1,1.99,2.38-2.99,4.6-4.21,6.84,4.57,1.09-6.16,16.33-8.79,12.19.58,8.6,11.34,16.03,10.7,24.06,3.09,1.16,6.75,5.78,4.27,8.94,3.03,1.55,3.63,2.74,3.51,6.42,2.29,1.32,3.28,3.23.57,4.49-34.63,40.99-85.78,75.11-117.06,119.11,3.88,14.81,13.84,57.39,18.54,71.4-.15,10.21,32.44,63.98,6.36,64.41-2.11-3.9,2.78-7.25,4.85-10.79-3.27-7.17-49-154.29-31.58-130.22,22.99-33.37,58.79-61.31,88.44-91.21,9.07-2.31,15.21-16.36,23.64-22.26.99-4.06-.21-10.85-4.16-12.68-19.74-48.25-21.05-11.67-47.67-.52-6.12,4.62-10,2.44-2.29-2.1-1.8-.76-1.41-1.47.58-1.08l2.11-5.85c6.43-.4,7.82-5.27,12.87-8.44,0,0,16.74-15.34,16.74-15.34,17.25,1.18,11.43-15.15,25.3-24.32,3.32-3.34,5.07,3.67.46,2.87Z"/>
    <path class="st90" d="M420.88,735.41c5,5.02-7.61,12.51-9.98,20.05.72,16.08-21.01,8.86,16.25,27.54,6.27-2.91,13.66,5.82,6.57,5.47-2.81,7.82-25.81-10.5-32.5-14.21-7.31-3.82,14.56-32.93,15.08-37.57-19.31-15.45,32.22-54.03,18.86-82.19-13.15,15.63-39.22,43.85-51.35,59.62-4.72,6.52-11.67-1.78-16.19,4.57-4.92-.25-4.56-3.56.6-3.49-4.01-3.63-12.98-6.19-12.4-10.93-2.78-4.11.18-3.29,3.05-1.06,2.1-2.04,4.35.45,2.8,2.88,5.31,2.18,11.84,6.51,17.26,4.22,19.57-22.25,38.92-44.71,58.07-67.38,7.11-6.86,11.13-1.75,5.36,4.47-.05,9.06-.2,18.18-.47,27.35-3.44,20.74-31.07,41.36-21,60.67Z"/>
    <path class="st28" d="M432.78,570.44c-8.13,18.54-30.18,40.97-44.4,60-12.61,19.61-41.72,36.42-43.69,58.76-16.02-11.85,13.22-28.58,19.03-39.14,7.43-8.57,35.29-42.54,43.01-51.9l11.41-14.59c3.1-8.64,5.02-14.36,14.65-13.11Z"/>
    <path class="st66" d="M631.14,438.4c1.07,8.94-8.74,18.5-8.39,29.04,3.27-3.87,6.06-4.89,8.36-3.04-.72,1.33-3.55,1.63-2.52,4.53,12.96-7.46-5.93,10.05-10.01,13.35-22.77,16.07-43.95,49.79-70.59,57.63-4.61-.79-.37,7.39-3.54,5.33-5.04-2.4-.57,3.48.59,4.93-.42,5.78-.43,11.5-.01,17.15,2.89.12,2.67,2.42-.04,3.05l-1.27,5.9c-2.37.89-1.17-17.24-1.6-17.91-5.24-2.64-3.68-11.35-7.57-15.79-7.94-3.28-14.84-7.48-13.56,6.67-.52,1.81-2.68-5.76-2.94-7.03-2.47-.16-10.07.08-5.71-3.01,39.62-15.12,84.68-34.72,105.54-72.83,3.54-3.7-2.83-29.58,3.47-18.96,6.11-10.88,5.8-15.54,9.8-9.02Z"/>
    <path class="st47" d="M568.71,591.95c11.17,37.82,24.3,94.7,38.38,132.29-89.23,78.02-67.57-37.23-77.27-93.81,4.84-3,14.9-14.02,18.66-18.44,7.83-12.87,10.3-12.94-.5-23.06,12.13-1.79,14.04-20.56,20.72,3.01Z"/>
    <path class="st72" d="M684.21,469.06c-15.45,43.81-76.85,82.45-108.51,118.44.93-4.53-1.15-6.76-2.89-9.91-2.64-4.75-1.69-16.82-5.21-15.02-1.71,1.33.77,14.96.43,16.93-2.95-2.03-2.54-5.99-6.01-1.91.57-7.76-13.63-22.59-4.61-26.1,24.05-29.62,47-60.38,76-84.99,30.69-25.82,30.31-45.11,50.81,2.56Z"/>
    <path class="st48" d="M490.13,592.59c5.53.37,8.61,7.83,13.12,3.7,1.78-1.17,2.23-.36.59,1.14-1.4,11.58,3.99,10.87,10.75,17.4,3.29,4.54,7.36,8.01,9.76,13.82-15.35-5.3-29.82-8.25-44.27-14.3l8.13-17.3c-7.69-1.87-15.19-.07-22.84.44-2.1-7.61-11.71-23.31,2.33-21.04,6.11,5.73,12.99,22.45,22.42,16.14Z"/>
    <path class="st24" d="M485.84,552.5c6.44,6.87,17.48,9.84,24.44,15.77-7.63-2.34-12.77,7.88-17.32,11.84-4.07-2.72-13.94-2.22-18.12.32-4.89-5.05-11.26-17.7-11.71-25.21,10.39-7.98,16.16-9.57,22.71-2.72Z"/>
    <path class="st136" d="M551,557.24c9.06,25.22,12.47,17.02-9.66,30.3,21.5,13.9-4.31,26.37-13.2,41.35,1.07-6.86,2.29-23.18,8.3-27.59,3.91-10.96-9.94-10.92,5.65-22.74-.74-3.29,3.58-3.85,2.89-8.18-.26-5.13-2.87-22.68,6.01-13.13Z"/>
    <path class="st71" d="M616.32,482.32c-20.31,23.02-40.15,53.17-62.35,73.77,0,0,1.72,3.6,1.72,3.6-7.32-15.21-14.75-17.93,3.05-26.53,20.07-15.46,39.66-34.33,57.58-50.84Z"/>
    <path class="st148" d="M421.21,738.78c7.13,5.83,18.04,8.64,26.48,12.94,7.83-.17,8.35,6.96,5.49,12.57-3.88-3.27-7.84-9.59-10.16,2.56,8.18-.06,2.09,16.07-3.91,8.83-1.69,6.83-7.19,3.76-8.04-.36,0,0,8.82-19.24,8.82-19.24-9.84-4.09-20.81-7.43-29-.63,1.74-3.96,6.49-16.42,10.31-16.67Z"/>
    <path class="st137" d="M457.2,581.42c-3.36-2.68-21.79-7.84-29.44-4.32,1.48-1.81,5.1-7.86,7.92-7.69,21.42-11.86,16.41-3.52,21.52,12.02Z"/>
    <path class="st170" d="M492.97,580.12c-2.19,2.09-4.75,14.24-9.72,9-2.19-2.42-10.08-9.1-9.29-12.96,5.65,2.87,24.67-3.88,19.01,3.97Z"/>
    <path class="st52" d="M511.18,794.45c.18,7.72,35.34-7.65,32.92,3-8.99,4.81-41.51,5.17-40.03-.86.36-5.52,1.26-22.76,4.68-8.04,3.43,2.16,4.25,4.13,2.44,5.9Z"/>
    <path class="st71" d="M551,557.24c-7.15-4.7-5.75,6.44-5.97,10.08-2.2.79-1.56-19.58-2.15-20.24,4.32,1.74,6.55,6.04,8.12,10.15Z"/>
    <path class="st70" d="M521.02,618.19c-5.84-5.11-2.22-11.4-3.13-18.02,1.72-.62,7.18,20.86,3.13,18.02Z"/>
    <path class="st164" d="M663.99,502.47c6.59-9.54,16.78-21.48,20.22-33.41,12.44,13.64-13.65,23.56-20.22,33.41Z"/>
    <path class="st169" d="M686.84,458.04c3.84,15-16.94-20.2-15.79-21.01,3.56-6.8,13.22,19.33,15.79,21.01Z"/>
    <path class="st59" d="M687.95,468.37l-4.27-8.94c1.83.71,3.96,1.2,3.16-1.39,2.38,1.42,6.93,12.84,1.11,10.33Z"/>
    <path class="st51" d="M432.99,777.58c-1.53-.49-1.79,2.34-2.86,2.72-1.35.4-15.99-8.44.12.02,4.02,12.62-31.24-7.49-25.89-13.66,2.81-5.27,7.93-13.03,11.25-18.13,36.06,7.03,27.65.08,17.38,29.04Z"/>
    <path class="st60" d="M485.88,794.48c5.73,11.37-40.38,1.65-36.65-3.97,9.59-1.66,26.01,1.67,36.65,3.97Z"/>
    <path class="st119" d="M542.12,558.36l.57,17.35c-2.87,1.83-4.49-5.62-3.52-8.94,1-10.92-6-.92-12.18-1.27,1.2-2.84,2.82,3.05-1.65.38-4.16-2.96-5.05-.72-9.47.52,2.19-7.14,6.13-13.58,6.14-21.07-1.84-8.7,9.43-8.34,14.03-4.11,4.03,4.88,3.76,11.77,6.1,17.14Z"/>
    <path class="st71" d="M544.99,570.37c.34,5.88-1.59,10.86-5.13,4.05,4.19,2.12,1.45-14.94,2.26-16.06l1.37,17.03c.98-1.81.28-4.11,1.5-5.02Z"/>
    <g>
      <path class="st96" d="M457.2,581.42c3.94,16.82,4.06,24.61,24.21,21.25-16.88,25.9,30.56,23.33,45.08,30.09,10.55,41.99,3.79,87.55-14.46,126.48-31.28,1.07-62.82-9.12-90.13-23.9-9.64-16.1,14.57-39.29,21.46-54.86-4.71-49.82,35.37-80.73-31.31-10.43-24.88,33.19-44.38,63.82-69.36,9.76,23.57-27.24,49.68-56.59,71.86-85.01,5.89-5.6,11.34-20.5,19.93-21.4,7.25,3.18,19,.51,22.73,8.03Z"/>
      <path class="st63" d="M421.9,735.33c-21.98-8.6,23.13-49.82,18.8-68.81,0,0-.91-14.29-.91-14.29-.5-7.92,3.19-6.71,3.34-9.39.3-5.34-6.34,3.34-11.24,9.26-17.33,19.69-35.61,43.66-54.61,61.13-4.51.92-26.58-14.29-5.76-3.34,22.58-7.5,64.31-86.81,84.04-81.66-4.13,10.06-10.13,21.52-11.64,33.33,8.99,27.54-27,48.25-22.03,73.77Z"/>
      <path class="st89" d="M526.21,646.78c.58,10.44-9.69,4.31-7.87-2.64,1.7-5.66,8.92-3.93,7.87,2.64Z"/>
      <path class="st86" d="M524.47,693.3c4.41.41,4.13,13.36-2.18,11.52-4.74-2.35-3.54-12.02,2.18-11.52Z"/>
    </g>
    <path class="st6" d="M540.16,573.26c-2.11-1.5-13.17-6.22-14.45-8.49,12.45-7.64,18.56-7.5,14.45,8.49Z"/>
    <g>
      <path class="st152" d="M525.3,538.58c-1.61,6.92-2.51,16.75-5.78,23.52,3.79-.08,5.8,1.01,6.01,3.25,2.34,1.68,2.3,1.11,4.22.05,3.27.91,13.41,6.66,10.1,9.02,8.82-.47-5.32,14.08-3.53,18.76,2.09,4.26.6,8.38-2.29,12.24,2.7,4.3-2.6,3.32-5.2,3.01-6.38,2.29-3.41-11.63-7.69-11.39-2-7.17-2.76-6.15-2.27,3.05-2.2.38-1.62,2.69-.8,4.39,7.48,9.97-15.55,6.75-12.3-6.13-1.31,6.26-7.13,1.87-1.95-.92.34-1.09.22-1.57-.59-1.14-.38,7.32-11.43-.02-13.12-3.7-.38-1.93.57-5.15-2.26-3.33-2.68-1.77,2.13-9.89,5.1-9.14,3.03-5.85,5.21-10.56,11.44-13.55-4.55-3.39-24.17-9.23-16.47-15.31,7.21-1.57,16.07,8.57,23.83,10.83,4.1-4.86,5.55-30.37,8.8-13.62.78-2.56-1.04-12.69,4.73-9.89Z"/>
      <g>
        <path class="st147" d="M523.94,598.46c-2.17-.5,5.94,20.06,1.21,24.21-6.21-.41-6.84-28.18-6.18-18.83-4.46,3.08-.95-19.72-1.86-21.23l6.84,15.85Z"/>
        <path class="st74" d="M523.94,598.46c1.41,3.26,2.13,7.43,4.89,9.96-.58,1.07-1.04,10.61-3.45,9.79,1.37,1.83-6.74-21.54-1.44-19.75Z"/>
        <path class="st165" d="M503.87,587.63c-3.98,7.98-6.08,6.08-11.43.61,17.14-28.98,22.29-7.33,11.43-.61Z"/>
        <path class="st99" d="M519.07,576.3c-4.88,4.17-6.98,3.99-6-2.85,0,0,5.95.5,5.95.5-1.08-9.48,11.75-1.86,14.55,1.56,3.78,9.81-8.57,6.38-14.5.78Z"/>
        <path class="st23" d="M526.26,587.76c8.44,3.84,12.24,13.49,3.34,16.02-.03-1.44-14.73-31.43-3.34-16.02Z"/>
        <path class="st162" d="M534.03,605.42c-2.14-2.35,3.72-7.17,2.29-12.24,4.43,3.77,2.4,9.27-2.29,12.24Z"/>
        <path class="st33" d="M503.84,597.42c-1.51-2.88.34-5.77,2.97-8.14-.14,5.03-.41,8.25-2.97,8.14Z"/>
      </g>
    </g>
    <path class="st62" d="M543.87,792.11c-11.96,3.05-38.04,11.79-37.82-9.74,1.31-9.29-3.86-14.42,8.83-15.15,11.65-6.75,11.83-22.36,17.7-28.49,12.37,5.45,8.95,40.99,11.29,53.38Z"/>
    <path class="st111" d="M543.87,792.11c-.15,5.46-9.46,3.08-13.92,4.18-6.81-.64-23.05,5.07-24.74-1.91,12.71.98,26.09-1.33,38.66-2.28Z"/>
    <g>
      <path class="st27" d="M584.17,752.43c-7.95,4.14-16.42,7.17-25.41,9.11l5.12,28.16c-1.93,2.56-2.23,1.47-3.48-1.66-1.08,6.69-9.11,6.12-14.93,5.39-.21,5.79-6.61,3.86-1.58.7-2.66-.29-2.55-1.22-.02-2.01-6.6-7.01-1.21-43.64-10.47-51.12-18.44,46.61-26.21,16.41-25.31,40.09-5.99,5.21-2.89-14.13-1.41-17.94,19.07,3.16,20.35-71.25,33.79-20.93-.47,3.23-.39,4.5,3.77,3.48,1.52,4.55,5.89,11.34,10.68,9.94,0,0,20.36-5.99,20.36-5.99,4.1-1.75,9.25-4.3,8.9,2.8Z"/>
      <path class="st166" d="M558.9,786.07c-11.9,9.67-6.68-8.41-8.73-15.73.78-4.69-4-10.13,1.69-12.25,4.01,5.05,5.31,21.85,7.04,27.98Z"/>
      <path class="st14" d="M558.9,786.07c2.7,4.24-8.75,3.84-10.25,4.92-9.04-2.42,7.97-4.67,10.25-4.92Z"/>
    </g>
    <g>
      <path class="st34" d="M584.17,752.43c9.89,32.61,13.5,38.44-22,39.06-4.2-32.95-16.06-30.82,22-39.06Z"/>
      <path class="st127" d="M564.55,789.02c-9.92-1.83,24.82-11.23,24.39-12.04,3.05,5.26-18.05,9.52-24.39,12.04Z"/>
    </g>
    <path class="st12" d="M486.85,794.46c-36.68-9.35-42.69,7.6-29.52-33.33,32.98,8.56,37.47-5.37,29.52,33.33Z"/>
    <g>
      <path class="st148" d="M504.97,785.33c7.33,15.9-11.66,11.24-18.88,13.07-6.62-.84,4.18-4.34-.85-6.62,0,0,3.72-23.26,3.72-23.26-26.37-1.96-30.12-14.98-36.45,16.97-11.82,11.1-3.41-13.91-2.06-19.38,5.88-.89,3.8-2.42,8.03-10.68,5.79,2.59,36.34,3.01,34.16,13.01.81-5.05,6.93-8.14,9.99-3.32,0,0,.68,23.25.68,23.25l1.66-3.04Z"/>
      <path class="st155" d="M501.34,795.12l-11.51.18c-6.61-5.83,19.15-3.36,11.51-.18Z"/>
    </g>
    <g>
      <path class="st83" d="M599.95,745.43c3.28,15.1,18.22,26.12-2.74,33.84-7.1-.63-7.65-24.69-10.23-29.67,3.37-1.03,9.7-6.85,12.97-4.17Z"/>
      <path class="st95" d="M596.18,774.04c-10.8,2.49,8.43-8.88,9.73-9.34,4.33,3.06-8.83,7.85-9.73,9.34Z"/>
    </g>
    <path class="st104" d="M485.88,794.48c-2.93,1.79-32.9-3.93-36.65-3.97,2.74-6.35,17.79,1.31,25.52.26,1.53.91,13.4-.15,11.13,3.7Z"/>
    <path class="st101" d="M431.03,779.34c-2.39,6.63-19.78-9.74-24.76-11.21-2.63-8.55,18.9,10.35,24.76,11.21Z"/>
    <g>
      <path class="st144" d="M453.18,764.29c-.69,2.56-6.36,20.4-4.73,22.82.6-.25,3.7-1.15,1.56.31,2.77.78,2.06,3.04-.77,3.09,1.91.35,1.7,1.08-.31,1.09-.58-3.73-22.7-5.89-18.28-10.06-2.74-.64-2.32-1.95.37-2.2-2.29-2.57-.2-4.32,1.96-1.76,5.04,2.39,3.1-5.11,6.38-4.1,3.79,4.95,5.83.21,5.63-5.33-11.99,5.48,4.7-23.88,8.18-3.86Z"/>
      <path class="st146" d="M446.21,787.59c-5.36-3.83-18.11-6.37-11.24-8.18,1.17,1.55,16.3,4.05,11.24,8.18Z"/>
    </g>
  </g>
  <g>
    <path class="st20" d="M782.2,351.41c-83.44,15.45-84.26-25.74-85.95,59.63,10.62-3.16,20,.26,13.2,13.03-17.31,8.83-13.28,33.12-12.43,48.31,116.94-3.07,67.81,19.7,87.09-117.65-1.21-12.52,8.65,5.16,3.43,6.66.41,1.58-1.62,15.72,1.92,14.96-4.45,59.29-3.31,86.04-6.62,87.14,1.88,2.3,4.01,14.62-1.5,12.21-25.78-1.08-50.83,4.88-75.46,1.93-.3,15.59-6.56-3.91-13.86,1.66-1.57-3.4-3.07-6.87-4.08-10.9,3.96-1.66-2.54-6.08-1.11-10.33-2.68,2.22-14.51-19.71-13.86-22.67,7.62-7.44,7.97,5.73,12.98,10.06-2.77,2.7,2.53,3.15,3.08,5.03,5.01-33.48-2.56-12.3,14.92-32.9-6.23-1.69-16.26,6.63-22.19,5.61-.12-5.47,8.11-6.29,7.41-10.94.76-.79,1.52-3.14-.47-2.87,7.42-12.2-1.1-42.95,7.14-55.98,29.16-4.31,58.21-5.26,87.33-4.91,4.01,1.44,2.14,4.17-.97,2.94Z"/>
    <path class="st61" d="M700.69,480.33c2.02,2.8,5.45,1.45,2.87-2.33,6.99-1.08,1.03,2.09,3.35,3.65,11.18-1.39,80.8,4.8,78.04-7.46,3.08-6.75,7.23-136.73,4.61-99.96-4.29,5.87-1.41-12.38-2.42-12.84,1.03-19.15-6.37.7-4.93-9.97,9.26-4.8-45.04-.52-43.91-1.78-40.15,6.76-47-10.05-46.2,38.46.67-37.06-7.84-36.33,32.86-38.6,16.79-1.65,40.05-2.17,56.98-2.07,4.93-.04,7.01,4.06,7.15,10.07,2.66-.36,8.3-.48,9.65,2.17-.07,31.56-1.89,67.25-3.95,98.71-1.35,4.03,1.86,25.25-3.83,26.74-19.04,1.77-48.57,1.65-67.88,2.46-10.05.2-23.62,3.73-22.4-7.26Z"/>
    <path class="st153" d="M789.95,423.27c-11.61,117.64-2.91-45.65-1.97-62.11,11.49,5.05-.59,50.98,1.97,62.11Z"/>
    <path class="st157" d="M746.01,482.3c-1.59-.4.39-1,.43-1.91,0,0,6.57.95,6.57.95-1.66-7.23,25.3-2.89,28.28-4.01,2.44-.67-31.01,1.96-24.23-1.97,12.46-1.93,28.39,7.01,25.8-11.88,4.68,9.01,4.44-38.34,7.1-40.21-1.73,15.19,1.11,45.41-6.55,58.45,0,0-37.38.58-37.38.58Z"/>
    <path class="st9" d="M756,476.33c.38.88,28.73-1.8,26.02,1.81-1.86.61-32.79-1.74-29.01,3.19-31.43.06-20.87-4.89,3-5Z"/>
    <path class="st55" d="M741.02,477.32c-.65,2.24-10.39.23-11.45,2.49,5.61-.46,10.92,2.03,16.43,1.52,1.98,2.29-38.88.34-38.86.94-11.2-9.19,33.18-3.15,33.89-4.95Z"/>
    <path class="st55" d="M753.05,476.48c-3.44,1.7-7.5.52-11.23.78.65-1.97,9.74-.46,11.23-.78Z"/>
    <path class="st30" d="M782.2,351.41c-1.61,148.27,14.7,119.17-87.26,123.01.33-7.52-1.04-19.1-.22-26.42-4.63-18.97,23.47-23.99,11.94-36.28-2.83-1.89-8.67,4.33-11.96.49,1.72-79.05-7.38-54.11,87.5-60.79Z"/>
    <path class="st55" d="M755,478.36c-2.1,3.86,7.24.12,8.5,2.97-5.15.54-14.86-.54-19.62-2.62l11.12-.35Z"/>
    <path class="st58" d="M732,478.56c30.68,3.75-27.65,4.11-25.14,1.13,8.43,1.15,16.9-2.95,25.14-1.13Z"/>
  </g>
  <g>
    <path class="st2" d="M466.11,827.03c-3.89,2.14-.5,2.94-2.04,6.31,0,0-4.28,7.13-4.28,7.13.98-2.57-1.24-2.22-2.81-2.08-12.6-.58-44.14-9.55-30.88-24.12,10.34,10.26,25.76,15.07,40.02,12.76Z"/>
    <path class="st40" d="M428.21,820.19c6.61,4.87,14.1,7.62,21.77,10.32,1.96.34,20.05-.83,9.64,4.34-16.03,4.72-47.39-18.46-31.42-14.66Z"/>
    <path class="st0" d="M428.21,820.19c-6-2.26-2.09,3.51-.14,5.32-7.04-.21-4.81-13.19.14-5.32Z"/>
    <path class="st0" d="M448.75,834.74c14.23.38,19.06-3.23,1.23-4.23,17.52-2.74,17.53,7.85-1.23,4.23Z"/>
  </g>
  <path class="st1" d="M564.78,832.89c-.58,4.05-1.91,19.19-3.33,22.8-24.34,4.14-38.72,5.43-34.81-23.6,12.12,3.36,26.24,4.78,38.14.81Z"/>
  <path class="st1" d="M561.21,830.52c-8.22,3.51-17.63,3.05-26.28,1.03,6.11,1.33,20.08-.07,26.28-1.03Z"/>
  <g>
    <path class="st112" d="M630.91,392.16c-5.2,13.31,9.85,32.2,1.63,45.03-.65,2.65-5.15,3.4-2.69-2.12-2.8-1.11-2.53-6.46.91-5.71,1.01-3.14,2.36-10.51-2.17-10.62-1.32-3.06-3.85-13.39-1.42-14.44-6.42-6.1-.91-11.32,2.87-17.07,3.72-13.52,9.11-29.29,13.36-37.78-1.8-20.59,2.41-31.73,4.54-15.85,0,0,3.02,9,9.08,27.01,10.2-20.39-5.24-40.8-5.72-61.64-9.8-18.13-23.03-35.57-34.54-52.62-11.81-10.17,18.73-2.16,31.28-13.97-90.43-5.49-137.85-104.56-265.48-55.77-6.71-1.83-10.46,2.93-6.4,9.1-19.17-4.09.09-44.07,9.06-56.4,4.44-9.21-4.4-26.54-10.5-33.16-11.7,24.87-24.29,61.13-7.77,87.2-32.37,9.56-80.65,44.93-101.51,82.41-34,24.69,50.96-79.8,94.56-85.85-20.3-28.17,5.13-66.92,11.5-94.54,11.35,5.7,22.55,31.5,20.19,41.82-3.11,13.78-41.21,61.72,3.71,38.51,102.27-40.37,168.7,59.2,263.12,59.79-6.36,13.59-21.41,18.7-35.08,21.48,25.59,28.79,44.55,70.01,39.99,108.66-10.02,42.08-7.7,24.73-15.87-6.89-2.94,15.84-7.11,31.02-16.65,43.41Z"/>
    <path class="st82" d="M221.25,328.09c2.64,3.59-12.77,33.25-23.15,31.1-6.03,11.55,28.32-3.76,30.74-9.68,2.23-6.73,4.12-3.41,2.22,1.95,3.68-.78-.32,26.36.17,27.63,14.95-44.16,2.15,56.36-17.25,59.92-8.67,8.75,32.37-12.21,34.15-12.72,12.95-11.95,3.72,7.45-2.4,9.36,5.55,43.94,26.65,86.99,52.46,122.05,2.97-2.21-4.86-12.8-5.31-18.21-7.69-22.98,19.35,8.27,22.95,13.1,17.97,3.42,35.19,20.86,56.36,17.93-2.59-2.8-11.03-21.18-9.7-23.65,2.64-8.51,59.11,41.41,49.11,19.62-6.59-20.29,15.69.94,24.24-1.15,2.97-.53-.77,10.26-3.07,5.09-5.77,5.83-3.18-1.39-6.77.87-5.03-4.07-6.36-2.8-3.99,3.81-4.16,14.1-40.79-12.72-50.09-18.85,1.1,8.67,7.14,12.73,11.85,19.11-30.98,3.7-60.26-9.47-83.38-30.72.47,10.9,12.77,24.13,10.08,25.68-21.35-7.5-41.8-44.59-50.47-66.96-35.97-87.15,5.87-56.86-58.23-60.47,27.68-16.09,27.45-57.76,22.78-81.79.25,0-19.26,12.52-41.42,2.08,14.6-5.09,41.85-27.62,30.62-42.71-1.35-1.89-1.65-5.8,0-7.04,2.42-7.39,4.08-.38,4.93,3.93,2.43,3.15,7.69,9.54,2.55,10.72Z"/>
    <path class="st5" d="M631.23,405.42c-3.72-1.79-3.99-8.48-.31-13.26-1.27,3.31-.12,9.72.31,13.26Z"/>
    <path class="st93" d="M494.18,168.29c58.99,11.35,97.08,64.85,155.73,61.85-11.18,13.08-32.07,8.3-46.23,2.27,18.43,17.98,44.29,44.82,45.95,69.4,3.28-10.51-70.27-93.97-58.27-62.88.11,1.27,8.16,10.51,5.09,11.41-6.51-.67-13-14.38-20.14-9.75-.18,3.94,1.4,9.05-1.69,13.12-9.06-7.03-31.85-28.54-6.65-20.18-12-33.63-44.74-54.58-78.14-64.46,1.47-1.27,2.99-.78,4.35-.78Z"/>
    <path class="st49" d="M372.95,184.27c5.99,4.81-6.88,4.44-6-.92-24.05-27.98-1.42-62.58,6.47-92.36,36.86,35.69-13.58,58.32-.47,93.28Z"/>
    <path class="st110" d="M648.04,232.4c-7.76,7.27-23.46,14.44-33.79,8.68l2.52,5.28c-5.78-6.78-13.53-10.23-19.25-17.68,17.83,5.32,32.07,12.28,50.53,3.72Z"/>
    <path class="st141" d="M631.7,463.32c-3.82,2.98-8.3,5.18-11.4,10.38.13-22.78,19.83-58.16,11.4-10.38Z"/>
    <path class="st66" d="M627.17,404.3l-1,.76c-3.25-5.89-6.42,1.07-9.09,3.2-.32,5.63-6.94,6.51-6.13,1.63,4.6-1.72,14.65-20.91,16.23-5.6Z"/>
    <path class="st5" d="M627.17,404.3l-.34,3.23c-1.34-1.76-3.37-6.01-5.98-3.21,1.29-4.22,3.51-1.82,6.32-.01Z"/>
    <path class="st66" d="M630.76,429.36c.39-3.37.38-6.69.13-10.18,1.29,3.01,2.41,7.25-.13,10.18Z"/>
    <path class="st145" d="M261.36,411.32c4.94,3.81-8.06,32.38-2.25,30.63-1.49,3.01-3.75,2.95-6.87,2.75-3.07,12.53,23.66-11.68,25.23-18.31,2.05,18.09,11.44,37.72,21.86,52.49-3.79,53.36,40.84,69.2,75.54,50.69,45.35,30.39,124.78,6.48,67.28,32.9-5.21,1.02-7.86,6.43-13.38,4.01-6.29-.5-11.19-9.28-17.08-6.5,17.08,34.26-34.01-3.94-44.38-12.62-9.13-3.71,7.1,23.76,8.8,25.1-52.71-2.6-89.44-56.49-105.56-103.8-1.74,5.59-5.16,15.61-12.36,11.72-2.21,13.27-13.31-36.63-14.26-45.14,0,0,8.24-8.67,8.24-8.67,2.93-7.03-4.86,3.84-4.7-2.65,4.17-2.59,10.03-18.63,13.89-12.6Z"/>
    <path class="st78" d="M352.72,569.62c-32.71-8.29-54.32-32.69-71.79-59.81-3.94-3.94,18.67,47.75,19.42,47.7-19.75-7.47-65.74-102.78-39.03-103.36,1.26,2.83-6.31,29.64,1.44,24.84,19.59-42.93-.18,43.92,94.55,89.91-1.79.96-3.36.38-4.59.73Z"/>
    <path class="st67" d="M315.85,552.59c-5.19-2.91-15.95-14.03-22.43-20.51-2.54,6.46,15.83,38.79,4.78,25.63.7.31,1.78-.38,1.29-1.18-9.28-16.09-20.79-34.81-21.11-54,9.91,18.61,28.66,33.16,37.47,50.07Z"/>
    <path class="st129" d="M198.09,359.19c14.84-4.63,15.15-30.2,29.33-29.51,0,0,2.52-5.51,2.52-5.51,7.85,11.63-13.7,37.84-27.79,38.79-4.9.47-10.12.15-4.05-3.78Z"/>
    <path class="st44" d="M228.84,349.51c2.52,12.93-45.59,19.17-30.75,9.68-5.93,14.02,38.22-15.84,32.12-33.94-1.68,7.11-4.32,4.74-9.69,4.52l.73-1.68c8.43,4.03,5.63-4.35,11.43-8.38.69,8.44-.62,22.31-3.84,29.8Z"/>
    <g>
      <path class="st73" d="M259.98,265.46c-1.84,5.5,11.75,12.03,7.39,19.51-36.81,36.04,1.65,62.15-36.31,66.48,0,0-.03-4.32-.03-4.32-1.48-.35-1.59,1.42-.74,1.68-.67,1.66-2.59-.3-3.26-1.16,2.83-3.75,8.34-32.13.04-17.75-2.48-.02-4.42-.63-5.82-1.82,2.46-5.69-6.02-5.51-5.47-16.83-1.66,1.58-1.05,2.53-2,2.17,1.04-4.65-5.74-4.92-3.42-11.77,5.73-10.12,7.33-32.57,20.61-33.34,0,0,9.15,3.25,9.15,3.25,3.7-5.63,13.31-15.38,16.86-4.05,0,0,3-2.07,3-2.07Z"/>
      <path class="st37" d="M219.05,288.73c2.51-.8.7,2.09.74,1.93,8.74-20.52,10.86-20.17,29.02-9.05-3.95,11.11-20.49,23.48-28.68,32.94-7.09-9.9-6.46-15.5-1.09-25.82Z"/>
      <path class="st19" d="M231.55,272.41c1.63.31-14.45,25.81-12.49,16.32,3.13-3.36,6.07-18.94,12.49-16.32Z"/>
    </g>
    <path class="st114" d="M607.61,361.42c.32,3.19,1.42,6.96-.49,10.43-1.13-17.13-42.38-63.8-26.11-60.47-11.23-2.29-16.43-11.69-18.18-21.95,11.74,10.91,20.52,23.71,30.19,36.39.38-6.59-17.7-48.54-11.98-49.15,14.51,25.78,27.4,54.76,26.57,84.76Z"/>
    <g>
      <path class="st134" d="M494.18,168.29c22.32,9.55,46.36,18.83,62.04,40.5,4.86,7.52,25.7,34.33,1.91,24.54,30.68,42.59.73-16.72,35.33,12.87-28.48-57.85,86.27,54.98,65.92,109.55-1.23,1.06-2.27.7-3-.8-1.48-14.37-5.52-27.46-13.85-39.3,6.55,27.76-6.12,75.49-30.6,94.1.49-51.7-8.76-109.91-44-152.78,0,0-.59-2.85-.59-2.85-4.09-2.21-4.85-2.35-2.27-.43,15.69,17.96,23.47,45.59,29.49,70.18-1.5,10.47-11.42-8.23-13.65-11.1-2.75-7.59-14.93-14.02-18.08-23.36-2.16,1.03-3.57-3.79-1.99-5-2.59-3.69-3.71,2.61-.6,2.35.71.26,4.08,12.99,4.34,14.55-2.77,1.95.72,5.1-3.38,6.12-22.25,6.1-32.04-34.57-50.5-46.18-2.88-6.32-22.56-43.58-24.79-34.92,52.15,28.59,36.9,208.12,22.14,88.49-2.89,24.1-11.47,49.28-26.42,68.63-9.73,21.01-32.73-30.73-34.58-38.02-.69,2.47-.73,21.7-4.01,22.74-16.17-18.93-27.66-41.48-34.01-66.1-1.55,17.88,2.37,50.32-20.93,48.98.85,2.63-4.8,4.1-7.07,3.27l-2.15-14.42c3.73,13.07-19.69,38.53-9.44,33.27,2.97,8.88-13.3,19.1-15.4,29.65-13.28,8.87-17.04-40.16-19.9-49.84-8.69,51.29,8.68,102.76,41.69,143.8-25.14,4.82-69.51-30.35-74.89-53.38-1.06-4.71-6.77-9.11-10.88-6.45-11.98-3.23-6.81-24.7-12.94-27.72-1.65,11.91-10.4,28.81-18.01,32.71-3.82,2.65-3.8.42.06-6.7,2.48-9.14,8.55-117.85,10.37-64.26,3.11-10.36,3.28-35.97,15.31-36.89,17.19,50.42,28.58-27.52,34.96,1.22,1.29-2.98,5.63-20.25,3.91-21.79-7.96-3.26-18.65-3.96-20.96,7.57-12.68,14.54-5.55-18.61-12.66-22.98-.26-10.84,4.76-20.02,7.6-30.16-44.92,52.87-14.15,154.79-85.69,171.15,16.98-16.62,22.79-44.62,24.9-68.36-4.19-5.45-2.61,12.49-6.41,21.03-2.73-14.92-.79-33.12,2.77-47.95,1.52,1.98,2.32,5.94,5.98,3.81,16.25-3.38,4.99-14.72,7-26.22,3.01-13.54,9.66-26.84,18.96-36.95,5.38-5.77-7.82-10.14-4.08-15.43,23.36-35.62,70.5-92.64,114.88-80.9-8.49-30.27,99.47-28.47,118.18-19.87Z"/>
      <g>
        <path class="st75" d="M660.28,337.28c2.26,10.37.41,20.64-3.54,31.11-3.47-14.4-7.62-28.41-12.94-40.79,1.52,8.26.46,15.12-.4,21.86.29-11.37-1.94-33.72-5.09-44.62,11.35,14.63,18.47,32.3,20.07,50.82,2.65-6.58.78-12.5,1.9-18.37Z"/>
        <path class="st77" d="M378.1,176.29c-5.33,2.28-2.5,8.74.77,11.45-3.38,7.34-15.92-.04-11.91-4.39,4.37,1.36,5.43,5.43,6,.92,4.95,4.58-3.13-9.84,5.14-7.98Z"/>
        <path class="st5" d="M624.21,398.23c-10.19,8.36,3.21-8.18,5.82-11-.62,3.52-4.82,7.44-5.82,11Z"/>
        <path class="st11" d="M261.36,411.32c-12.18,12.74-25.36,30.65-48.76,30.05-1.78,1.03-3.13-1.95-.61-2.25,24.26-5.81,51.81-42.43,51.08-69.83,1.91,12.45,2.77,31.16-1.71,42.03Z"/>
        <path class="st31" d="M267.69,355.04c-6.73-10.25,17.77-80.1,30.2-80.6-9.69,17.36-2.17,29.74-.32,49.46,13.31-16.04,4.23-17.8,27.95-12.1,2.34,8.59-6.15,40.42-8.74,18.3-17.12,22.6-18.42,42.06-34.11,4.1-10.32,18.53-12.02,44.83-15.34,65.24-.59-11.46,1.29-33.42.35-44.4Z"/>
        <path class="st135" d="M368.01,369.25c-.03,1.53-.94,2.43-2.02,4.14,3.52-.61,3.83-3.81,8.04-5.3-7.08,22.79-17.03,44.5-30.94,65.48-7.22-20.05-8.21-40-10.56-60.37-1.97,7.69-.36,19.17-.38,27.25-4.49-22.82-.53-73.84,10.57-94.77-4.55,20.7-9.73,40.75-4.52,60.69,3.2,6.77,9.07,52.79,17.22,29.48,0,0,9.1-14.95,9.1-14.95.97-1.6,6.61-2.08,5.02-5.68-2.83-1.25-4.35,3.11-5.99,4.08-2.18,1.29-1.07-6.56,4.47-10.05Z"/>
        <path class="st92" d="M454.89,291.97c-6.26,3.53-15.24,17.56-18.55,26.08-12.16-7.36-26.61-57.87-6.43-37.52,10.78,9.05,15.3-5.76,24.48-10.95,6.78,1.23,15.1,13.54,13,20.15-10.62-3.48-10.61,1.18-12.5,2.24Z"/>
        <path class="st35" d="M512.92,338.34c-2.3,1.39-.2-6.76-3.01-8.51-.18,22.16-28.47,96.4-40.46,53.56,10.51,13.58,19.63-18.46,24.54-24.95,12.2-18.92,13.16-84.33,18.93-20.11Z"/>
        <path class="st5" d="M619.07,402.29c-2.22,3.63-10.59,13.62-1.99,5.98-1.44,13.31.86,26.32,4.27,39.15-5.79-4.76,1.92,14.47-3.47,18.96-2.35-3.81.19-9.78-.99-14.25-1.81-1.65-1.65-4.51.5-5.75-3.76-4.23-1.68-10.38-3.43-17.13-6.44-.83,2.61-19.2-4.53-11.58-2.56-4.48-1.78-48.7,1.15-28.3.81-10.17,1.29-23.22-2.2-33.21-.79,2.18-.25,3.73-.76,5.27-3.51-37.51-18.04-73.56-41.38-103.85-2.09-3.8-1.72-4.94,1.12-3.44,35.46,41.8,47.82,100.61,44.51,154.54l7.21-6.38Z"/>
        <path class="st168" d="M281.98,299.63c-21.54,41.95-10.15,91.74-22.81,135.62-13.22,20.49,4.22-15.75,2.19-23.93,1.88-39.11.62-79.21,19.32-115.08,3.08-1.69,2.19.84,1.3,3.39Z"/>
        <path class="st167" d="M493.33,285.12c-6.4,4.99-1.13,10.3-4.77,10.32-3.01.64-8.42-18.36-9.86-20.06-13.19-33.21,21.45,1.87,14.62,9.73Z"/>
        <path class="st131" d="M365.87,321.56c-12.01,27.38-16.36,5.52-7.85-22.86,6.69,5.58,3.51,14.52,9.76,8.32.42,4.33.64,10.22-1.92,14.54Z"/>
        <path class="st159" d="M540.56,250.66c6.32,5.58,7.23,12.98,5.59,14.24-3.93,6.45-21.79-29.74-5.59-14.24Z"/>
        <path class="st94" d="M388.16,188.35c1.02-7.39,11.5-9.07,18.15-10.83.16-.03-2.68.86-2.5-.98,26.24-9.85-5.56,15.41-15.65,11.81Z"/>
        <path class="st54" d="M383.67,305.72c.96,8.13,1.07,15.55-3.17,15.6-7.18.46-1.15-26.09,3.17-15.6Z"/>
        <path class="st80" d="M388.16,188.35c-7.9,4.95-2.33-8.37,15.65-11.81,2.71-.51,5.31-1.08,8.74-.52-7.77,5.02-18.62,4.28-24.38,12.33Z"/>
        <path class="st128" d="M295.77,274.37c-4.37,8.19-9.92,17.12-13.79,25.26-1.7-10.59,9.16-21.96,15.71-31.66.49,2.81-.99,4.72-1.92,6.4Z"/>
        <path class="st7" d="M567.35,254.13c-1.41.67-1.26,2.24-1.12,3.44-21.79-22.54-23.11-30.75,1.12-3.44Z"/>
        <path class="st105" d="M493.23,230.4c-7.16-6.92-13.81-6.15-20.71-17.34,8.04,4.37,16.45,10.46,20.71,17.34Z"/>
        <path class="st114" d="M560.84,284.43c-2.21-2.28-2.22.85-2.05,2.25-1.94-4.98-4.79-9.97-5.43-15.95,4.88,3.74,5.68,9.17,7.48,13.7Z"/>
      </g>
    </g>
    <path class="st13" d="M563.38,309.2c6.55,24.63-8.65,23.47-12.3,2.39,0,0,12.3-2.39,12.3-2.39Z"/>
    <g>
      <path class="st168" d="M493.23,230.4c23.55,36.8,57.74,67.27,68.16,110.37-.08-8.57,4.48-17.91,2.89-26.6-3.09.68-3.94-4.19-.9-4.97-3.4-1.12.62-4.46-.33-6.18-10.58-38.18-.64-13.01,8.59,2.15,3.39.22,17.07,9.8,6.78,8.82,11.62,12.42,19.64,40.77,29.18,47.44.18-1.91-.45-11.14,2.44-3.75,1.99,6.68,2.07,25.9,1.15,32.09-12.06-22.84-23.94-52.42-41.14-73.5.64,5.97-1.7,11.01-2.08,17.18,4.5,4.75-5.77,15.33-2.88,18.42,0,0,8.95.37,8.95.37,2.91-3.45,5.88,1.69,2.8,3.99-5.47-.44-10.8-1.25-15.99-2.42-1.63,2.85-7.49,5.4-10.06,2.66-.74-6.9,4.9-1.76,6.41-4.29-7.08-30.12-15.08-50.66-36.28-73.61,6.97,24.35,2.47,49.07,3.37,72.88-1.24,13.13-17.18,46.41-16.69,12.77-4.02,10.95-19.59,38.29-29.4,40.06-5.46,3.89-14.15-22.82-19.74-28.34,1.07,4.64,5.85,21.65-3.3,11.36-3.28-.46-18.32-14.23-18-16.57-8.46-14.94-19.89-31.01-25.29-48.85l-2.53,16.31c-2.87,0-3.13,6.19-3.7,7.99,1.46.25,1.66.83,1.17,1.96,0,0,7.54.06,7.54.06,2.57-3.45,6.21,1.36,6.92,3.45-2.5.79-17.45-1.27-18.16,2.79,5.28,13.82-43.24,88.24-29.88,33.2-2.99,18.55-35.83,48.46-22.37,61.95.28,2.3,24.62,46.56,33.31,49.38-12.66,8.52-33.36,3.34-45.26-4.84-5.27,3.07-12.56-7.53-18.29-5.02,8.16,12.53-4.61,12.16-9.26,3.85-3.07-.46-3.37-8.56-7.69-4.47.92,45.13,41.92,46.74,76.06,36.85,32.85,21.06,72.37,15.42,108.69,17.85-.37,1.06-.15,2.39-2.23,3.12,2.39.34,2.58,3.07,1.77,4.95,2.07,2.52.48,2.73-2.1,1.25-8.05,1.46-6.35-8.09-20.65,3.7-2.52-1.93-3.33.18-3.36,2.98-20.14-.52-15.21-.82-.93-9.05-30.58,1.51-59.59-3.94-85.76-18.48-34.41,20.7-87.75-4.43-75.45-48.44-8.53-13.44-22.12-34.91-23.01-51.29-3.24,5.15-18.89,20.37-24.98,18.17-11.63-10.1,19.24.77,25.62-41.73,6.65,19.95,11.48,55.91,31.45,72.52.57.26-3.24-10.67-4.91-11.29-5.83-31.52,11.73,12.91,36.96,19.26,80.59,32.6-22.3-23.32-8.86-116.21,7.71,14.78,4.58,38.87,11.73,56.5,3.13-5.72,35.19-59.66,22.94-54.55-3.99-3.25,9.14-11.33,8.97-16.31.91-7.69,3.5-14.02,5.92-3.01,35.54-6.46,22.53-48.77,23.97-79.06,5.97,36.14,19.5,73.51,44.96,98.88-16.19-60.88,18.53,7.6,27.23,22.41,28.31-15.92,32.07-113.41,36.76-38.83,17-39.21,1.25-100.87-28.51-132.34-3.36-6.33,6.02,1.13,7.31,4.05Z"/>
      <g>
        <path class="st88" d="M300.94,443.41c1.49,18.82,93.91,79.55,66.13,43.71,30.83,30.61-61.07-5.11-63.52-28.25,3.88,34.85-20.51-44.1-2.61-15.45Z"/>
        <path class="st10" d="M300.94,443.41c-11.47-15.05.52,19.6,3.85,23.98,28.35,57.67-33.91-28.34-24.64-52.16.13,7.71,4.87,15.59,9.99,20.57.07-8.03,12.82,3.39,10.8,7.61Z"/>
        <path class="st154" d="M450.99,352.52c-7.61-4.98,3.33,26.31,4.13,31.06-5.85-7.2-17.09-18.19-19.43-26.42,2.11,3.07,5.42,5.27,7.3,10.02l2.75-28.83c3.9,4.68,3.59,9.74,5.25,14.16Z"/>
        <path class="st22" d="M280.16,415.23l-.39,3.45c-2.67-25.37-.66,14.57-19.4,22.71,16.8-15.29,21.93-80.13,19.79-26.17Z"/>
        <path class="st8" d="M388.11,351.06c4.05,4.03-6.87,6.04-8.49,7.54.04-3.05-.2-5.67-1.02-8.29-3.53,7.07-.78,12.76-10.58,18.95,9.18-9.73,8.39-23.65,9.58-36.56,4.29-4.42,4.13,16.81,4.48,20.73,0,0,6.04-2.37,6.04-2.37Z"/>
        <path class="st121" d="M563.38,309.2c1.21,3.33-8.59,3.21-9.99,3.98-2.31,13.51-3.99-4.88-7.56-8.66,2.58.94,17.99,3.16,17.22-1.51,2.01,1.84.55,3.85.33,6.18Z"/>
        <path class="st4" d="M517.28,355.4c-1.17,4.46-1.45,9.51-4.81,14.15l-.06-17.21c.55-.26-1.9-15.73.51-14,.05,3.51.57,7.02,1.75,10.67-.1,2.39-1.95,6.98,2.61,6.39Z"/>
        <path class="st8" d="M401.32,347.19c.71,5.97-6.79,6.06-11.48,6.08,1.61-2.24,3.74-2.41,5.67-3.42-6.09-1.62,2.69-2.83,5.82-2.66Z"/>
        <path class="st18" d="M542.01,304.12c5.87,8.22-7.27,11.82-9.4,2.44-.75,6.18-.15,16.57-6.9,19.71-2.53-16.75-3.57-34.92-8.08-53.48,10.77,9.13,17.64,20.48,24.38,31.33Z"/>
        <path class="st41" d="M395.94,366.63c-1.49,4.11-11.6,19.42-15.84,15.35-.76-.95-.98-23.38,3.99-22.71,12.61-2.74,18.37-12.08,11.85,7.36Z"/>
        <path class="st8" d="M384.09,359.28c-4.8,1.48-2.5,18.99-2.94,22.4,9.14-6.95,8.73-6.14,14.79-15.04-4.86,11.74-10.74,22.73-18.91,33.08,4-10.48-2.53-37.13,7.06-40.44Z"/>
        <path class="st87" d="M552.12,318.5c.35-.7.11-1.63-.14-2.16,1.99,5.94,6.37,7.25,11.56,10.51l.75-12.68c1.77,11.62.34,24.28-3.51,35.96-1.47-11.74-4.2-21.82-8.65-31.62Z"/>
        <path class="st117" d="M321.77,483.65c-4.23,5.4-9.15-2.44-8.27-6.73,3.41,2.26,4.68,4.64,8.27,6.73Z"/>
        <g>
          <path class="st21" d="M375.02,407.37c-.94,2.72-2.97,2.15-5.25.88-4.7,14.6-18.24,24.58-21.99,39.38-7.61-20.34,23.96-47.63,27.86-70.99,2.87,9.77-6.13,25.64-.62,30.72Z"/>
          <path class="st39" d="M607.75,382.39c5.07,6.74-4.49,39.4,4.88,30.67,1.07,1.61.49,2.43.54,3.2-10.89,9.83-2.97-18.18-5.32-24.19-1.33,1.58-1.28,2.82-2.42,3.39,6.08-14.77-8.01-26.69-16.3-36.19,4.1-.14,5.99,7.78,8.98,6.22-6.86-6.11-25.78-55.06-30.13-32.05l.1-23.93c15.36,21.22,32.26,47.96,39.66,72.88Z"/>
          <path class="st150" d="M437.71,369.36c-8.16-1.16-10.67-14.88-19.06-16.65,5.39-5.5-9.69-4.33-12.48-4.42-1.24-5.52,4.75-27.59,4.83-33.91,7.3,20.16,16.01,37.86,26.71,54.98Z"/>
          <path class="st84" d="M511.96,378.28c-.8,6.8-3.7,1.06-3.47-2.33-5.18,5.41-16.83,16.94-22.65,21.46,10.13-13.38,18.78-27.12,23.38-44.62.93.83-1.25,28.15,2.74,25.49Z"/>
          <path class="st91" d="M414.33,352.42c-9.15,3.93-7.2,18.56-16.52,23.86-.95,1.89-5.2,7.49-4.17,9.75-6.37,3.81-10.35,15.64-16.8,19.33l13.11-18.99c10.66-9.85,6.69-38.76,24.38-33.95Z"/>
          <path class="st123" d="M478.2,404.27c-3.79,7.8-5.21-5.67-8.22-8.14-4.02-.54-5.46-6.47-8.71-9.01,1.54,10.59-7.61,1-6.11.17,6.77,5.6,4.37-.47,2.52-4.54,0,0-3.43-16.73-3.43-16.73,8.55,12.33,15.98,24.71,21.3,38.75.37.99,2.54-.04,2.65-.5Z"/>
          <path class="st38" d="M546.93,314.68c4.79,11.36,15.24,39.21,9.06,38.9,1.27-12.55-9.52-24.76-14.16-35.67-7.26-1.78.64-6.47,5.11-3.22Z"/>
          <path class="st32" d="M437.71,369.36c4.19,4.9,25.28,25.76,11.46,14.63-10.99-2.97-20.23-20.85-26.18-29.67,1.77,1.28,9.89,10.83,14.72,15.04Z"/>
          <path class="st18" d="M522.76,348.36c2-6.91-.21-22.95,7.28-24.06-3.79,6.4-4.34,22.28-7.28,24.06Z"/>
          <path class="st65" d="M418.65,352.71c-5.17-.29-11-1.31-15.55,1.72-2.21-7.34,19.79.43,16-5.19,7.33.87,6.59,4.98-.45,3.47Z"/>
          <path class="st65" d="M414.34,348.19c-11.47,5.7-10.81-1.88-7.2-8.89-2.69,9.4,1,6.01,7.2,8.89Z"/>
          <path class="st39" d="M574.05,352.22c-7.14.48-13.53.92-7.95-8.01-2.41,8.54,1.51,6.37,7.95,8.01Z"/>
          <path class="st152" d="M483.99,542.37c.93.32,8.7-.99,5.51,1.96-1.9-.77-8.86-1.44-11.62-1.11,1.66-1.41,4.04-.88,6.11-.85Z"/>
        </g>
      </g>
    </g>
    <path class="st17" d="M537.08,311.56c-12.09,14.81-5.47-2.95-6.62-8.86,4.56,1.61,5.26,5.65,6.62,8.86Z"/>
    <g>
      <path class="st97" d="M448.93,791.6c22.21,7.23,28.98,6.42,53.31,3.71,11.77,6.8,28.04,2.59,41.85,2.15,0,0,.62-5.48.62-5.48,17.14-2.14,7.09,4.02,14.38,2.47,21.45-1.5,8.26,10.21,8.82,3.71-7.32.52-17.58-2.77-21.74,5.24-13.28,2.11-19.65,2.26-19.23,16.8,0,0,1.08,2.34,1.08,2.34,11.66-1.16,24.5,3.25,36.39-2.14.45-1.94.69-11.79,3.63-12.06,2.77-3.31-2.16,31.24-3.25,17.53-9.2,6.76-27.09,5.77-35.81-.25-6.81-2.01,1.57,7.36-6.16,10.71,0,0-2.01-.83-2.01-.83-.54-18.53-.82-27.79-.82-27.79-11.63-.65-34.32-12.61-39.14,3.19-.88,2.03-1.81,2.62-3.79,1.18.25-1.43,2.3-6.17-1.26-3.87,1.53-5.93-23.8-7.76-26.95-9.12-7.17-6.12-14.87-12.23-16.6.95-5.79,1.73-.26,11.57-6.19,14.23-.98,2.91-.25-4.56-.48-7.83l-4.72,10.98c.35-5.13,6.88-22.4,8.19-27.72,2.32.9,6.44-2.68,7.28-4.85.48-.67,15.19,2.65,12.57,6.75Z"/>
      <path class="st133" d="M626.82,407.53c7,11.46,5.84,34.15-5.48,39.89-5.89-8.98-11.79-37.73-.51-43.1,2.38-3.73,5.68-.06,5.98,3.21Z"/>
      <path class="st130" d="M692.45,435.34c-2.74,2.94-1.69,19.26-7.65,12.05-6.79-7.54-9.31-15.65-3.03-24.22,11.44-10.65,38.16-8.55,13.58,4.66-2.56,1.19-2.31,5.45-2.91,7.51Z"/>
      <path class="st120" d="M684.8,447.39c4.25,3.47,4.14-10.72,7.65-12.05-1.97,6.81-1.19,13.46-1.51,21.29-3.32-2.55-4.36-6.11-6.14-9.24Z"/>
      <path class="st36" d="M475.83,808.21c-.89.19-9,21.32-9.16,11.17-15.03-.53-26.32-7.81-37.97-15,0,0,5.38-15.9,5.38-15.9,6.39,2.52,11.67,4.41,15.75,8.92,2.18,2.46,36.31,1.71,26,10.81Z"/>
      <path class="st42" d="M468.37,822.24c-4.66,17.36-58.85,1.95-36.84-22.19,2.86,17.24,42.32,12.75,36.84,22.19Z"/>
      <path class="st163" d="M569.82,800.43c-2.18,1.68.65,7.68-1.75,7.91-12.49,3.94-28.93,8.59-40.03,14.19-3.84.17-1.3-16.25-2.05-18.12,7.1-1.42,18.88,1.25,21.45-6.71,6.87-.79,23.53-5.9,22.37,2.73Z"/>
      <path class="st45" d="M568.07,808.33c6.61,20.7-39.01,22.44-39.49,10.13,1.41-1.39,14.22-1.66,29.28-9.22,3.66-.48,10.69-8.46,10.21-.91Z"/>
      <g>
        <path class="st81" d="M343.84,685.29c5.64-1.46,8.78,12.48,15.2,15.25-.23,1.77.47,3.27-2.03,2.16-1.39.04-1.11,2.28-3.34,2.03,8.4,11.04,16.13,5.38,12.43,13.91,3.71-3.24,7.33-4.59,9.91-1.93-6.25-2.06-6.89,5.56-14.24.32-3.5,9.43-15.38,29.5-19.03,7.52-1.01-8.61-19.28-.03-34.44-9.75-12.63-21.42,33.96-11.9,31.54-37.74,3.52.84-.64,9.15,3.99,8.24Z"/>
        <path class="st161" d="M355.82,704.26c20.03,19.62-13.27-3.15-15.56-13.27.36-9.41,10.94,11.76,15.56,13.27Z"/>
        <path class="st100" d="M368.22,715.19c-3.47-.04-6.73-2.12-9.35-4,1.6.74,3.63.05,2.34-2.1,2.19,1.96,6.17,2.38,7,6.1Z"/>
        <path class="st85" d="M342.19,718.17c-9.99-3.29-54.32-2.65-16.35-12.19l-15.44.07c40.4-13.08,15.85-18.42,47.9,8.72-1.52,1.25-6.13,18.05-9.74,15.71-3.12-1.66-1.4-9.6-6.37-12.32Z"/>
      </g>
      <path class="st124" d="M613.17,416.26c3.3,33.4.33.72-38.91,30.22-4.6,21.13,36.52,22.81,40.07,6.57,8.04-3.63,3.68,13.19,1.88,16.45l.66-8.12c-4.42,6.12-4.69-.51-15.4,5.59-13.92,8.14-32.66-3.21-32.88-22.15-3.64-4.07,1.82-6.03,6.1-8.23,6.9,3.58,4.36-10.08,8.28-5.15,9.73-2.38,21.38-17.77,15.63-26.46-.74-3.28-1.76-8.22,1.74-9.72,5.93,3.36,3.6-1.11,8.18-3.87.19,8.29-.02,16.56-.64,24.83,2.06,1.7,4.33-2.34,5.29.04Z"/>
      <path class="st132" d="M338.89,494.13c5.36.55,7.75,12.59,7.49,4.39,11.79-1.36,51.5,13.62,27.42-9.24,3.46-1.82,8.75,4.63,10.2,7.95,6.22,1.3.27,8.81-3.5,5.26,2.19,10.34-19.62.85-25.45,4.49,7.6,21.74-27.52,17.99-40.1-.76-5.46-4.25-2.26-14.54-6.91-12.2,2.23-2.59-1.06-7.89-4.39-5.55,1.21-9.81,13.43,14.68,18.06,7.19-10.97-17.69,11.13-4.78,17.18-1.54Z"/>
      <path class="st26" d="M589.13,359.27c-26.79-16.54-27.34,6.56-20.55-29.56-1.16-27.53,50.99,63.67,20.55,29.56Z"/>
      <path class="st53" d="M518.04,544.3c2.35,6.5-3.28,14.77-5.43,20.92-8.74-7.54-48.68-18.61-10.52-21.67,2.35.38,14.91-2.86,15.94.75Z"/>
      <path class="st64" d="M400.14,479.37c2.89-3.58,9.44,1.34,13.93.82-.16-2.8,1-2.82,1.96-.14,4.17,2.59-2.89,6.45-5.07,2.75l-3.76,1.49c-25.84-2.95-7.44,35.4-38.59-1.04,2.58.91,8.69,9.59,6.88,1.11,15.19-1.7,4.48-11.34,24.65-4.99Z"/>
      <path class="st116" d="M546.93,314.68c-12.4.97-20.15,11.77-22.7,22.67,0,0-.25-23.1-.25-23.1,1.95.6,1,9.77,1.4,11.25l5.99-8.02c-2.75-8.14,15.37-4.98,10.64-13.36,2.85,5.29,5.28,6.91,1.68,9.12,1.91.19,2.84.62,3.24,1.44Z"/>
      <path class="st107" d="M350.2,498.2c-4.9-1.13.15,6.41,5.16,13.99-12.34-6.64-12.4-19.31-23.01.17-4.65-13.4,18.03-10.52,6.55-18.23l11.31,4.07Z"/>
      <path class="st140" d="M613.72,433.6c1.73,1.99,3.3,11.4-1.72,7.14-1.18-7.05-10.65-7.24-15.3-3.33-2.53,2.19-7.28,7.93-1.53,6.21,3.99,5.5,17.68,11.85,17.07.87,9.12-7.89,5.46,20.72-4.14,17.6-4.76-.48-6.38,1.79-9.53,3.83-10.23,5.21-33.36-9.41-25.28-21.17,11.99-6,27.99-20.47,40.43-11.15Z"/>
      <path class="st160" d="M617.38,446.38c-2.91-5.9-3.49,1.3-3.78,4.01-.27.77-10.85,4.89-14.76-1.83-4.64,3.3-2.42-.47-4.37-3.25-17.59,16.1,7.64-31.88,20.32-4.17-.48-2.76-1.36-9.16-.83-11.89,2.27,2.9,1.99,13.34,3.43,17.13Z"/>
      <path class="st76" d="M553.98,431.41c6.37,2.78,17.25,8.24,21.45-1.77,0,0,2.16-.55,2.16-.55,2.95-4.28-.09,6.29-2.36,6.96,4.13.83,3.87-2.92,5.51-3.64-.23,7.87-14.47,8.98-20.79,7.82-9.41-6.01-19.61-16.63-12.98-24.09,4.37,3.24,3.54,10.66,7,15.26Z"/>
      <path class="st113" d="M447.1,468.63c-1.16,3.47-4.42,6.57-8.06,7.44-2.2,7.98-12.14,3.11-17.12,1.4,7.8-.18,12.98-3.95,18.73-9.4,4.57-.31.29,5.05,6.45.56Z"/>
      <path class="st50" d="M380.51,502.5c4.42-1.43,6.44,3.91,1.71,4.74-3.23-.32-21.9,1.73-24.29-.96,0,0,22.1-.06,22.1-.06-.91-4.6-10.36.54-10.01-4.02,0,0,10.49.32,10.49.32Z"/>
      <g>
        <path class="st69" d="M555.99,353.58c-9.71,5.6-19.36,15.52-19.41,27.92,9.72-3.1-4.59,38.25,23.38,58.73,7.53.74,12.11,1.05,10.82,11.94,4.14,13.06,22.52,21.84,34.09,11.52,0,0,8.7-1.18,8.7-1.18,5.52-6.51,4.15,2.73,2.64,7-44.07,74.81-161.43,93.74-235.77,58.43-9.66-5.74-16.85,7.52-35.02,5.93-45.09,1.32-52.12-65.17-33.02-39.94.1,17.5,34.66,37.82,43.32,17.72-3.57-3.93-2.29-10.2,2.22-5.38,36.36-2.48,22.28,16.57,38.94,14.38,31.95,7.63,69.33-17.71,45.96-46.23-3.38-5.26,6.82-2.11,3.77-2.45,15-10.67,12.43-40.94-.16-52.03-7.05,2.75-7.32-10.37-11.7-13.17,2.32-1.9,8.57-1.71,12.64,1.43-28.09-43.43-105.58,28.05-65.27,58.53.05-6.11,3.64-5.52,6.77.55,1.01,4.06,1.3,4.49,5.48,5.86,8.39,2.4,7.33,11.64-2.41,6.16-5.8-.42-9.2,8.28-14.41,6.36-5.68,13.39-26.93-31-29.77-38.02-2.11-7.75,19.7-43.29,27.24-40.27,36.98-36.08,25.64-88.51,69.81-26.42,4.04-.08,15.87,15.36,15.39,6.23,5.73-7.43,14.29,24.81,17.99,17.1,10.36-8.75,18.91-20.09,28.66-29.43,2.92-.61,2.37,5.71,5.11,3.44,12.35-18.2,8.87-43.12,21.08-59.79,11.56-12.08,27.54,28.22,22.95,35.08Z"/>
        <g>
          <path class="st98" d="M524.01,535l-12.08,5.93c4.82-1.81,9.07,5.3,3.42,3.51,0,0-9.16,1.2-27.48,3.6-4.69-3.11,4.85-4.64-3.88-5.67,12.49-3,27.61-3.04,40.02-7.37Z"/>
          <path class="st108" d="M529.18,508.67c-3.71,2.59-24.99,8.73-27.47,2.45-64.67-37.89,78.26-56.37,27.47-2.45Z"/>
          <path class="st64" d="M379.16,507.45c1.25-2.55,1.77-3.1,3.06-.22,1.5-4.12,7.19-2.09,8.21,1.79,15.12,12.35,54.74,4.56,51.63-18.95-2.89-4.6-7.34-19.19.78-15.66,27.78,21-8.39,54.66-35.92,48.84,0,0-9.98-.62-9.98-.62-1.75-.11-5.32,2.26-7.16-.13-5.55-7.19-10.44-9.71-10.61-15.06Z"/>
          <path class="st151" d="M529.18,508.67c-1.36.51-3.18-.91-.98-2.09,17.81-11.36,8.57-34.11-11.83-30.09-4.53,2-27.76,4.74-29.75,10.15-2.46,13.46,11.25,23.5,23.57,25.07-14.67,6.69-37.61-21.42-21.82-30.98,16.32-4.81,34.12-11.45,51.23-9.9,3.56,1.11,6.85,26.24-10.43,37.84Z"/>
          <path class="st57" d="M440.48,391.68l-23.75-1.76c7.23-2.4,16.42-3.86,23.75,1.76Z"/>
          <path class="st126" d="M548.49,354.03c-5.38,2.7-8.18,7.02-12.66,10.47-1.38-4.79,12.74-15.81,12.66-10.47Z"/>
          <path class="st140" d="M570.07,440.15c-2.84,2.08-7.31,1.62-10.12.08l10.12-.08Z"/>
        </g>
      </g>
      <path class="st102" d="M600.34,395.27c-2.7,6.64,3.82,11.53,2.32,16.58-3.3,5.97-13.34,26.58-19.69,19.6,13.74-16.81-9.42-69.23,17.37-36.18Z"/>
      <path class="st25" d="M562.89,419.5c6.28-4.14,20.14,1.17,14.71,9.59-6.2,23.09-43.45-6.71-14.71-9.59Z"/>
      <g>
        <path class="st109" d="M578.16,354.37c1.7-3.58,11.2,1.75,10.97,4.9,15,10.59,25.68,27.78,12.47,44.78-.13-17.24-15.49-26.7-24.33-37.63-2.42-.92-3.16.41-1.28,2.11,12.96,3.34,22.3,59.02,4.77,63.88-2.21,6.85-10.87,7.1-1.7-3.17-1.66-7.54,8.5-22.74-5.97-22.87,1.4,8.7-2.04,12.87-10.18,13.12.87,2.87-4.1,3.61-5.12.94-4.13,4.11-7.6.06-9.33-4.07-7,18.72-12.21-25.49-9.5-35.35l-4.11,10.08c-6.03-26.64,19.75-43.82,43.34-36.72Z"/>
        <g>
          <path class="st125" d="M579.05,429.24c-3.55-4.99-6.33-12.55-16.15-9.74,8.85-2.38,8.57-5.63,8.17-15.06,15.6-2.45,12.95,16.31,7.98,24.81Z"/>
          <path class="st15" d="M577.27,366.42c11.94,5,19.88,17.15,23.08,28.85-1.26-1.32-3.04-6.66-5.17-3.06-3.52-5.12-9.96-8.41-8.22.31-1.11-12.45-18.66-31.28-9.69-26.1Z"/>
          <path class="st56" d="M554.1,386.79c1.76,11.44-14.74,12.91-13.64,1.48.04-8.23,12.98-11.47,13.64-1.48Z"/>
          <path class="st103" d="M557.77,420.43c-3.31,2.67-4.36,6.7-3.79,10.97-4.01-3.19-10.04-12.78-5.32-17.01,2.6-.12,1.88,7.36,9.11,6.04Z"/>
          <path class="st3" d="M577.27,366.42c-1.85-.6-2.52.49-1.28,2.11-6.33-2.01-3.6-6.5,1.28-2.11Z"/>
        </g>
      </g>
      <path class="st50" d="M427.42,480.78c30.07,11.42-11.45,39.47-29.05,30.06-18.79-8.7.5-25.25,12.6-28.04,4.67-1.63,10.56-2.86,16.45-2.01Z"/>
      <path class="st143" d="M439.04,476.06c.09,1.55,1.27,2.79,3.14,3.54-2.86,6.7,5.24,12.52,1.47,20.22-12.55,16.97-33.91,23.17-54.18,10.96-2-3.56-3.35-4.2-7.25-3.56,1.82-2.17-.08-3.53-1.71-4.74,2.21-.38,6.16-2.63,3.5-5.26,2.54.03,6.37,1.07,3.34-2.4.8-3.89,12.82-17.03,23.62-12.04-2.45,4.51-22.82,10.27-17.42,21.87,14.03,17.53,59.57-7.62,33.88-23.89,1.58-3.03,8.25-2.1,11.62-4.72Z"/>
      <path class="st156" d="M443.86,464.64c-1.74,19.71-45.77,12.84-21.67-4.47,7.6-6.07,21.62-10.26,21.67,4.47Z"/>
      <g>
        <path class="st43" d="M439.14,406.33c-5.48-1.32-3.7.86-1.06,4.03,4.35,2.5,4.51,9.9,9.39,11.31,4.68,12.93,13.24,37.98-.37,46.96-2.97,4.05-6.76,5.56-4.17-.53-.23-1.62,5.92-7.92,1.5-11.02,1.98-7.06.1-12.34-7.95-12.55,1.03,9.42-4.51,10.93-11.57,13.88.94,2.64-.49,3.02-2.74,1.77-3.89,3.8-8.43,2.78-13.64-3.06-8.47,12.88,11.15,18.21,19.49,21.94,5.39,2.26-12.48,6.89-12,.99-10.6,1.65-22.61-14.09-25.4-23.17-.28-3.61.8-9-3.03-10.92.46-33.08-11.25,19.55-.24,25.46-51.41-24.36,15.66-100.8,57.85-73.09,0,0-3.82,2.15-3.82,2.15,14.55,11.44,13.1,15.29-2.25,5.86Z"/>
        <g>
          <path class="st158" d="M391.14,452.62c4.1,11.76,11.63,21.75,22.93,27.57-9.03,3.21-23.48-3.58-26.91-11.91-9.8-4.54-1.88-36.06,3.97-15.65Z"/>
          <path class="st171" d="M445.94,471.32c19.06-25.41-15.73-69.73,6.76-48.75,7.05,10.86,9.61,53.53-6.76,48.75Z"/>
          <path class="st122" d="M391.14,452.62c-2.65-7.64-3.78-6.89-6.39.25-4.02,3.77-1.17,6.6-2,10.72-4.62-10.31-.82-28.86,7.16-39.06-1.41,10.61-1.46,19.12,1.22,28.09Z"/>
          <path class="st29" d="M439.14,406.33c-.94.22-1.73-.21-3.41.32,1.42,1,2.13,2.23,2.34,3.72-6.74-4.15-8.57-8.73,1.06-4.03Z"/>
          <path class="st138" d="M422.19,460.17c-9.49,9.89-3.81,18.02,9,16.31-12.07,4.95-36.36-8.63-22.91-22.12,3.42,2.48,9.19,9,13.91,5.8Z"/>
          <path class="st138" d="M446.19,459.2c-2.08,12.13-7.12-10.8-21.26-.8,7.69-5.88,9.26-1.75,9.7-15.76,10.4-1.93,14.61,8.23,11.56,16.56Z"/>
          <path class="st118" d="M395.26,439.15c-13.16-8.88,9.64-25.79,10.94-7.22-.04,5.5-4.34,8.99-10.94,7.22Z"/>
          <path class="st113" d="M443.01,467.5c1.08-2.66,1.03-6.18,3.18-8.29-.42,2.18.47,8.62-3.18,8.29Z"/>
        </g>
      </g>
    </g>
  </g>
</svg>